<svg width="41" height="41" viewBox="0 0 41 41" fill="none" xmlns="http://www.w3.org/2000/svg">
<g clip-path="url(#clip0_1094_8309)">
<path d="M10.25 15.375C11.6092 15.375 12.9128 14.835 13.8739 13.8739C14.835 12.9128 15.375 11.6092 15.375 10.25M10.25 15.375C8.89077 15.375 7.5872 14.835 6.62608 13.8739C5.66495 12.9128 5.125 11.6092 5.125 10.25M10.25 15.375V20.5M15.375 10.25C15.375 8.89077 14.835 7.5872 13.8739 6.62608C12.9128 5.66495 11.6092 5.125 10.25 5.125M15.375 10.25H20.5M10.25 5.125C8.89077 5.125 7.5872 5.66495 6.62608 6.62608C5.66495 7.5872 5.125 8.89077 5.125 10.25M10.25 5.125V0M5.125 10.25H0M3.41667 3.41667L6.83333 6.83333M13.6667 13.6667L17.0833 17.0833M17.0833 3.41667L13.6667 6.83333M6.83333 13.6667L3.41667 17.0833M30.75 20.5C32.1092 20.5 33.4128 19.96 34.3739 18.9989C35.335 18.0378 35.875 16.7342 35.875 15.375M30.75 20.5C29.3908 20.5 28.0872 19.96 27.1261 18.9989C26.165 18.0378 25.625 16.7342 25.625 15.375M30.75 20.5V25.625M35.875 15.375C35.875 14.0158 35.335 12.7122 34.3739 11.7511C33.4128 10.79 32.1092 10.25 30.75 10.25M35.875 15.375H41M30.75 10.25C29.3908 10.25 28.0872 10.79 27.1261 11.7511C26.165 12.7122 25.625 14.0158 25.625 15.375M30.75 10.25V5.125M25.625 15.375H20.5M23.9167 8.54167L27.3333 11.9583M34.1667 18.7917L37.5833 22.2083M37.5833 8.54167L34.1667 11.9583M27.3333 18.7917L23.9167 22.2083M15.375 35.875C16.7342 35.875 18.0378 35.335 18.9989 34.3739C19.96 33.4128 20.5 32.1092 20.5 30.75M15.375 35.875C14.0158 35.875 12.7122 35.335 11.7511 34.3739C10.79 33.4128 10.25 32.1092 10.25 30.75M15.375 35.875V41M20.5 30.75C20.5 29.3908 19.96 28.0872 18.9989 27.1261C18.0378 26.165 16.7342 25.625 15.375 25.625M20.5 30.75H25.625M15.375 25.625C14.0158 25.625 12.7122 26.165 11.7511 27.1261C10.79 28.0872 10.25 29.3908 10.25 30.75M15.375 25.625V20.5M10.25 30.75H5.125M8.54167 23.9167L11.9583 27.3333M18.7917 34.1667L22.2083 37.5833M22.2083 23.9167L18.7917 27.3333M11.9583 34.1667L8.54167 37.5833" stroke="#0C3B98" stroke-width="4"/>
</g>
<defs>
<clipPath id="clip0_1094_8309">
<rect width="41" height="41" fill="white"/>
</clipPath>
</defs>
</svg>
