<svg width="59" height="59" viewBox="0 0 59 59" fill="none" xmlns="http://www.w3.org/2000/svg">
<path d="M29.5005 29.4996V29.5241M36.4527 22.5474C38.2961 24.3914 39.3317 26.8921 39.3317 29.4996C39.3317 32.107 38.2961 34.6077 36.4527 36.4517M43.4073 15.5928C45.2336 17.419 46.6823 19.5871 47.6707 21.9732C48.6591 24.3594 49.1679 26.9168 49.1679 29.4996C49.1679 32.0823 48.6591 34.6398 47.6707 37.0259C46.6823 39.412 45.2336 41.5801 43.4073 43.4064M22.5385 36.4517C20.695 34.6077 19.6594 32.107 19.6594 29.4996C19.6594 26.8921 20.695 24.3914 22.5385 22.5474M15.579 43.4064C13.7526 41.5801 12.3039 39.412 11.3155 37.0259C10.3271 34.6398 9.81836 32.0823 9.81836 29.4996C9.81836 26.9168 10.3271 24.3594 11.3155 21.9732C12.3039 19.5871 13.7526 17.419 15.579 15.5928" stroke="#0C3B98" stroke-width="4" stroke-linecap="round" stroke-linejoin="round"/>
</svg>
