<svg width="182" height="120" viewBox="0 0 182 120" fill="none" xmlns="http://www.w3.org/2000/svg">
<path d="M85.9034 41.9773C84.044 52.7025 78.1869 61.8756 72.5699 68.5411V49.1877H52.4004V29.6328H72.5699V11.7334C77.8046 14.8918 89.0309 23.9177 85.9034 41.9773Z" fill="#1259E4"/>
<path d="M105.082 15.2666C105.082 19.4477 101.694 22.836 97.5127 22.836C93.3316 22.836 89.9434 19.4477 89.9434 15.2666C89.9434 11.0855 93.3316 7.69727 97.5127 7.69727C101.694 7.69727 105.082 11.0855 105.082 15.2666Z" fill="#16CDAC"/>
<mask id="mask0_1253_6414" style="mask-type:luminance" maskUnits="userSpaceOnUse" x="77" y="29" width="36" height="41">
<path d="M77.8301 29.4834H112.281V69.812H77.8301V29.4834Z" fill="white"/>
</mask>
<g mask="url(#mask0_1253_6414)">
<path d="M92.5977 29.6357C92.7242 34.2688 92.0579 39.3021 90.5988 44.7538C88.1196 54.0199 83.1663 62.6533 78.4609 69.3575H92.1251V49.188H112.295V29.6357H92.5977Z" fill="#16CDAC"/>
</g>
<path d="M72.5664 11.7305V17.381C72.5664 17.381 80.6058 24.8523 80.6058 34.2888C80.6058 43.1985 78.0336 53.9753 72.569 67.2288V68.5407C78.1834 61.8753 83.2425 52.4439 85.9025 41.9769C89.9442 26.0583 77.8012 14.8889 72.5664 11.7305Z" fill="#0C3483"/>
<mask id="mask1_1253_6414" style="mask-type:luminance" maskUnits="userSpaceOnUse" x="42" y="0" width="48" height="81">
<path d="M42.3652 0.393555H89.0675V80.1392H42.3652V0.393555Z" fill="white"/>
</mask>
<g mask="url(#mask1_1253_6414)">
<path d="M64.5181 80.1102C64.5181 80.1102 88.5536 46.7259 83.1148 28.9685C77.2602 9.86047 57.269 7.91066 57.269 7.91066C57.269 7.91066 68.1285 11.4048 71.4108 19.1989C74.6932 26.9929 60.0581 32.7829 53.2273 15.8829C49.3716 6.33791 42.3652 5.86014 42.3652 5.86014C42.3652 5.86014 58.2865 -4.64038 73.2677 4.62828C86.2397 12.6522 91.9935 24.32 86.7975 43.7354C81.6015 63.1534 64.5181 80.1102 64.5181 80.1102Z" fill="#16CDAC"/>
</g>
<path d="M2.9147 113.143C2.15204 113.143 1.56698 112.944 1.15953 112.544C0.759048 112.136 0.560547 111.551 0.560547 110.789V91.1334C0.560547 90.3743 0.759048 89.7927 1.15953 89.3922C1.56698 88.9848 2.15204 88.7793 2.9147 88.7793H15.2426C15.8173 88.7793 16.2595 88.929 16.566 89.2251C16.8794 89.5245 17.0396 89.9494 17.0396 90.5066C17.0396 91.0847 16.8794 91.5304 16.566 91.8439C16.2595 92.1503 15.8173 92.3036 15.2426 92.3036H4.80916V99.0038H14.4904C15.0825 99.0038 15.5282 99.1571 15.8277 99.4635C16.1342 99.763 16.2874 100.198 16.2874 100.773C16.2874 101.351 16.1342 101.786 15.8277 102.082C15.5282 102.382 15.0825 102.528 14.4904 102.528H4.80916V109.618H15.2426C15.8173 109.618 16.2595 109.768 16.566 110.064C16.8794 110.364 17.0396 110.799 17.0396 111.374C17.0396 111.952 16.8794 112.39 16.566 112.697C16.2595 112.996 15.8173 113.143 15.2426 113.143H2.9147Z" fill="#0C3483"/>
<path d="M26.3417 113.489C25.1159 113.489 24.0224 113.252 23.0682 112.779C22.1105 112.305 21.3618 111.664 20.8255 110.856C20.2857 110.048 20.0176 109.139 20.0176 108.126C20.0176 106.883 20.338 105.897 20.9787 105.173C21.6265 104.448 22.6782 103.93 24.1269 103.613C25.5756 103.289 27.5188 103.125 29.9635 103.125H31.6908V105.605H30.0053C28.574 105.605 27.4318 105.674 26.5786 105.814C25.7219 105.953 25.1159 106.19 24.7537 106.524C24.3985 106.858 24.2244 107.325 24.2244 107.917C24.2244 108.68 24.4891 109.303 25.0184 109.784C25.5477 110.268 26.286 110.508 27.2333 110.508C27.9924 110.508 28.668 110.334 29.2531 109.979C29.8451 109.627 30.3152 109.139 30.66 108.516C31.0013 107.896 31.1754 107.179 31.1754 106.371V102.387C31.1754 101.238 30.9177 100.409 30.4093 99.9073C29.9078 99.3989 29.0581 99.1412 27.8601 99.1412C27.1915 99.1412 26.4706 99.2248 25.701 99.3919C24.9279 99.5521 24.1164 99.8237 23.2632 100.214C22.8244 100.419 22.4414 100.478 22.1071 100.395C21.7727 100.304 21.5116 100.113 21.327 99.8237C21.1389 99.5382 21.0484 99.2213 21.0484 98.8765C21.0484 98.5248 21.1389 98.18 21.327 97.8457C21.5116 97.5114 21.8215 97.2676 22.2603 97.1074C23.319 96.6721 24.3358 96.3622 25.3109 96.1741C26.293 95.9895 27.1915 95.8955 27.9994 95.8955C29.6501 95.8955 31.0117 96.1532 32.0809 96.6617C33.1569 97.1631 33.9614 97.9293 34.4907 98.9601C35.0201 99.9839 35.2847 101.3 35.2847 102.916V111.204C35.2847 111.922 35.1106 112.469 34.7693 112.848C34.4246 113.228 33.9266 113.419 33.2788 113.419C32.6381 113.419 32.1366 113.228 31.7744 112.848C31.4192 112.469 31.2451 111.922 31.2451 111.204V109.547H31.5237C31.3565 110.355 31.0361 111.051 30.5625 111.636C30.0958 112.221 29.5073 112.678 28.7934 113.001C28.076 113.325 27.2611 113.489 26.3417 113.489Z" fill="#0C3483"/>
<path d="M45.8574 113.489C44.8718 113.489 43.8271 113.381 42.7231 113.169C41.6157 112.967 40.6232 112.611 39.7421 112.11C39.38 111.88 39.1188 111.608 38.9621 111.302C38.8123 110.989 38.7566 110.675 38.7949 110.369C38.8297 110.055 38.9481 109.78 39.1432 109.547C39.3382 109.317 39.5889 109.167 39.8954 109.101C40.2088 109.028 40.5536 109.084 40.9262 109.268C41.8456 109.707 42.7022 110.013 43.5032 110.188C44.3111 110.355 45.1086 110.438 45.8992 110.438C47.0031 110.438 47.825 110.254 48.3647 109.881C48.9115 109.502 49.1866 109 49.1866 108.377C49.1866 107.847 49.0055 107.44 48.6433 107.151C48.2881 106.865 47.7553 106.649 47.0414 106.51L43.5868 105.855C42.1555 105.577 41.0655 105.054 40.3133 104.281C39.568 103.512 39.1989 102.512 39.1989 101.286C39.1989 100.182 39.4984 99.2248 40.1043 98.4168C40.7172 97.6089 41.56 96.989 42.6396 96.5502C43.7261 96.1149 44.9728 95.8955 46.3867 95.8955C47.3966 95.8955 48.3438 96.0069 49.2284 96.2298C50.1199 96.4457 50.9766 96.7835 51.8054 97.2467C52.1467 97.4348 52.3835 97.6751 52.5158 97.9711C52.6447 98.2706 52.6726 98.577 52.5994 98.8904C52.5333 99.1969 52.394 99.472 52.1815 99.7123C51.9761 99.9561 51.7149 100.109 51.4015 100.172C51.095 100.228 50.7468 100.165 50.3567 99.977C49.6393 99.6078 48.9533 99.3432 48.2951 99.183C47.6439 99.0158 47.017 98.9322 46.4146 98.9322C45.2793 98.9322 44.4435 99.1342 43.9072 99.5312C43.3674 99.9212 43.0992 100.437 43.0992 101.077C43.0992 101.561 43.256 101.965 43.5729 102.289C43.8967 102.617 44.3947 102.833 45.0634 102.944L48.518 103.599C50.0224 103.877 51.1577 104.389 51.9308 105.131C52.7004 105.866 53.087 106.855 53.087 108.098C53.087 109.78 52.4253 111.1 51.1089 112.054C49.7995 113.012 48.0478 113.489 45.8574 113.489Z" fill="#0C3483"/>
<path d="M60.8258 119.633C60.3139 119.633 59.896 119.497 59.5721 119.229C59.2552 118.968 59.0637 118.619 59.001 118.184C58.9453 117.745 59.0219 117.286 59.2378 116.805L61.578 111.581V113.378L55.2956 98.8354C55.0902 98.3269 55.0205 97.8533 55.0867 97.4145C55.1598 96.9792 55.3722 96.631 55.7275 96.3698C56.0792 96.1016 56.5667 95.9658 57.1901 95.9658C57.7194 95.9658 58.1443 96.0877 58.4716 96.328C58.7955 96.5718 59.0846 97.0245 59.3353 97.6931L64.0018 109.339H62.971L67.735 97.6653C67.9858 97.0175 68.2818 96.5718 68.6265 96.328C68.9783 96.0877 69.4414 95.9658 70.0195 95.9658C70.521 95.9658 70.918 96.1016 71.2175 96.3698C71.5239 96.631 71.7085 96.9757 71.7747 97.4006C71.8478 97.8289 71.7677 98.2921 71.5379 98.7936L63.1382 117.975C62.8387 118.623 62.5148 119.062 62.1631 119.284C61.8183 119.514 61.3725 119.633 60.8258 119.633Z" fill="#0C3483"/>
<path d="M79.6035 113.422C78.8861 113.422 78.3394 113.22 77.9598 112.823C77.5767 112.415 77.3887 111.854 77.3887 111.137V90.7855C77.3887 90.0437 77.5767 89.4761 77.9598 89.086C78.3394 88.696 78.8861 88.501 79.6035 88.501C80.3174 88.501 80.8642 88.696 81.2473 89.086C81.6268 89.4761 81.8184 90.0437 81.8184 90.7855V98.9345H94.3553V90.7855C94.3553 90.0437 94.5433 89.4761 94.9264 89.086C95.306 88.696 95.8527 88.501 96.5701 88.501C97.284 88.501 97.8308 88.696 98.2139 89.086C98.5934 89.4761 98.785 90.0437 98.785 90.7855V111.137C98.785 111.854 98.5934 112.415 98.2139 112.823C97.8308 113.22 97.284 113.422 96.5701 113.422C95.8527 113.422 95.306 113.22 94.9264 112.823C94.5433 112.415 94.3553 111.854 94.3553 111.137V102.64H81.8184V111.137C81.8184 111.854 81.6303 112.415 81.2612 112.823C80.8886 113.22 80.3348 113.422 79.6035 113.422Z" fill="#16CDAC"/>
<path d="M112.011 113.489C110.096 113.489 108.449 113.134 107.066 112.416C105.691 111.702 104.629 110.689 103.876 109.38C103.124 108.063 102.748 106.507 102.748 104.713C102.748 102.958 103.11 101.426 103.835 100.116C104.566 98.7999 105.569 97.7691 106.843 97.0238C108.125 96.2716 109.581 95.8955 111.217 95.8955C112.415 95.8955 113.491 96.0905 114.449 96.4806C115.403 96.8706 116.222 97.4382 116.901 98.18C117.576 98.9148 118.092 99.8063 118.447 100.855C118.809 101.906 118.99 103.083 118.99 104.393C118.99 104.811 118.844 105.131 118.558 105.354C118.269 105.57 117.862 105.674 117.333 105.674H106.244V103.181H115.954L115.396 103.71C115.396 102.652 115.236 101.767 114.923 101.05C114.616 100.336 114.171 99.7889 113.585 99.4058C113 99.0262 112.269 98.8347 111.399 98.8347C110.423 98.8347 109.595 99.0646 108.919 99.5173C108.24 99.963 107.721 100.597 107.359 101.412C107.004 102.23 106.83 103.202 106.83 104.323V104.574C106.83 106.461 107.268 107.872 108.153 108.809C109.044 109.738 110.354 110.201 112.081 110.201C112.684 110.201 113.356 110.128 114.101 109.979C114.853 109.832 115.564 109.571 116.232 109.199C116.713 108.92 117.138 108.802 117.5 108.836C117.869 108.875 118.168 109.01 118.391 109.24C118.614 109.463 118.743 109.742 118.781 110.076C118.827 110.41 118.76 110.755 118.586 111.107C118.419 111.452 118.13 111.748 117.723 111.998C116.915 112.51 115.985 112.886 114.937 113.127C113.885 113.367 112.91 113.489 112.011 113.489Z" fill="#16CDAC"/>
<path d="M127.978 113.489C126.753 113.489 125.659 113.252 124.705 112.779C123.747 112.305 122.999 111.664 122.462 110.856C121.922 110.048 121.654 109.139 121.654 108.126C121.654 106.883 121.975 105.897 122.615 105.173C123.263 104.448 124.315 103.93 125.764 103.613C127.212 103.289 129.156 103.125 131.6 103.125H133.328V105.605H131.642C130.211 105.605 129.068 105.674 128.215 105.814C127.359 105.953 126.753 106.19 126.39 106.524C126.035 106.858 125.861 107.325 125.861 107.917C125.861 108.68 126.126 109.303 126.655 109.784C127.184 110.268 127.923 110.508 128.87 110.508C129.629 110.508 130.305 110.334 130.89 109.979C131.482 109.627 131.952 109.139 132.297 108.516C132.638 107.896 132.812 107.179 132.812 106.371V102.387C132.812 101.238 132.554 100.409 132.046 99.9073C131.545 99.3989 130.695 99.1412 129.497 99.1412C128.828 99.1412 128.107 99.2248 127.338 99.3919C126.565 99.5521 125.753 99.8237 124.9 100.214C124.461 100.419 124.078 100.478 123.744 100.395C123.409 100.304 123.148 100.113 122.964 99.8237C122.776 99.5382 122.685 99.2213 122.685 98.8765C122.685 98.5248 122.776 98.18 122.964 97.8457C123.148 97.5114 123.458 97.2676 123.897 97.1074C124.956 96.6721 125.973 96.3622 126.948 96.1741C127.93 95.9895 128.828 95.8955 129.636 95.8955C131.287 95.8955 132.648 96.1532 133.718 96.6617C134.794 97.1631 135.598 97.9293 136.127 98.9601C136.657 99.9839 136.921 101.3 136.921 102.916V111.204C136.921 111.922 136.747 112.469 136.406 112.848C136.061 113.228 135.563 113.419 134.916 113.419C134.275 113.419 133.773 113.228 133.411 112.848C133.056 112.469 132.882 111.922 132.882 111.204V109.547H133.16C132.993 110.355 132.673 111.051 132.199 111.636C131.733 112.221 131.144 112.678 130.43 113.001C129.713 113.325 128.898 113.489 127.978 113.489Z" fill="#16CDAC"/>
<path d="M147.091 113.491C145.176 113.491 143.734 112.944 142.759 111.847C141.791 110.754 141.311 109.145 141.311 107.028V90.674C141.311 89.9601 141.495 89.4203 141.868 89.0582C142.237 88.689 142.766 88.501 143.456 88.501C144.152 88.501 144.685 88.689 145.058 89.0582C145.437 89.4203 145.629 89.9601 145.629 90.674V106.819C145.629 107.877 145.852 108.664 146.297 109.173C146.75 109.674 147.391 109.925 148.22 109.925C148.404 109.925 148.575 109.922 148.735 109.911C148.902 109.904 149.063 109.883 149.223 109.855C149.547 109.81 149.766 109.897 149.877 110.12C149.996 110.336 150.059 110.775 150.059 111.443C150.059 112.022 149.94 112.471 149.71 112.795C149.477 113.122 149.097 113.314 148.568 113.38C148.335 113.408 148.094 113.429 147.844 113.449C147.593 113.477 147.342 113.491 147.091 113.491Z" fill="#16CDAC"/>
<path d="M160.076 113.489C158.579 113.489 157.332 113.239 156.329 112.737C155.326 112.229 154.581 111.483 154.1 110.508C153.616 109.526 153.376 108.304 153.376 106.845V99.4897H151.579C151.022 99.4897 150.593 99.347 150.297 99.0579C150.001 98.7723 149.852 98.3719 149.852 97.8599C149.852 97.3306 150.001 96.9336 150.297 96.662C150.593 96.3834 151.022 96.2441 151.579 96.2441H153.376V93.0959C153.376 92.382 153.564 91.8422 153.947 91.48C154.327 91.1109 154.859 90.9229 155.549 90.9229C156.235 90.9229 156.764 91.1109 157.137 91.48C157.506 91.8422 157.694 92.382 157.694 93.0959V96.2441H161.358C161.904 96.2441 162.326 96.3834 162.625 96.662C162.932 96.9336 163.085 97.3306 163.085 97.8599C163.085 98.3719 162.932 98.7723 162.625 99.0579C162.326 99.347 161.904 99.4897 161.358 99.4897H157.694V106.608C157.694 107.715 157.934 108.544 158.418 109.101C158.899 109.652 159.686 109.923 160.773 109.923C161.163 109.923 161.504 109.892 161.803 109.826C162.099 109.753 162.364 109.707 162.597 109.686C162.876 109.659 163.106 109.749 163.294 109.951C163.478 110.146 163.573 110.543 163.573 111.135C163.573 111.602 163.492 112.013 163.336 112.375C163.186 112.73 162.918 112.974 162.528 113.113C162.228 113.197 161.838 113.28 161.358 113.364C160.874 113.447 160.445 113.489 160.076 113.489Z" fill="#16CDAC"/>
<path d="M167.749 113.422C167.059 113.422 166.53 113.23 166.161 112.85C165.788 112.471 165.604 111.924 165.604 111.207V90.674C165.604 89.9601 165.788 89.4203 166.161 89.0582C166.53 88.689 167.059 88.501 167.749 88.501C168.445 88.501 168.978 88.689 169.351 89.0582C169.73 89.4203 169.922 89.9601 169.922 90.674V99.631H169.448C169.95 98.4051 170.733 97.4788 171.802 96.845C172.878 96.2147 174.094 95.8977 175.452 95.8977C176.817 95.8977 177.935 96.1554 178.809 96.6639C179.68 97.1654 180.334 97.9315 180.773 98.9623C181.219 99.9862 181.442 101.282 181.442 102.849V111.207C181.442 111.924 181.254 112.471 180.885 112.85C180.512 113.23 179.983 113.422 179.297 113.422C178.6 113.422 178.06 113.23 177.681 112.85C177.298 112.471 177.11 111.924 177.11 111.207V103.058C177.11 101.741 176.862 100.784 176.371 100.188C175.877 99.5857 175.111 99.2827 174.073 99.2827C172.809 99.2827 171.802 99.6832 171.05 100.481C170.298 101.271 169.922 102.326 169.922 103.643V111.207C169.922 112.683 169.197 113.422 167.749 113.422Z" fill="#16CDAC"/>
</svg>
