<svg width="25" height="25" viewBox="0 0 25 25" fill="none" xmlns="http://www.w3.org/2000/svg">
<g id="Frame">
<g id="Vector">
<path d="M13.2218 7.558C14.9989 7.558 16.1977 8.32566 16.8812 8.96714L19.5521 6.35917C17.9117 4.83436 15.777 3.89844 13.2218 3.89844C9.52032 3.89844 6.32361 6.02266 4.76732 9.11436L7.82733 11.491C8.59496 9.209 10.7191 7.558 13.2218 7.558Z" fill="#313A34"/>
<path d="M22.3071 13.5731C22.3071 12.7949 22.244 12.2271 22.1073 11.6382H13.2218V15.1505H18.4374C18.3323 16.0233 17.7644 17.3378 16.5026 18.2212L19.489 20.5347C21.2766 18.8837 22.3071 16.4545 22.3071 13.5731Z" fill="#313A34"/>
<path d="M7.83782 15.2346C7.63803 14.6457 7.52235 14.0148 7.52235 13.3628C7.52235 12.7108 7.63805 12.0799 7.82733 11.491L4.76732 9.11436C4.12588 10.3973 3.75781 11.838 3.75781 13.3628C3.75781 14.8876 4.12585 16.3283 4.7673 17.6112L7.83782 15.2346Z" fill="#313A34"/>
<path d="M13.2217 22.8271C15.777 22.8271 17.9222 21.9859 19.489 20.5347L16.5026 18.2212C15.7034 18.7785 14.6308 19.1676 13.2217 19.1676C10.719 19.1676 8.59493 17.5166 7.83782 15.2346L4.77779 17.6112C6.33408 20.7029 9.52028 22.8271 13.2217 22.8271Z" fill="#313A34"/>
</g>
<g id="Vector_2">
<path d="M12.964 7.23768C14.7411 7.23768 15.9398 8.00535 16.6233 8.64682L19.2943 6.03886C17.6539 4.51405 15.5192 3.57812 12.964 3.57812C9.26251 3.57812 6.0658 5.70235 4.50951 8.79405L7.56951 11.1707C8.33714 8.88869 10.4613 7.23768 12.964 7.23768Z" fill="#313A34"/>
<path d="M22.0493 13.2528C22.0493 12.4746 21.9862 11.9068 21.8495 11.3179H12.9639V14.8302H18.1796C18.0745 15.703 17.5066 17.0175 16.2448 17.9009L19.2312 20.2144C21.0188 18.5634 22.0493 16.1342 22.0493 13.2528Z" fill="#313A34"/>
<path d="M7.58001 14.9143C7.38021 14.3254 7.26454 13.6945 7.26454 13.0425C7.26454 12.3905 7.38024 11.7596 7.56951 11.1707L4.50951 8.79405C3.86806 10.077 3.5 11.5177 3.5 13.0425C3.5 14.5673 3.86804 16.008 4.50949 17.2909L7.58001 14.9143Z" fill="#313A34"/>
<path d="M12.9639 22.5068C15.5192 22.5068 17.6644 21.6656 19.2312 20.2144L16.2448 17.9009C15.4456 18.4582 14.373 18.8473 12.9639 18.8473C10.4612 18.8473 8.33712 17.1963 7.58001 14.9143L4.51998 17.2909C6.07627 20.3826 9.26246 22.5068 12.9639 22.5068Z" fill="#313A34"/>
</g>
</g>
</svg>
