<svg width="351" height="1012" viewBox="0 0 351 1012" fill="none" xmlns="http://www.w3.org/2000/svg">
<path d="M7.59961 56.4023C92.3591 98.3584 239.981 219.874 152.395 370.287C42.9115 558.304 3.46949 527.471 88.9826 677.795C174.496 828.12 -66.1221 943.376 -92.2348 970.724" stroke="#0B6056" stroke-width="0.362321"/>
<path d="M-18.0938 45.3223C66.6657 87.2783 214.288 208.794 126.701 359.207C17.2182 547.224 -22.2239 516.391 63.2892 666.715C148.802 817.04 -91.8154 932.296 -117.928 959.644" stroke="#0B6056" stroke-width="0.362321"/>
<path d="M-43.7871 34.2412C40.9724 76.1972 188.595 197.713 101.008 348.126C-8.47519 536.143 -47.9172 505.309 37.5959 655.634C123.109 805.959 -117.509 921.215 -143.621 948.563" stroke="#0B6056" stroke-width="0.362321"/>
<path d="M-69.4805 23.1611C15.279 65.1172 162.901 186.633 75.3147 337.046C-34.1685 525.063 -73.6106 494.229 11.9025 644.554C97.4156 794.879 -143.202 910.135 -169.315 937.483" stroke="#0B6056" stroke-width="0.362321"/>
<path d="M-95.1719 12.0801C-10.4124 54.0361 137.21 175.551 49.6233 325.965C-59.86 513.982 -99.302 483.148 -13.7889 633.473C71.7242 783.798 -168.894 899.054 -195.006 926.402" stroke="#0B6056" stroke-width="0.362321"/>
<path d="M-120.865 1C-36.2568 42.8909 111.072 164.28 23.5184 314.707C-85.9231 502.742 -125.288 471.942 -39.9954 622.172C45.2968 772.401 -195.041 887.778 -221.132 915.135" stroke="#0B6056" stroke-width="0.362321"/>
</svg>
