<svg width="486" height="913" viewBox="0 0 486 913" fill="none" xmlns="http://www.w3.org/2000/svg">
<path d="M453.148 -5.28418C359.432 72.9423 212.116 246.259 372.58 313.716C573.16 398.036 613.056 352.979 553.966 514.551C494.876 676.122 837.87 633.409 879.966 640.131" stroke="#0F8073" stroke-width="0.5"/>
<path d="M482.094 -27.7441C388.378 50.4823 241.061 223.799 401.525 291.256C602.105 375.576 642.002 330.519 582.911 492.091C523.821 653.662 866.815 610.949 908.911 617.671" stroke="#0F8073" stroke-width="0.5"/>
<path d="M511.039 -50.2031C417.323 28.0233 270.006 201.34 430.47 268.797C631.05 353.117 670.947 308.06 611.857 469.632C552.766 631.203 895.761 588.49 937.856 595.212" stroke="#0F8073" stroke-width="0.5"/>
<path d="M539.986 -72.6621C446.27 5.56432 298.954 178.881 459.418 246.338C659.997 330.658 699.894 285.601 640.804 447.173C581.713 608.744 924.708 566.031 966.804 572.753" stroke="#0F8073" stroke-width="0.5"/>
<path d="M568.932 -95.1221C475.215 -16.8956 327.899 156.421 488.363 223.878C688.943 308.198 728.839 263.141 669.749 424.713C610.659 586.284 953.653 543.571 995.749 550.293" stroke="#0F8073" stroke-width="0.5"/>
<path d="M597.877 -117.581C504.331 -39.4867 357.346 133.573 517.772 201.059C718.305 285.416 758.114 240.427 699.273 401.805C640.431 563.184 983.11 520.716 1025.18 527.456" stroke="#0F8073" stroke-width="0.5"/>
</svg>
