<svg width="164" height="50" viewBox="0 0 164 50" fill="none" xmlns="http://www.w3.org/2000/svg">
<path d="M27.0936 26.0349C25.9686 32.5236 22.425 38.0733 19.0268 42.106V30.3972H6.82422V18.5665H19.0268V7.7373C22.1938 9.64815 28.9857 15.1088 27.0936 26.0349Z" fill="#1259E4"/>
<path d="M38.698 9.87537C38.698 12.4049 36.6481 14.4548 34.1185 14.4548C31.589 14.4548 29.5391 12.4049 29.5391 9.87537C29.5391 7.3458 31.589 5.2959 34.1185 5.2959C36.6481 5.2959 38.698 7.3458 38.698 9.87537Z" fill="#16CDAC"/>
<mask id="mask0_903_8871" style="mask-type:luminance" maskUnits="userSpaceOnUse" x="22" y="18" width="22" height="25">
<path d="M22.209 18.4766H43.0517V42.8754H22.209V18.4766Z" fill="white"/>
</mask>
<g mask="url(#mask0_903_8871)">
<path d="M31.1445 18.5684C31.2211 21.3713 30.818 24.4165 29.9352 27.7148C28.4353 33.3208 25.4385 38.544 22.5918 42.6H30.8586V30.3975H43.0611V18.5684H31.1445Z" fill="#16CDAC"/>
</g>
<path d="M19.0254 7.73535V11.1539C19.0254 11.1539 23.8892 15.674 23.8892 21.3831C23.8892 26.7735 22.333 33.2935 19.027 41.3119V42.1056C22.4237 38.073 25.4845 32.367 27.0938 26.0345C29.5389 16.4037 22.1924 9.6462 19.0254 7.73535Z" fill="#0C3483"/>
<mask id="mask1_903_8871" style="mask-type:luminance" maskUnits="userSpaceOnUse" x="0" y="0" width="30" height="50">
<path d="M0.753906 0.876953H29.0088V49.1231H0.753906V0.876953Z" fill="white"/>
</mask>
<g mask="url(#mask1_903_8871)">
<path d="M14.1564 49.1052C14.1564 49.1052 28.6979 28.9077 25.4074 18.1645C21.8654 6.60413 9.77066 5.4245 9.77066 5.4245C9.77066 5.4245 16.3407 7.53846 18.3265 12.2539C20.3123 16.9693 11.4581 20.4722 7.32546 10.2477C4.99276 4.47299 0.753906 4.18394 0.753906 4.18394C0.753906 4.18394 10.3863 -2.16888 19.4499 3.43866C27.2979 8.29311 30.779 15.3522 27.6354 27.0985C24.4918 38.8463 14.1564 49.1052 14.1564 49.1052Z" fill="#16CDAC"/>
</g>
<path d="M55.5082 30.4908C55.0468 30.4908 54.6929 30.3707 54.4464 30.1284C54.2041 29.8819 54.084 29.528 54.084 29.0666V17.1752C54.084 16.7159 54.2041 16.3641 54.4464 16.1218C54.6929 15.8753 55.0468 15.751 55.5082 15.751H62.9667C63.3143 15.751 63.5819 15.8416 63.7673 16.0207C63.9569 16.2019 64.0538 16.4589 64.0538 16.796C64.0538 17.1457 63.9569 17.4154 63.7673 17.605C63.5819 17.7905 63.3143 17.8832 62.9667 17.8832H56.6544V21.9368H62.5116C62.8697 21.9368 63.1394 22.0295 63.3206 22.2149C63.506 22.3961 63.5987 22.6595 63.5987 23.0071C63.5987 23.3569 63.506 23.6202 63.3206 23.7993C63.1394 23.9805 62.8697 24.069 62.5116 24.069H56.6544V28.3586H62.9667C63.3143 28.3586 63.5819 28.4492 63.7673 28.6283C63.9569 28.8095 64.0538 29.0729 64.0538 29.4205C64.0538 29.7703 63.9569 30.0357 63.7673 30.2211C63.5819 30.4023 63.3143 30.4908 62.9667 30.4908H55.5082Z" fill="#0C3483"/>
<path d="M69.6816 30.7017C68.94 30.7017 68.2784 30.5584 67.7011 30.2718C67.1217 29.9853 66.6687 29.5976 66.3443 29.1088C66.0177 28.62 65.8555 28.0701 65.8555 27.457C65.8555 26.7049 66.0493 26.1086 66.437 25.6704C66.8289 25.2322 67.4651 24.9182 68.3416 24.7265C69.2181 24.5306 70.3937 24.4315 71.8728 24.4315H72.9178V25.9316H71.898C71.0321 25.9316 70.341 25.9738 69.8249 26.0581C69.3066 26.1423 68.94 26.2856 68.7208 26.4879C68.5059 26.6901 68.4006 26.9724 68.4006 27.3306C68.4006 27.792 68.5607 28.1692 68.881 28.4599C69.2012 28.7528 69.6479 28.8982 70.221 28.8982C70.6803 28.8982 71.089 28.7928 71.443 28.5779C71.8011 28.3651 72.0856 28.0701 72.2941 27.693C72.5006 27.318 72.606 26.884 72.606 26.3952V23.9849C72.606 23.2896 72.4501 22.7882 72.1424 22.4848C71.8391 22.1772 71.325 22.0212 70.6002 22.0212C70.1957 22.0212 69.7595 22.0718 69.2939 22.1729C68.8262 22.2699 68.3353 22.4342 67.8191 22.6702C67.5536 22.7945 67.3219 22.8303 67.1196 22.7797C66.9173 22.7249 66.7593 22.6091 66.6477 22.4342C66.5339 22.2614 66.4791 22.0697 66.4791 21.8611C66.4791 21.6483 66.5339 21.4397 66.6477 21.2375C66.7593 21.0352 66.9468 20.8877 67.2123 20.7908C67.8528 20.5275 68.468 20.3399 69.0579 20.2262C69.6521 20.1145 70.1957 20.0576 70.6845 20.0576C71.6831 20.0576 72.5069 20.2135 73.1538 20.5211C73.8048 20.8245 74.2915 21.288 74.6117 21.9117C74.932 22.5311 75.0921 23.3275 75.0921 24.3051V29.3195C75.0921 29.7535 74.9868 30.0843 74.7803 30.314C74.5717 30.5436 74.2704 30.6595 73.8785 30.6595C73.4909 30.6595 73.1875 30.5436 72.9683 30.314C72.7534 30.0843 72.6481 29.7535 72.6481 29.3195V28.3166H72.8167C72.7155 28.8054 72.5217 29.2268 72.2351 29.5808C71.9528 29.9347 71.5968 30.2107 71.1648 30.4067C70.7308 30.6026 70.2378 30.7017 69.6816 30.7017Z" fill="#0C3483"/>
<path d="M81.4908 30.7017C80.8946 30.7017 80.2625 30.6363 79.5946 30.5078C78.9246 30.3856 78.3241 30.1707 77.7911 29.8673C77.572 29.7283 77.414 29.5639 77.3192 29.3785C77.2286 29.1889 77.1948 28.9993 77.218 28.8139C77.2391 28.6243 77.3107 28.4578 77.4287 28.3166C77.5467 28.1776 77.6984 28.087 77.8838 28.047C78.0734 28.0027 78.282 28.0364 78.5074 28.1481C79.0637 28.4136 79.582 28.599 80.0665 28.7043C80.5553 28.8054 81.0378 28.856 81.5161 28.856C82.184 28.856 82.6812 28.7443 83.0078 28.5189C83.3386 28.2893 83.505 27.9859 83.505 27.6087C83.505 27.2885 83.3954 27.042 83.1763 26.8671C82.9614 26.6943 82.6391 26.5637 82.2071 26.4794L80.1171 26.0833C79.2512 25.9148 78.5917 25.5988 78.1366 25.131C77.6858 24.6654 77.4624 24.0607 77.4624 23.3191C77.4624 22.6512 77.6436 22.0718 78.0102 21.583C78.381 21.0942 78.8909 20.7192 79.544 20.4537C80.2014 20.1904 80.9557 20.0576 81.8111 20.0576C82.4221 20.0576 82.9951 20.125 83.5303 20.2599C84.0696 20.3905 84.5879 20.5949 85.0894 20.8751C85.2959 20.9889 85.4391 21.1342 85.5192 21.3133C85.5971 21.4945 85.614 21.6799 85.5698 21.8695C85.5297 22.055 85.4454 22.2214 85.3169 22.3668C85.1926 22.5143 85.0346 22.607 84.845 22.6449C84.6596 22.6786 84.4489 22.6407 84.2129 22.5269C83.7789 22.3036 83.3638 22.1434 82.9656 22.0465C82.5716 21.9454 82.1924 21.8948 81.8279 21.8948C81.1411 21.8948 80.6354 22.017 80.3109 22.2572C79.9844 22.4932 79.8221 22.805 79.8221 23.1927C79.8221 23.4855 79.917 23.7299 80.1087 23.9259C80.3046 24.1239 80.6059 24.2546 81.0104 24.322L83.1005 24.7181C84.0106 24.8866 84.6975 25.1963 85.1652 25.6451C85.6309 26.0897 85.8647 26.688 85.8647 27.4402C85.8647 28.4578 85.4644 29.2563 84.668 29.8336C83.8758 30.413 82.816 30.7017 81.4908 30.7017Z" fill="#0C3483"/>
<path d="M90.5434 34.4161C90.2337 34.4161 89.9809 34.334 89.7849 34.1717C89.5932 34.0137 89.4773 33.803 89.4394 33.5397C89.4057 33.2742 89.4521 32.9961 89.5827 32.7053L90.9985 29.545V30.6321L87.1977 21.8337C87.0734 21.5261 87.0312 21.2396 87.0713 20.9741C87.1155 20.7108 87.244 20.5001 87.4589 20.3421C87.6717 20.1798 87.9667 20.0977 88.3438 20.0977C88.6641 20.0977 88.9211 20.1714 89.1192 20.3168C89.3151 20.4643 89.49 20.7382 89.6417 21.1427L92.4649 28.1881H91.8413L94.7235 21.1258C94.8752 20.7339 95.0543 20.4643 95.2629 20.3168C95.4757 20.1714 95.7559 20.0977 96.1056 20.0977C96.409 20.0977 96.6492 20.1798 96.8304 20.3421C97.0158 20.5001 97.1275 20.7087 97.1675 20.9657C97.2118 21.2248 97.1633 21.5051 97.0242 21.8085L91.9424 33.4132C91.7612 33.8051 91.5653 34.0706 91.3525 34.2054C91.1439 34.3445 90.8742 34.4161 90.5434 34.4161Z" fill="#0C3483"/>
<path d="M101.908 30.659C101.474 30.659 101.144 30.5368 100.914 30.2966C100.682 30.0501 100.568 29.7109 100.568 29.2769V16.9642C100.568 16.5154 100.682 16.172 100.914 15.936C101.144 15.7 101.474 15.582 101.908 15.582C102.34 15.582 102.671 15.7 102.903 15.936C103.132 16.172 103.248 16.5154 103.248 16.9642V21.8943H110.833V16.9642C110.833 16.5154 110.947 16.172 111.179 15.936C111.408 15.7 111.739 15.582 112.173 15.582C112.605 15.582 112.936 15.7 113.168 15.936C113.397 16.172 113.513 16.5154 113.513 16.9642V29.2769C113.513 29.7109 113.397 30.0501 113.168 30.2966C112.936 30.5368 112.605 30.659 112.173 30.659C111.739 30.659 111.408 30.5368 111.179 30.2966C110.947 30.0501 110.833 29.7109 110.833 29.2769V24.136H103.248V29.2769C103.248 29.7109 103.135 30.0501 102.911 30.2966C102.686 30.5368 102.351 30.659 101.908 30.659Z" fill="#16CDAC"/>
<path d="M121.514 30.7017C120.356 30.7017 119.359 30.4867 118.523 30.0527C117.69 29.6208 117.048 29.0077 116.593 28.2155C116.138 27.4191 115.91 26.4773 115.91 25.3923C115.91 24.3304 116.129 23.4034 116.568 22.6112C117.01 21.8148 117.617 21.1911 118.388 20.7403C119.163 20.2852 120.044 20.0576 121.034 20.0576C121.759 20.0576 122.41 20.1756 122.989 20.4116C123.567 20.6475 124.062 20.991 124.473 21.4397C124.881 21.8843 125.193 22.4237 125.408 23.0578C125.627 23.6941 125.737 24.4062 125.737 25.1984C125.737 25.4513 125.648 25.6451 125.475 25.7799C125.301 25.9106 125.054 25.9738 124.734 25.9738H118.025V24.4652H123.9L123.562 24.7855C123.562 24.145 123.465 23.6098 123.276 23.1758C123.09 22.7439 122.821 22.4131 122.467 22.1814C122.113 21.9517 121.67 21.8358 121.144 21.8358C120.554 21.8358 120.052 21.9749 119.644 22.2488C119.233 22.5185 118.919 22.9019 118.7 23.3949C118.485 23.8901 118.379 24.4779 118.379 25.1563V25.308C118.379 26.4499 118.645 27.3032 119.18 27.87C119.719 28.4325 120.512 28.7127 121.557 28.7127C121.921 28.7127 122.328 28.6685 122.779 28.5779C123.234 28.4894 123.664 28.3314 124.068 28.106C124.359 27.9374 124.616 27.8658 124.835 27.8868C125.058 27.91 125.239 27.9922 125.374 28.1312C125.509 28.2661 125.587 28.4346 125.61 28.6369C125.638 28.8392 125.598 29.0477 125.492 29.2605C125.391 29.4691 125.216 29.6482 124.97 29.7999C124.481 30.1096 123.918 30.3372 123.284 30.4825C122.648 30.6279 122.058 30.7017 121.514 30.7017Z" fill="#16CDAC"/>
<path d="M131.174 30.7017C130.432 30.7017 129.771 30.5584 129.193 30.2718C128.614 29.9853 128.161 29.5976 127.836 29.1088C127.51 28.62 127.348 28.0701 127.348 27.457C127.348 26.7049 127.541 26.1086 127.929 25.6704C128.321 25.2322 128.957 24.9182 129.834 24.7265C130.71 24.5306 131.886 24.4315 133.365 24.4315H134.41V25.9316H133.39C132.524 25.9316 131.833 25.9738 131.317 26.0581C130.799 26.1423 130.432 26.2856 130.213 26.4879C129.998 26.6901 129.893 26.9724 129.893 27.3306C129.893 27.792 130.053 28.1692 130.373 28.4599C130.693 28.7528 131.14 28.8982 131.713 28.8982C132.172 28.8982 132.581 28.7928 132.935 28.5779C133.293 28.3651 133.578 28.0701 133.786 27.693C133.993 27.318 134.098 26.884 134.098 26.3952V23.9849C134.098 23.2896 133.942 22.7882 133.635 22.4848C133.331 22.1772 132.817 22.0212 132.092 22.0212C131.688 22.0212 131.252 22.0718 130.786 22.1729C130.318 22.2699 129.827 22.4342 129.311 22.6702C129.046 22.7945 128.814 22.8303 128.612 22.7797C128.41 22.7249 128.252 22.6091 128.14 22.4342C128.026 22.2614 127.971 22.0697 127.971 21.8611C127.971 21.6483 128.026 21.4397 128.14 21.2375C128.252 21.0352 128.439 20.8877 128.704 20.7908C129.345 20.5275 129.96 20.3399 130.55 20.2262C131.144 20.1145 131.688 20.0576 132.177 20.0576C133.175 20.0576 133.999 20.2135 134.646 20.5211C135.297 20.8245 135.784 21.288 136.104 21.9117C136.424 22.5311 136.584 23.3275 136.584 24.3051V29.3195C136.584 29.7535 136.479 30.0843 136.272 30.314C136.064 30.5436 135.763 30.6595 135.371 30.6595C134.983 30.6595 134.68 30.5436 134.461 30.314C134.246 30.0843 134.14 29.7535 134.14 29.3195V28.3166H134.309C134.208 28.8054 134.014 29.2268 133.727 29.5808C133.445 29.9347 133.089 30.2107 132.657 30.4067C132.223 30.6026 131.73 30.7017 131.174 30.7017Z" fill="#16CDAC"/>
<path d="M142.738 30.7011C141.579 30.7011 140.707 30.3703 140.117 29.7067C139.531 29.0451 139.24 28.0717 139.24 26.7907V16.8967C139.24 16.4648 139.352 16.1383 139.577 15.9191C139.801 15.6958 140.121 15.582 140.538 15.582C140.959 15.582 141.282 15.6958 141.507 15.9191C141.737 16.1383 141.853 16.4648 141.853 16.8967V26.6643C141.853 27.3048 141.988 27.781 142.257 28.0886C142.531 28.392 142.919 28.5437 143.42 28.5437C143.532 28.5437 143.635 28.5415 143.732 28.5352C143.833 28.531 143.93 28.5184 144.027 28.5015C144.223 28.4741 144.356 28.5268 144.423 28.6616C144.495 28.7923 144.533 29.0577 144.533 29.4623C144.533 29.812 144.461 30.0838 144.322 30.2797C144.181 30.4778 143.951 30.5937 143.631 30.6337C143.49 30.6505 143.344 30.6632 143.193 30.6758C143.041 30.6927 142.889 30.7011 142.738 30.7011Z" fill="#16CDAC"/>
<path d="M150.596 30.7005C149.69 30.7005 148.936 30.5488 148.329 30.2454C147.722 29.9378 147.271 29.487 146.981 28.897C146.688 28.3029 146.542 27.5634 146.542 26.6806V22.2308H145.455C145.118 22.2308 144.859 22.1444 144.68 21.9696C144.501 21.7968 144.41 21.5545 144.41 21.2448C144.41 20.9245 144.501 20.6844 144.68 20.52C144.859 20.3515 145.118 20.2672 145.455 20.2672H146.542V18.3626C146.542 17.9306 146.656 17.6041 146.888 17.385C147.118 17.1616 147.44 17.0479 147.857 17.0479C148.272 17.0479 148.592 17.1616 148.818 17.385C149.041 17.6041 149.155 17.9306 149.155 18.3626V20.2672H151.371C151.702 20.2672 151.957 20.3515 152.138 20.52C152.324 20.6844 152.416 20.9245 152.416 21.2448C152.416 21.5545 152.324 21.7968 152.138 21.9696C151.957 22.1444 151.702 22.2308 151.371 22.2308H149.155V26.5373C149.155 27.2073 149.3 27.7087 149.593 28.0458C149.884 28.3787 150.36 28.5431 151.017 28.5431C151.253 28.5431 151.46 28.5241 151.641 28.4841C151.82 28.4398 151.98 28.4124 152.121 28.3998C152.29 28.3829 152.429 28.4377 152.543 28.5599C152.654 28.6779 152.711 28.9181 152.711 29.2763C152.711 29.5586 152.663 29.8072 152.568 30.0263C152.477 30.2412 152.315 30.3887 152.079 30.473C151.898 30.5236 151.662 30.5741 151.371 30.6247C151.078 30.6753 150.819 30.7005 150.596 30.7005Z" fill="#16CDAC"/>
<path d="M155.235 30.659C154.818 30.659 154.498 30.5431 154.275 30.3134C154.049 30.0838 153.938 29.753 153.938 29.319V16.8967C153.938 16.4648 154.049 16.1383 154.275 15.9191C154.498 15.6958 154.818 15.582 155.235 15.582C155.657 15.582 155.979 15.6958 156.205 15.9191C156.434 16.1383 156.55 16.4648 156.55 16.8967V22.3157H156.264C156.567 21.574 157.041 21.0136 157.688 20.6302C158.339 20.2488 159.074 20.0571 159.896 20.0571C160.722 20.0571 161.398 20.213 161.927 20.5206C162.454 20.824 162.85 21.2875 163.115 21.9111C163.385 22.5306 163.52 23.3143 163.52 24.2624V29.319C163.52 29.753 163.406 30.0838 163.183 30.3134C162.957 30.5431 162.637 30.659 162.222 30.659C161.8 30.659 161.474 30.5431 161.244 30.3134C161.012 30.0838 160.899 29.753 160.899 29.319V24.3889C160.899 23.5924 160.749 23.0131 160.452 22.6528C160.153 22.2883 159.689 22.105 159.061 22.105C158.297 22.105 157.688 22.3473 157.233 22.8298C156.778 23.308 156.55 23.9464 156.55 24.7428V29.319C156.55 30.2123 156.112 30.659 155.235 30.659Z" fill="#16CDAC"/>
</svg>
