<svg width="335" height="241" viewBox="0 0 335 241" fill="none" xmlns="http://www.w3.org/2000/svg">
<path d="M77.58 135.372C79.1279 136.262 79.1363 137.71 77.5967 138.601L26.1919 168.477C24.6523 169.367 22.164 169.367 20.6162 168.477L1.40905 157.358C-0.138833 156.468 -0.147152 155.02 1.39241 154.129L52.7972 124.262C54.3285 123.371 56.8334 123.371 58.3729 124.262L77.58 135.372Z" fill="#EAEEEE"/>
<path d="M73.9468 84.3781C74.055 84.3365 74.1715 84.2949 74.2797 84.2616C74.3462 84.2366 74.4211 84.22 74.4877 84.2033C74.5543 84.1867 74.6209 84.17 74.6791 84.1617C74.7623 84.1451 74.8456 84.1368 74.9288 84.1201C74.9787 84.1118 75.0203 84.1118 75.0702 84.1035C75.1701 84.0951 75.27 84.0951 75.3698 84.0951C75.3948 84.0951 75.4198 84.0951 75.4364 84.0951C75.5529 84.1035 75.6694 84.1201 75.7859 84.1367C75.8109 84.1451 75.8442 84.1534 75.8692 84.1534C75.9607 84.17 76.0439 84.195 76.1271 84.2283C76.1521 84.2366 76.1771 84.2449 76.2104 84.2533C76.3185 84.2949 76.4184 84.3448 76.5183 84.4031L57.694 73.4679C57.6856 73.4595 57.6773 73.4595 57.669 73.4512C57.5941 73.4096 57.5109 73.368 57.436 73.3347C57.4193 73.3264 57.4027 73.3264 57.3861 73.3181C57.3611 73.3097 57.3361 73.3014 57.3028 73.2931C57.2612 73.2764 57.2196 73.2598 57.178 73.2515C57.1364 73.2348 57.0865 73.2265 57.0449 73.2182C57.0199 73.2099 56.9866 73.2015 56.9616 73.2015C56.945 73.2015 56.9283 73.1932 56.92 73.1932C56.8285 73.1766 56.7286 73.1683 56.6371 73.1599C56.6288 73.1599 56.6288 73.1599 56.6204 73.1599C56.5955 73.1599 56.5705 73.1599 56.5539 73.1599C56.479 73.1599 56.4041 73.1516 56.3292 73.1599C56.3042 73.1599 56.2792 73.1683 56.2543 73.1683C56.2043 73.1683 56.1627 73.1766 56.1128 73.1849C56.0712 73.1932 56.0296 73.1932 55.9796 73.2015C55.938 73.2099 55.9047 73.2182 55.8631 73.2265C55.7966 73.2348 55.7383 73.2515 55.6717 73.2681C55.6384 73.2764 55.6052 73.2848 55.5719 73.2931C55.5386 73.3014 55.5053 73.3181 55.4637 73.3264C55.3555 73.3597 55.2473 73.4013 55.1308 73.4429C55.0892 73.4595 55.0559 73.4679 55.0143 73.4845C54.9893 73.4928 54.9727 73.5095 54.9477 73.5178C54.7563 73.601 54.5566 73.6926 54.3569 73.8091L5.68997 101.913C5.38206 102.087 5.09079 102.295 4.79952 102.529C4.70798 102.603 4.61644 102.687 4.52489 102.77C4.38342 102.895 4.24195 103.003 4.1088 103.136C4.05054 103.194 3.99229 103.261 3.93404 103.327C3.8841 103.386 3.82585 103.436 3.77592 103.494C3.71766 103.56 3.65109 103.619 3.59283 103.685C3.45968 103.835 3.33485 103.993 3.21002 104.151C3.16842 104.21 3.1268 104.259 3.08519 104.318C3.06023 104.351 3.04358 104.376 3.01862 104.409C2.97701 104.468 2.9354 104.517 2.89379 104.576C2.80225 104.709 2.7107 104.842 2.61916 104.984C2.53594 105.117 2.45273 105.25 2.37783 105.383C2.36951 105.391 2.36951 105.4 2.36118 105.416C2.35286 105.425 2.35286 105.433 2.34454 105.441C2.27796 105.549 2.21971 105.666 2.15313 105.782C2.08656 105.916 2.01166 106.049 1.95341 106.182C1.89515 106.298 1.84522 106.423 1.78697 106.54C1.78697 106.548 1.77864 106.556 1.77864 106.565C1.77864 106.573 1.77032 106.581 1.77032 106.59C1.71207 106.731 1.65381 106.873 1.59556 107.014C1.53731 107.164 1.48738 107.314 1.43744 107.455C1.41248 107.53 1.39583 107.605 1.37087 107.672C1.36254 107.705 1.35423 107.738 1.33758 107.771C1.32094 107.83 1.30429 107.88 1.28765 107.938C1.23772 108.121 1.19611 108.296 1.1545 108.479C1.12953 108.587 1.12121 108.695 1.09624 108.803C1.08792 108.862 1.0796 108.92 1.06295 108.97C1.05463 109.02 1.04631 109.078 1.03799 109.128C0.99638 109.436 0.979736 109.744 0.979736 110.052L1.0796 146.627C1.08792 148.117 1.6122 149.157 2.45272 149.648L21.277 160.583C20.4282 160.092 19.9039 159.044 19.9039 157.562L19.804 120.987C19.804 120.637 19.8373 120.271 19.8956 119.905C19.9039 119.847 19.9122 119.788 19.9289 119.739C19.9871 119.397 20.062 119.056 20.1702 118.707C20.1785 118.673 20.1868 118.64 20.2035 118.607C20.32 118.232 20.4531 117.866 20.6113 117.5C20.6113 117.492 20.6196 117.483 20.6196 117.475C20.786 117.1 20.9691 116.734 21.1772 116.376C21.1855 116.368 21.1855 116.36 21.1938 116.351C21.3935 116.002 21.6182 115.669 21.8512 115.344C21.8762 115.311 21.8928 115.286 21.9178 115.253C22.1342 114.962 22.3672 114.687 22.6085 114.429C22.6585 114.371 22.7167 114.313 22.7667 114.263C22.9581 114.063 23.1578 113.88 23.3575 113.705C23.4491 113.622 23.5406 113.539 23.6321 113.464C23.9234 113.231 24.2147 113.023 24.5226 112.848L73.1895 84.7443C73.3892 84.6278 73.5889 84.5362 73.7803 84.453C73.822 84.428 73.8802 84.4031 73.9468 84.3781Z" fill="#0F8073"/>
<path d="M73.1647 84.7443C75.7695 83.238 77.8833 84.4447 77.8916 87.4406L77.9915 124.016C77.9998 127.004 75.8943 130.657 73.2979 132.155L24.631 160.259C22.0262 161.765 19.9041 160.55 19.8958 157.562L19.7959 120.987C19.7876 117.999 21.8931 114.354 24.4978 112.848L73.1647 84.7443Z" fill="#16C0AC"/>
<path d="M45.7768 90.5441L42.6394 88.7216L42.6228 80.7324L45.7602 82.555L45.7768 90.5441Z" fill="#423E4D"/>
<path d="M26.7612 101.533L23.6239 99.7108L23.5906 87.3691L26.728 89.1917L26.7612 101.533Z" fill="#423E4D"/>
<path d="M26.7272 89.1902L23.5898 87.3677L46.4004 74.2021L49.5377 76.0247L26.7272 89.1902Z" fill="#423E4D"/>
<path d="M49.5366 76.0234L49.5699 88.3567L45.7751 90.5455L45.7584 82.5563L30.5292 91.3527L30.5542 99.3419L26.7594 101.531L26.7261 89.189L49.5366 76.0234Z" fill="#423E4D"/>
<path d="M60.0242 128.605C65.8349 118.606 65.8519 107.773 60.0621 104.408C54.2723 101.043 44.8682 106.42 39.0575 116.419C33.2467 126.417 33.2297 137.25 39.0195 140.615C44.8093 143.98 54.2134 138.603 60.0242 128.605Z" fill="#EAEEEE"/>
<path d="M54.1554 110.151L54.1721 116.668L59.8393 113.397L59.8643 122.185L54.1971 125.456L54.2137 131.963L46.5741 136.374L46.5492 129.866L40.8819 133.137L40.8569 124.349L46.5325 121.078L46.5076 114.57L54.1554 110.151Z" fill="#E34958"/>
<path d="M331.341 176.233C333.721 177.606 333.73 179.828 331.366 181.201L252.391 227.098C250.027 228.471 246.199 228.471 243.819 227.098L195.111 198.977C192.739 197.604 192.722 195.382 195.086 194.009L274.061 148.113C276.416 146.74 280.261 146.74 282.633 148.113L331.341 176.233Z" fill="#EAEEEE"/>
<path d="M293.234 149.282C297.404 151.688 297.42 155.582 293.284 157.987L154.832 238.453C150.687 240.858 143.971 240.858 139.802 238.453L54.4103 189.153C50.2493 186.748 50.216 182.854 54.3604 180.449L192.813 99.9825C196.949 97.5774 203.681 97.5774 207.842 99.9825L293.234 149.282Z" fill="#EAEEEE"/>
<path d="M296.98 124.836C301.249 127.299 301.266 131.286 297.03 133.749L155.248 216.146C151.004 218.609 144.13 218.609 139.861 216.146L52.422 165.664C48.1611 163.201 48.1278 159.214 52.372 156.751L194.153 74.3543C198.389 71.891 205.28 71.891 209.541 74.3543L296.98 124.836Z" fill="#EAEEEE"/>
<path d="M300.167 129.645C300.158 129.762 300.15 129.87 300.125 129.987C300.108 130.078 300.084 130.17 300.059 130.261C300.034 130.369 300 130.478 299.967 130.586C299.934 130.677 299.892 130.761 299.859 130.852C299.809 130.969 299.759 131.077 299.701 131.193C299.659 131.276 299.601 131.351 299.551 131.435C299.476 131.559 299.393 131.693 299.293 131.817C299.235 131.892 299.176 131.967 299.118 132.034C298.977 132.2 298.827 132.367 298.66 132.525C298.602 132.583 298.544 132.641 298.477 132.708C298.378 132.799 298.261 132.891 298.144 132.983C298.045 133.066 297.945 133.149 297.837 133.224C297.712 133.315 297.579 133.399 297.445 133.482C297.312 133.573 297.179 133.665 297.029 133.748L155.248 216.145C154.774 216.42 154.258 216.653 153.725 216.869C153.584 216.927 153.442 216.977 153.301 217.027C152.968 217.144 152.627 217.243 152.277 217.343C151.919 217.443 151.561 217.535 151.187 217.618C150.754 217.709 150.313 217.784 149.872 217.843C149.764 217.859 149.656 217.876 149.547 217.884C148.94 217.951 148.332 217.984 147.717 217.984C147.617 217.984 147.525 217.984 147.425 217.984C146.818 217.976 146.219 217.942 145.619 217.884C145.528 217.876 145.436 217.868 145.353 217.851C144.762 217.776 144.18 217.676 143.606 217.551C143.497 217.526 143.397 217.501 143.289 217.476C142.773 217.352 142.266 217.193 141.775 217.019C141.691 216.985 141.6 216.96 141.508 216.927C140.926 216.702 140.368 216.444 139.844 216.145L52.405 165.663C50.258 164.423 49.1844 162.8 49.1928 161.178L49.1595 171.863C49.1511 173.486 50.2247 175.109 52.3718 176.349L139.811 226.83C140.302 227.113 140.834 227.363 141.384 227.588C141.409 227.596 141.442 227.604 141.467 227.613C141.55 227.646 141.642 227.671 141.733 227.704C142.049 227.821 142.374 227.937 142.707 228.029C142.882 228.079 143.065 228.12 143.248 228.162C143.356 228.187 143.456 228.212 143.556 228.237C143.655 228.262 143.747 228.287 143.839 228.303C144.196 228.378 144.554 228.437 144.912 228.495C145.037 228.511 145.17 228.52 145.295 228.536C145.386 228.545 145.47 228.553 145.561 228.57C145.694 228.586 145.827 228.603 145.961 228.611C146.318 228.645 146.676 228.661 147.026 228.67C147.134 228.67 147.251 228.67 147.359 228.67C147.459 228.67 147.55 228.67 147.65 228.67C147.808 228.67 147.975 228.67 148.133 228.67C148.532 228.653 148.94 228.628 149.339 228.586C149.389 228.578 149.431 228.57 149.481 228.57C149.589 228.561 149.697 228.536 149.805 228.528C150.113 228.487 150.43 228.453 150.729 228.403C150.862 228.378 150.987 228.337 151.12 228.303C151.495 228.229 151.853 228.137 152.21 228.029C152.402 227.979 152.602 227.946 152.785 227.887C152.934 227.837 153.084 227.771 153.234 227.721C153.376 227.671 153.517 227.613 153.658 227.563C154.191 227.346 154.707 227.113 155.181 226.839L296.963 144.442C297.004 144.417 297.054 144.392 297.096 144.367C297.196 144.309 297.279 144.242 297.379 144.176C297.512 144.092 297.645 144.001 297.77 143.918C297.878 143.843 297.978 143.76 298.078 143.676C298.194 143.585 298.311 143.493 298.411 143.402C298.436 143.385 298.461 143.368 298.477 143.343C298.519 143.302 298.552 143.26 298.594 143.219C298.76 143.061 298.918 142.894 299.052 142.719C299.085 142.686 299.127 142.644 299.151 142.611C299.176 142.578 299.201 142.536 299.226 142.503C299.318 142.378 299.401 142.253 299.484 142.12C299.518 142.07 299.559 142.012 299.593 141.962C299.609 141.937 299.617 141.904 299.634 141.879C299.692 141.771 299.742 141.654 299.792 141.538C299.817 141.471 299.859 141.404 299.884 141.338C299.892 141.313 299.892 141.296 299.9 141.271C299.942 141.163 299.967 141.055 299.992 140.947C300.009 140.872 300.042 140.797 300.059 140.73C300.059 140.714 300.059 140.689 300.067 140.672C300.092 140.556 300.092 140.447 300.108 140.331C300.117 140.256 300.133 140.181 300.133 140.106C300.133 140.073 300.133 140.04 300.133 140.015L300.167 129.329C300.192 129.429 300.175 129.537 300.167 129.645Z" fill="#423E4D"/>
<path d="M284.064 126.425C285.429 127.216 285.437 128.497 284.072 129.288L165.168 198.394C163.803 199.185 161.581 199.185 160.217 198.403L81.4491 152.923C80.076 152.132 80.0677 150.842 81.4325 150.051L200.337 80.9533C201.702 80.1627 203.924 80.1627 205.297 80.9533L284.064 126.425Z" fill="#1AB8FF"/>
<path d="M117.2 183.916C118.706 184.79 118.715 186.196 117.217 187.07L115.244 188.218C113.746 189.092 111.308 189.092 109.802 188.218L97.818 181.303C96.3118 180.429 96.3034 179.022 97.8014 178.149L99.7737 177C101.272 176.126 103.71 176.126 105.216 177L117.2 183.916Z" fill="#DCDCDC"/>
<path d="M249.987 33.6074C252.059 34.8058 253.74 37.7102 253.732 40.0903L253.465 134.313C253.457 136.693 251.768 137.658 249.695 136.46L193.364 103.937C191.292 102.739 189.611 99.8344 189.619 97.4543L189.885 3.24018C189.894 0.860069 191.583 -0.105292 193.655 1.09309L249.987 33.6074Z" fill="#8AE6FF"/>
<path d="M225.42 55.5739C225.42 56.6308 225.495 58.4117 225.936 60.1094C226.019 60.7253 226.144 61.7073 226.311 62.864C224.854 63.405 223.381 63.0388 222.033 62.2565C219.836 60.9916 217.972 58.6281 217.023 57.2966C217.298 55.757 217.464 54.6502 217.473 54.5919L217.423 54.5503C217.689 53.56 217.764 52.3782 217.781 51.4961C218.297 52.2534 218.838 52.9192 219.354 53.4019C219.404 53.4518 220.352 54.4754 221.625 55.2161C222.266 55.5822 222.974 55.8652 223.656 55.8902C224.23 55.9151 224.838 55.7903 225.42 55.5739Z" fill="white"/>
<path d="M202.276 58.7959C202.11 60.0359 201.935 61.3591 201.785 62.5741C201.893 61.3591 202.051 60.0359 202.276 58.7959Z" fill="#0B6056"/>
<path d="M216.523 53.8849L217.43 54.559C217.48 54.6006 217.314 55.7657 217.031 57.297C216.956 57.7131 216.873 58.1541 216.79 58.6118C216.39 60.6091 218.637 75.2976 218.903 77.0369C218.92 77.1451 218.928 77.2033 218.928 77.2033L201.244 66.9922C201.252 66.8923 201.477 65.0032 201.785 62.5732C201.935 61.3581 202.11 60.0349 202.276 58.7949C202.592 56.4398 202.909 54.4009 203.067 54.0014C203.474 52.9778 212.612 54.8003 213.095 54.9002L216.523 53.8849Z" fill="#E8E8F0"/>
<path d="M212.895 33.9224C213.145 34.0638 213.37 34.2969 213.569 34.5798C213.669 34.9626 213.736 35.179 213.744 35.1873C213.769 35.3954 214.243 39.2651 214.452 39.9725C214.485 40.0724 214.51 40.1306 214.543 40.1473C214.66 40.2139 214.776 39.8477 214.859 39.5231C214.901 40.8297 214.859 42.103 214.302 41.8866C214.277 41.8783 214.252 41.8616 214.227 41.8533C214.144 41.8034 214.044 41.7201 213.927 41.6036C212.571 40.139 210.482 34.0722 212.171 33.7809C212.429 33.7393 212.671 33.7975 212.895 33.9224Z" fill="white"/>
<path d="M230.395 44.0314C230.62 44.1562 230.853 44.3809 231.111 44.7221C232.792 46.9607 230.67 50.5975 229.322 50.4976C229.213 50.4893 229.114 50.456 229.022 50.4061C228.931 50.3561 228.856 50.2812 228.789 50.1897C228.548 49.8651 228.44 49.3076 228.406 48.6668C228.448 48.7333 228.489 48.7833 228.531 48.8249C228.539 48.8332 228.548 48.8415 228.556 48.8415C228.839 49.008 228.856 46.8359 229.263 45.3296C229.372 45.0467 229.488 44.5557 229.613 43.9398C229.838 43.8566 230.104 43.8566 230.395 44.0314Z" fill="white"/>
<path d="M225.571 34.1352C225.745 34.2351 225.887 34.3433 226.003 34.4598C226.927 35.4585 227.743 37.2394 228.042 39.1867C228.35 41.1424 228.017 46.635 228.017 47.1093C228.017 47.5171 228.167 48.2744 228.408 48.6739C228.442 49.3147 228.55 49.8639 228.791 50.1968C228.525 51.7364 228.242 52.8432 228.084 53.3093C227.801 54.1997 226.669 55.1152 225.413 55.5812C224.83 55.7976 224.223 55.9224 223.665 55.8974C222.974 55.8725 222.267 55.5895 221.634 55.2234C220.361 54.4827 219.412 53.4674 219.363 53.4091C218.847 52.9265 218.306 52.2607 217.79 51.5034C216.45 49.5477 215.268 47.0095 214.969 45.7279C214.827 45.1037 214.552 43.6973 214.303 41.8914C214.86 42.1078 214.902 40.8345 214.86 39.5279C214.919 39.2949 214.96 39.0952 214.96 39.0869C214.96 39.012 214.969 37.5556 214.969 36.7317C214.969 35.8995 214.161 31.8883 214.894 30.0574C215.36 28.884 216.075 28.7259 217.182 29.3667C217.798 29.7245 218.539 30.3237 219.421 31.131C219.903 31.572 220.411 31.9299 220.919 32.2295C221.817 32.7455 222.733 33.0783 223.548 33.3613C224.364 33.6276 225.08 33.8523 225.571 34.1352Z" fill="white"/>
<path d="M221.158 24.4828C223.705 25.9558 226.501 28.1278 228.482 30.691C229.505 32.5801 229.397 34.7605 230.005 36.1836C230.496 37.3154 230.063 41.568 229.605 43.9481C229.489 44.5639 229.364 45.0633 229.256 45.3379C228.848 46.8359 228.831 49.0079 228.548 48.8498C228.482 48.7915 228.44 48.7333 228.407 48.675C228.165 48.2839 228.016 47.5266 228.016 47.1105C228.016 46.6361 228.34 41.1436 228.041 39.1879C227.741 37.2405 226.925 35.4679 226.002 34.4609C225.893 34.3444 225.744 34.2363 225.569 34.1364C225.078 33.8534 224.362 33.6287 223.547 33.3541C222.731 33.0795 221.816 32.7466 220.917 32.2223C220.401 31.9227 219.893 31.5649 219.419 31.1238C218.537 30.3166 217.796 29.7174 217.18 29.3595C216.074 28.7187 215.35 28.8685 214.892 30.0503C214.16 31.8811 214.975 35.8923 214.967 36.7245C214.967 37.5484 214.958 39.0048 214.958 39.0797C214.958 39.088 214.917 39.2877 214.859 39.5208C214.775 39.8453 214.65 40.2115 214.542 40.1449C214.509 40.1283 214.476 40.07 214.451 39.9702C214.243 39.2628 213.768 35.3847 213.743 35.185C213.743 35.1766 213.668 34.9603 213.569 34.5775C213.219 33.221 212.495 29.8505 213.144 26.9128C213.56 26.0889 213.777 24.0833 214.917 22.7268C215.516 22.0028 218.171 22.7518 221.158 24.4828Z" fill="#1A84B4"/>
<path d="M226.518 64.2321C226.901 66.6788 224.579 78.7374 224.304 80.1605L222.216 78.9538L220.842 78.1632L218.895 77.0397C218.629 75.3004 216.382 60.612 216.781 58.6147C216.873 58.157 216.948 57.7159 217.023 57.2998C217.963 58.6313 219.835 60.9865 222.032 62.2598C223.381 63.042 224.854 63.3999 226.31 62.8673C226.377 63.3 226.443 63.7577 226.518 64.2321Z" fill="#1A84B4"/>
<path d="M226.803 59.8179L230.223 64.7945C230.706 65.2522 239.818 73.9654 240.218 75.4551C240.625 76.953 241.899 89.8273 241.965 90.5097L224.281 80.2985C224.281 80.2985 224.289 80.2486 224.306 80.157C224.581 78.7339 226.902 66.6836 226.52 64.2286C226.445 63.7542 226.378 63.2965 226.312 62.8638C226.145 61.707 226.012 60.725 225.937 60.1092C225.879 59.6764 225.854 59.4434 225.854 59.4268L226.803 59.8179Z" fill="#E8E8F0"/>
<path d="M210.885 101.023L210.877 103.437L201.947 98.2855L201.956 95.8721L210.885 101.023Z" fill="#1AB8FF"/>
<path d="M220.896 96.5631L220.888 98.9765L201.972 88.0579L201.98 85.6445L220.896 96.5631Z" fill="#1AB8FF"/>
<path d="M233.862 94.2834L233.853 96.6968L202.005 78.305L202.013 75.8916L233.862 94.2834Z" fill="#1AB8FF"/>
<path d="M215.628 97.8005V100.222L201.963 92.3329L201.972 89.9111L215.628 97.8005Z" fill="#1AB8FF"/>
<path d="M233.845 99.1066L233.836 101.52L201.988 83.1283L201.997 80.7148L233.845 99.1066Z" fill="#1AB8FF"/>
<path d="M222.227 107.571L222.219 109.984L213.29 104.825L213.298 102.411L222.227 107.571Z" fill="#1AB8FF"/>
<path d="M233.568 114.121L233.56 116.534L224.63 111.374V108.961L233.568 114.121Z" fill="#1AB8FF"/>
<path d="M155.924 152.477C163.563 156.888 163.597 164.029 156.015 168.439C148.426 172.85 136.092 172.85 128.453 168.439C120.813 164.029 120.772 156.888 128.361 152.477C135.951 148.067 148.284 148.067 155.924 152.477Z" fill="white"/>
<path d="M153.701 158.811L153.726 162.564H133.487L133.446 155.948H139.92L139.937 158.811H153.701Z" fill="#64D5C8"/>
<path d="M210.816 137.532C211.856 138.131 211.856 139.105 210.824 139.704L183.046 155.849C182.014 156.448 180.341 156.448 179.301 155.849L151.347 139.704C150.307 139.105 150.307 138.139 151.339 137.54L179.118 121.395C180.149 120.796 181.822 120.796 182.862 121.395L210.816 137.532Z" fill="#169FDC"/>
<path d="M218.736 143.449C217.696 142.85 216.023 142.85 214.991 143.449L187.213 159.594C186.181 160.193 186.189 161.159 187.221 161.758L207.768 173.625L239.275 155.317L218.736 143.449Z" fill="#169FDC"/>
<path d="M173.466 115.179L157.396 105.9L125.889 124.209L141.959 133.488C142.999 134.087 144.672 134.087 145.704 133.488L173.483 117.343C174.506 116.752 174.506 115.779 173.466 115.179Z" fill="#169FDC"/>
<path d="M212.038 132.202C213.12 132.827 213.12 133.842 212.055 134.466L183.144 151.268C182.071 151.892 180.323 151.884 179.25 151.268L150.148 134.466C149.066 133.842 149.066 132.835 150.131 132.211L179.042 115.409C180.115 114.784 181.863 114.784 182.936 115.409L212.038 132.202Z" fill="#8AE6FF"/>
<path d="M196.676 98.9229C196.651 98.9562 196.626 98.9895 196.602 99.0228C196.468 99.1976 196.319 99.364 196.16 99.5388C196.119 99.5804 196.077 99.622 196.036 99.6719C195.911 99.7968 195.786 99.9299 195.653 100.055C195.595 100.113 195.528 100.171 195.47 100.23C195.386 100.304 195.312 100.371 195.228 100.446C195.153 100.512 195.07 100.579 194.995 100.637C194.912 100.704 194.821 100.779 194.729 100.845C194.646 100.912 194.563 100.97 194.479 101.037C194.388 101.103 194.288 101.17 194.196 101.236C194.105 101.295 194.022 101.361 193.922 101.42C193.822 101.486 193.722 101.553 193.614 101.611C193.481 101.694 193.356 101.769 193.223 101.852C192.973 102.002 192.707 102.135 192.441 102.277C192.366 102.318 192.291 102.352 192.208 102.393C191.999 102.493 191.791 102.593 191.575 102.693C191.5 102.726 191.434 102.759 191.359 102.793C191.084 102.909 190.801 103.026 190.51 103.134C190.46 103.151 190.41 103.167 190.36 103.192C190.119 103.284 189.869 103.367 189.628 103.45C189.528 103.483 189.42 103.517 189.32 103.55C189.187 103.592 189.045 103.633 188.904 103.675C188.787 103.708 188.671 103.741 188.554 103.775C188.413 103.816 188.271 103.85 188.13 103.891C188.013 103.925 187.888 103.949 187.772 103.983C187.63 104.016 187.481 104.049 187.339 104.083C187.223 104.108 187.098 104.133 186.981 104.158C186.832 104.191 186.69 104.216 186.54 104.241C186.424 104.266 186.316 104.282 186.199 104.307C185.883 104.366 185.558 104.416 185.242 104.457C185.192 104.465 185.15 104.465 185.101 104.474C184.818 104.515 184.543 104.549 184.26 104.574C184.152 104.582 184.044 104.599 183.935 104.607C183.752 104.624 183.569 104.64 183.395 104.649C183.278 104.657 183.162 104.665 183.053 104.673C182.862 104.682 182.671 104.69 182.479 104.698C182.371 104.707 182.263 104.707 182.155 104.715C181.988 104.723 181.822 104.723 181.664 104.723C181.547 104.723 181.431 104.732 181.314 104.732C181.139 104.732 180.965 104.732 180.79 104.723C180.682 104.723 180.582 104.723 180.474 104.715C180.315 104.707 180.149 104.707 179.991 104.698C179.874 104.69 179.766 104.69 179.65 104.682C179.475 104.673 179.3 104.657 179.125 104.649C179.026 104.64 178.926 104.64 178.826 104.632C178.618 104.615 178.41 104.59 178.202 104.574C178.135 104.565 178.077 104.565 178.01 104.557C177.736 104.524 177.469 104.49 177.203 104.457C177.161 104.449 177.128 104.449 177.086 104.44C176.853 104.407 176.612 104.366 176.379 104.332C176.279 104.316 176.188 104.299 176.096 104.282C175.921 104.249 175.747 104.216 175.572 104.182C175.48 104.166 175.389 104.141 175.297 104.124C175.106 104.083 174.914 104.041 174.723 103.991C174.615 103.966 174.515 103.941 174.407 103.916C174.232 103.875 174.066 103.825 173.891 103.783C173.791 103.758 173.699 103.725 173.6 103.7C173.333 103.625 173.059 103.542 172.801 103.45C172.751 103.433 172.709 103.417 172.659 103.4C172.36 103.3 172.06 103.184 171.76 103.076C171.644 103.026 171.519 102.984 171.403 102.934C171.311 102.893 171.211 102.859 171.12 102.818C170.986 102.759 170.853 102.701 170.729 102.643C170.645 102.601 170.554 102.568 170.471 102.526C170.329 102.46 170.188 102.385 170.046 102.318C169.98 102.285 169.905 102.252 169.838 102.21C169.63 102.102 169.43 101.994 169.231 101.877C167.724 101.012 166.576 100.013 165.752 98.9562H164.212L164.129 128.167C164.121 130.697 165.794 133.235 169.139 135.166C169.339 135.282 169.547 135.39 169.747 135.498C169.813 135.532 169.888 135.565 169.955 135.607C170.096 135.681 170.238 135.748 170.379 135.815C170.462 135.856 170.554 135.89 170.637 135.931C170.77 135.989 170.895 136.048 171.036 136.106C171.128 136.148 171.22 136.181 171.319 136.222C171.411 136.256 171.502 136.297 171.594 136.339C171.619 136.347 171.652 136.356 171.677 136.372C171.968 136.489 172.268 136.597 172.576 136.697C172.626 136.713 172.668 136.73 172.717 136.738C172.984 136.83 173.25 136.905 173.516 136.988C173.558 137.005 173.608 137.013 173.65 137.03C173.699 137.046 173.758 137.055 173.808 137.071C173.974 137.121 174.149 137.163 174.324 137.204C174.432 137.229 174.532 137.254 174.64 137.279C174.831 137.321 175.023 137.371 175.214 137.412C175.289 137.429 175.356 137.446 175.43 137.462C175.447 137.462 175.472 137.471 175.489 137.471C175.663 137.504 175.838 137.537 176.013 137.571C176.105 137.587 176.204 137.604 176.296 137.621C176.529 137.662 176.762 137.695 176.995 137.729C177.037 137.737 177.07 137.745 177.111 137.745C177.111 137.745 177.111 137.745 177.12 137.745C177.386 137.787 177.661 137.82 177.927 137.845C177.994 137.854 178.06 137.854 178.127 137.862C178.335 137.887 178.543 137.903 178.751 137.92C178.759 137.92 178.759 137.92 178.768 137.92C178.867 137.928 178.959 137.937 179.059 137.937C179.234 137.953 179.4 137.962 179.575 137.97C179.691 137.978 179.799 137.978 179.916 137.987C180.074 137.995 180.241 138.003 180.399 138.003C180.415 138.003 180.424 138.003 180.44 138.003C180.532 138.003 180.623 138.003 180.715 138.003C180.89 138.003 181.064 138.012 181.239 138.012C181.356 138.012 181.472 138.012 181.589 138.003C181.755 138.003 181.922 137.995 182.088 137.995C182.121 137.995 182.146 137.995 182.18 137.995C182.254 137.995 182.329 137.987 182.404 137.987C182.596 137.978 182.787 137.97 182.978 137.962C183.095 137.953 183.203 137.945 183.32 137.937C183.503 137.92 183.686 137.912 183.869 137.895C183.935 137.887 183.994 137.887 184.06 137.879C184.102 137.87 184.152 137.87 184.193 137.862C184.476 137.829 184.759 137.795 185.042 137.762C185.084 137.754 185.134 137.754 185.175 137.745C185.5 137.704 185.816 137.646 186.132 137.596C186.166 137.587 186.191 137.587 186.224 137.579C186.307 137.562 186.39 137.546 186.474 137.529C186.623 137.504 186.773 137.471 186.923 137.437C187.04 137.412 187.164 137.388 187.281 137.363C187.422 137.329 187.572 137.296 187.714 137.263C187.83 137.238 187.955 137.204 188.071 137.171C188.213 137.138 188.354 137.096 188.496 137.055C188.612 137.021 188.729 136.988 188.845 136.955C188.987 136.913 189.12 136.872 189.262 136.83C189.32 136.813 189.386 136.797 189.445 136.772C189.486 136.755 189.528 136.738 189.569 136.73C189.819 136.647 190.06 136.564 190.31 136.472C190.36 136.455 190.41 136.439 190.46 136.414C190.743 136.306 191.026 136.189 191.309 136.073C191.384 136.039 191.45 136.006 191.525 135.973C191.741 135.881 191.95 135.781 192.158 135.673C192.232 135.632 192.316 135.598 192.391 135.557C192.657 135.424 192.915 135.282 193.173 135.132C193.239 135.091 193.314 135.049 193.381 135.007C193.447 134.966 193.506 134.933 193.564 134.891C193.672 134.824 193.772 134.758 193.872 134.699C193.963 134.641 194.055 134.575 194.138 134.516C194.238 134.45 194.33 134.383 194.421 134.317C194.504 134.25 194.588 134.192 194.671 134.125C194.762 134.059 194.854 133.984 194.937 133.917C195.02 133.851 195.095 133.784 195.17 133.726C195.253 133.659 195.337 133.584 195.411 133.509C195.445 133.476 195.478 133.451 195.511 133.418C195.545 133.393 195.57 133.36 195.595 133.335C195.728 133.21 195.853 133.085 195.977 132.952C196.019 132.91 196.061 132.869 196.102 132.819C196.26 132.652 196.402 132.477 196.543 132.303C196.552 132.294 196.56 132.286 196.56 132.278C196.593 132.236 196.618 132.195 196.651 132.153C196.735 132.045 196.818 131.937 196.893 131.828C196.934 131.77 196.976 131.704 197.009 131.645C197.076 131.545 197.134 131.446 197.192 131.346C197.209 131.321 197.226 131.287 197.242 131.262C197.267 131.221 197.284 131.179 197.309 131.138C197.35 131.054 197.4 130.971 197.442 130.88C197.475 130.805 197.509 130.738 197.542 130.663C197.584 130.58 197.617 130.489 197.65 130.405C197.667 130.364 197.683 130.33 197.7 130.289C197.717 130.255 197.725 130.222 197.733 130.189C197.767 130.106 197.792 130.022 197.817 129.939C197.841 129.864 197.858 129.789 197.883 129.715C197.908 129.631 197.925 129.548 197.941 129.465C197.95 129.423 197.966 129.373 197.975 129.332C197.983 129.298 197.983 129.274 197.991 129.24C198.008 129.157 198.016 129.074 198.033 128.982C198.041 128.907 198.05 128.832 198.058 128.758C198.066 128.674 198.074 128.583 198.074 128.5C198.074 128.45 198.083 128.4 198.083 128.35C198.083 128.3 198.083 128.25 198.083 128.2L198.166 98.8896H196.676V98.9229Z" fill="#E34958"/>
<path d="M164.196 104.007C164.188 106.537 165.86 109.075 169.206 111.006C173.883 113.702 180.574 114.501 186.432 113.411L186.391 128.39C180.532 129.489 173.833 128.682 169.164 125.985C165.819 124.055 164.154 121.525 164.154 118.987L164.196 104.007Z" fill="#EAEEEE"/>
<path d="M193.131 87.9544C199.78 91.7909 199.814 98.0158 193.214 101.852C186.615 105.689 175.871 105.689 169.23 101.852C162.589 98.0158 162.548 91.7909 169.155 87.9628C175.755 84.118 186.49 84.118 193.131 87.9544Z" fill="#16C0AC"/>
<path d="M198.133 91.5346C198.124 91.6178 198.124 91.701 198.116 91.7926C198.108 91.8675 198.099 91.9424 198.091 92.0173C198.083 92.1005 198.066 92.1837 198.05 92.2752C198.033 92.3501 198.016 92.425 198 92.4999C197.983 92.5832 197.958 92.6664 197.941 92.7496C197.925 92.8245 197.9 92.8994 197.875 92.9743C197.85 93.0575 197.825 93.1408 197.792 93.224C197.767 93.2989 197.742 93.3738 197.708 93.4403C197.675 93.5236 197.642 93.6151 197.6 93.6983C197.567 93.7732 197.534 93.8398 197.5 93.9147C197.459 93.9979 197.417 94.0811 197.367 94.1727C197.334 94.2393 197.292 94.3058 197.251 94.3807C197.192 94.4806 197.126 94.5805 197.068 94.6803C197.026 94.7386 196.993 94.8052 196.951 94.8634C196.876 94.9716 196.793 95.0798 196.71 95.188C196.676 95.2379 196.643 95.2795 196.602 95.3295C196.468 95.5042 196.319 95.6707 196.16 95.8454C196.119 95.887 196.077 95.9286 196.036 95.9786C195.911 96.1034 195.786 96.2366 195.653 96.3614C195.595 96.4196 195.528 96.4779 195.47 96.5362C195.386 96.6111 195.312 96.6776 195.228 96.7525C195.153 96.8191 195.07 96.8857 194.995 96.9439C194.912 97.0105 194.821 97.0854 194.729 97.152C194.646 97.2186 194.563 97.2768 194.479 97.3434C194.388 97.41 194.288 97.4765 194.196 97.5431C194.105 97.6014 194.022 97.6679 193.922 97.7262C193.822 97.7928 193.722 97.8594 193.614 97.9176C193.481 98.0008 193.356 98.0757 193.223 98.159C192.973 98.3088 192.707 98.4419 192.441 98.5834C192.366 98.625 192.291 98.6583 192.208 98.6999C191.999 98.7997 191.791 98.8996 191.575 98.9995C191.5 99.0328 191.434 99.0661 191.359 99.0994C191.084 99.2159 190.801 99.3324 190.51 99.4405C190.46 99.4572 190.41 99.4738 190.36 99.4988C190.119 99.5903 189.869 99.6736 189.628 99.7568C189.528 99.7901 189.42 99.8234 189.32 99.8566C189.187 99.8983 189.045 99.9399 188.904 99.9815C188.787 100.015 188.671 100.048 188.554 100.081C188.413 100.123 188.271 100.156 188.13 100.198C188.013 100.231 187.888 100.256 187.772 100.289C187.63 100.323 187.481 100.356 187.339 100.389C187.223 100.414 187.098 100.439 186.981 100.464C186.832 100.497 186.69 100.522 186.54 100.547C186.424 100.572 186.316 100.589 186.199 100.614C185.883 100.672 185.558 100.722 185.242 100.764C185.192 100.772 185.15 100.772 185.101 100.78C184.818 100.822 184.543 100.855 184.26 100.88C184.152 100.889 184.044 100.905 183.935 100.914C183.752 100.93 183.569 100.947 183.395 100.955C183.278 100.963 183.162 100.972 183.053 100.98C182.862 100.988 182.671 100.997 182.479 101.005C182.371 101.013 182.263 101.013 182.155 101.022C181.988 101.03 181.822 101.03 181.664 101.03C181.547 101.03 181.431 101.038 181.314 101.038C181.139 101.038 180.965 101.038 180.79 101.03C180.682 101.03 180.582 101.03 180.474 101.022C180.315 101.013 180.149 101.013 179.991 101.005C179.874 100.997 179.766 100.997 179.65 100.988C179.475 100.98 179.3 100.963 179.125 100.955C179.026 100.947 178.926 100.947 178.826 100.939C178.618 100.922 178.41 100.897 178.202 100.88C178.135 100.872 178.077 100.872 178.01 100.864C177.736 100.83 177.469 100.797 177.203 100.764C177.161 100.755 177.128 100.755 177.086 100.747C176.853 100.714 176.612 100.672 176.379 100.639C176.279 100.622 176.188 100.606 176.096 100.589C175.921 100.556 175.747 100.522 175.572 100.489C175.48 100.472 175.389 100.448 175.297 100.431C175.106 100.389 174.914 100.348 174.723 100.298C174.615 100.273 174.515 100.248 174.407 100.223C174.232 100.181 174.066 100.131 173.891 100.09C173.791 100.065 173.699 100.031 173.6 100.006C173.333 99.9316 173.059 99.8483 172.801 99.7568C172.751 99.7401 172.709 99.7235 172.659 99.7069C172.36 99.607 172.06 99.4905 171.76 99.3823C171.644 99.3324 171.519 99.2908 171.403 99.2408C171.311 99.1992 171.211 99.1659 171.12 99.1243C170.986 99.0661 170.853 99.0078 170.729 98.9495C170.645 98.9079 170.554 98.8746 170.471 98.833C170.329 98.7665 170.188 98.6916 170.046 98.625C169.98 98.5917 169.905 98.5584 169.838 98.5168C169.63 98.4086 169.43 98.3004 169.231 98.1839C165.885 96.2532 164.221 93.7233 164.221 91.1851L164.129 99.3074C164.121 101.837 165.794 104.376 169.139 106.306C169.339 106.423 169.547 106.531 169.747 106.639C169.813 106.672 169.888 106.706 169.955 106.747C170.096 106.822 170.238 106.889 170.379 106.955C170.462 106.997 170.554 107.03 170.637 107.072C170.77 107.13 170.895 107.188 171.036 107.247C171.128 107.288 171.22 107.322 171.319 107.363C171.411 107.396 171.502 107.438 171.594 107.48C171.619 107.488 171.652 107.496 171.677 107.513C171.968 107.629 172.268 107.738 172.576 107.838C172.626 107.854 172.668 107.871 172.717 107.879C172.984 107.971 173.25 108.046 173.516 108.129C173.558 108.145 173.608 108.154 173.65 108.17C173.699 108.187 173.758 108.195 173.808 108.212C173.974 108.262 174.149 108.304 174.324 108.345C174.432 108.37 174.532 108.395 174.64 108.428C174.831 108.47 175.023 108.52 175.214 108.553C175.289 108.57 175.356 108.586 175.43 108.603C175.447 108.603 175.472 108.611 175.489 108.611C175.663 108.645 175.838 108.678 176.013 108.711C176.105 108.728 176.204 108.745 176.296 108.761C176.529 108.803 176.762 108.836 176.995 108.869C177.037 108.878 177.07 108.886 177.111 108.886H177.12C177.386 108.928 177.661 108.961 177.927 108.986C177.994 108.994 178.06 108.994 178.127 109.003C178.335 109.028 178.543 109.044 178.751 109.061C178.759 109.061 178.759 109.061 178.768 109.061C178.867 109.069 178.959 109.077 179.059 109.077C179.234 109.094 179.4 109.102 179.575 109.111C179.691 109.119 179.799 109.119 179.916 109.127C180.074 109.136 180.241 109.144 180.399 109.144C180.415 109.144 180.424 109.144 180.44 109.144C180.532 109.144 180.623 109.144 180.715 109.144C180.89 109.144 181.064 109.152 181.239 109.152C181.356 109.152 181.472 109.152 181.589 109.144C181.755 109.144 181.922 109.136 182.088 109.136C182.121 109.136 182.146 109.136 182.18 109.136C182.254 109.136 182.329 109.127 182.404 109.127C182.596 109.119 182.787 109.111 182.978 109.102C183.095 109.094 183.203 109.086 183.32 109.077C183.503 109.061 183.686 109.053 183.869 109.036C183.935 109.028 183.994 109.028 184.06 109.019C184.102 109.011 184.152 109.011 184.193 109.003C184.476 108.969 184.759 108.936 185.042 108.903C185.084 108.894 185.134 108.894 185.175 108.886C185.5 108.844 185.816 108.786 186.132 108.736C186.166 108.728 186.191 108.728 186.224 108.72C186.307 108.703 186.39 108.686 186.474 108.67C186.623 108.645 186.773 108.611 186.923 108.578C187.04 108.553 187.164 108.528 187.281 108.503C187.422 108.47 187.572 108.437 187.714 108.403C187.83 108.378 187.955 108.345 188.071 108.312C188.213 108.279 188.354 108.237 188.496 108.195C188.612 108.162 188.729 108.129 188.845 108.096C188.987 108.054 189.12 108.012 189.262 107.971C189.32 107.954 189.386 107.937 189.445 107.912C189.486 107.896 189.528 107.879 189.569 107.871C189.819 107.788 190.06 107.704 190.31 107.613C190.36 107.596 190.41 107.58 190.46 107.555C190.743 107.446 191.026 107.33 191.309 107.213C191.384 107.18 191.45 107.147 191.525 107.114C191.741 107.022 191.95 106.922 192.158 106.814C192.232 106.772 192.316 106.739 192.391 106.697C192.657 106.564 192.915 106.423 193.173 106.273C193.239 106.231 193.314 106.19 193.381 106.148C193.447 106.107 193.506 106.073 193.564 106.032C193.672 105.965 193.772 105.898 193.872 105.84C193.963 105.782 194.055 105.715 194.138 105.657C194.238 105.591 194.33 105.524 194.421 105.457C194.504 105.391 194.588 105.333 194.671 105.266C194.762 105.199 194.854 105.125 194.937 105.058C195.02 104.991 195.095 104.925 195.17 104.867C195.253 104.8 195.337 104.725 195.411 104.65C195.445 104.617 195.478 104.592 195.511 104.559C195.545 104.534 195.57 104.5 195.595 104.475C195.728 104.351 195.853 104.226 195.977 104.093C196.019 104.051 196.061 104.009 196.102 103.959C196.26 103.793 196.402 103.618 196.543 103.443C196.552 103.435 196.56 103.427 196.56 103.419C196.593 103.377 196.618 103.335 196.651 103.294C196.735 103.185 196.818 103.077 196.893 102.969C196.934 102.911 196.976 102.844 197.009 102.786C197.076 102.686 197.134 102.586 197.192 102.486C197.209 102.461 197.226 102.428 197.242 102.403C197.267 102.362 197.284 102.32 197.309 102.278C197.35 102.195 197.4 102.112 197.442 102.02C197.475 101.945 197.509 101.879 197.542 101.804C197.584 101.721 197.617 101.629 197.65 101.546C197.667 101.504 197.683 101.471 197.7 101.43C197.717 101.396 197.725 101.363 197.733 101.33C197.767 101.246 197.792 101.163 197.817 101.08C197.841 101.005 197.858 100.93 197.883 100.855C197.908 100.772 197.925 100.689 197.941 100.606C197.95 100.564 197.966 100.514 197.975 100.472C197.983 100.439 197.983 100.414 197.991 100.381C198.008 100.298 198.016 100.215 198.033 100.123C198.041 100.048 198.05 99.9732 198.058 99.8983C198.066 99.815 198.074 99.7235 198.074 99.6403C198.074 99.5903 198.083 99.5404 198.083 99.4905C198.083 99.4406 198.083 99.3906 198.083 99.3407L198.174 91.2184C198.141 91.3349 198.133 91.4347 198.133 91.5346Z" fill="#ACC0B8"/>
<path d="M193.131 84.2357C199.78 88.0722 199.813 94.2971 193.214 98.1335C186.614 101.97 175.871 101.97 169.23 98.1335C162.589 94.2971 162.547 88.0722 169.155 84.244C175.754 80.3992 186.49 80.3992 193.131 84.2357Z" fill="#D0DEFA"/>
<path d="M332.966 168.885L289.109 143.561L200.605 193.859L245.444 219.749C247.824 221.122 251.652 221.122 254.015 219.749L332.991 173.853C335.354 172.471 335.346 170.258 332.966 168.885Z" fill="#1AB8FF"/>
<path d="M296.815 164.078C302.473 167.348 302.507 172.65 296.881 175.92C291.255 179.191 282.11 179.191 276.442 175.92C270.783 172.65 270.75 167.348 276.376 164.086C282.001 160.807 291.147 160.807 296.815 164.078Z" fill="#169FDC"/>
<path d="M290.414 147.402L283.29 147.353L283.382 159.32L290.33 159.37C293.634 159.395 296.331 156.732 296.356 153.428C296.38 150.124 293.717 147.427 290.414 147.402Z" fill="#EAEEEE"/>
<path d="M270.582 153.254C270.557 156.557 273.22 159.254 276.524 159.279L283.381 159.329C284.513 157.656 285.178 155.65 285.195 153.478C285.212 151.198 284.496 149.093 283.289 147.362L276.607 147.312C273.303 147.287 270.598 149.95 270.582 153.254Z" fill="#16C0AC"/>
<path d="M268.577 179.968C274.236 183.239 274.269 188.54 268.644 191.811C263.018 195.081 253.872 195.081 248.205 191.811C242.546 188.54 242.513 183.239 248.138 179.977C253.764 176.698 262.918 176.698 268.577 179.968Z" fill="#169FDC"/>
<path d="M262.186 163.292L255.062 163.242L255.154 175.209L262.102 175.259C265.406 175.284 268.103 172.621 268.128 169.317C268.152 166.013 265.489 163.309 262.186 163.292Z" fill="#EAEEEE"/>
<path d="M242.347 169.134C242.322 172.437 244.985 175.134 248.289 175.159L255.146 175.209C256.278 173.536 256.944 171.53 256.96 169.358C256.977 167.078 256.261 164.973 255.054 163.242L248.372 163.192C245.068 163.167 242.372 165.83 242.347 169.134Z" fill="#E34958"/>
<path d="M239.42 201.763L236.49 203.46L220.005 193.948L222.934 192.242L239.42 201.763Z" fill="#8AE6FF"/>
<path d="M253.883 204.676L250.962 206.382L224.698 191.219L227.627 189.521L253.883 204.676Z" fill="#8AE6FF"/>
<path d="M304.02 66.3609L303.937 96.9778C303.937 98.1845 302.622 98.9335 301.582 98.326L282.683 87.3492C281.984 86.9414 281.085 87.1328 280.619 87.7985L280.194 88.3977C279.47 89.413 277.906 89.2216 277.457 88.0565L276.841 86.4587L275.809 83.779C275.676 83.4461 275.434 83.1632 275.126 82.9801L259.173 73.8341C258.682 73.5512 258.383 73.0352 258.383 72.4693L258.466 41.8524C258.466 40.6457 259.772 39.8967 260.821 40.4959L303.246 64.9878C303.721 65.2874 304.02 65.8033 304.02 66.3609Z" fill="#FB923C"/>
<path d="M291.811 79.8247C290.347 78.9758 289.157 76.9203 289.165 75.2309C289.173 73.5415 290.372 72.8675 291.836 73.708C293.309 74.5568 294.499 76.6124 294.491 78.3018C294.483 79.9995 293.284 80.6736 291.811 79.8247Z" fill="white"/>
<path d="M279.612 72.7864C278.139 71.9375 276.957 69.882 276.966 68.1926C276.974 66.5032 278.164 65.8208 279.637 66.6696C281.11 67.5185 282.292 69.5741 282.283 71.2634C282.275 72.9528 281.085 73.6352 279.612 72.7864Z" fill="white"/>
<path d="M267.404 65.7356C265.931 64.8867 264.749 62.8312 264.757 61.1418C264.766 59.4524 265.956 58.77 267.429 59.6189C268.902 60.4677 270.083 62.5233 270.075 64.2127C270.067 65.902 268.877 66.5844 267.404 65.7356Z" fill="white"/>
<path d="M84.6707 82.8169L84.7622 113.667C84.7622 114.89 86.0937 115.656 87.1589 115.048L131.124 89.666C131.623 89.383 131.923 88.8504 131.923 88.2762L131.831 57.4263C131.831 56.2029 130.5 55.4373 129.435 56.0448L85.4696 81.4271C84.9786 81.7101 84.6707 82.2427 84.6707 82.8169Z" fill="#8AE6FF"/>
<path d="M91.2866 85.9019L91.3782 116.752C91.3782 117.975 92.7097 118.741 93.7749 118.133L137.74 92.7509C138.239 92.468 138.539 91.9354 138.539 91.3611L138.456 60.5112C138.456 59.2879 137.124 58.5223 136.059 59.1298L92.0939 84.5121C91.5945 84.795 91.2866 85.3276 91.2866 85.9019Z" fill="#1AB8FF"/>
<path d="M138.496 77.338L133.295 80.3423C133.17 80.4172 133.062 80.4005 132.996 80.3173L129.825 75.5654C129.434 74.9745 128.693 74.8996 127.886 75.3657C127.803 75.4156 127.72 75.4655 127.636 75.5238C126.738 76.1479 126.005 77.2964 125.756 78.4282L123.118 90.5285C123.059 90.8031 122.901 90.9362 122.776 91.0028C122.651 91.0694 122.502 91.0944 122.452 90.8697L122.019 88.5894C121.811 87.5159 120.962 87.183 119.914 87.7406C118.807 88.3814 117.958 89.6214 117.7 90.9113C117.642 91.1776 117.5 91.3191 117.384 91.3856C117.251 91.4605 117.109 91.4938 117.042 91.3191L114.887 85.5186C114.571 84.6697 113.747 84.47 112.807 85.0109C111.816 85.5852 111.026 86.717 110.709 87.907L108.03 98.0516C107.963 98.3096 107.813 98.4344 107.697 98.501C107.58 98.5593 107.431 98.5925 107.381 98.3928L106.673 95.7797C106.424 94.831 105.591 94.548 104.609 95.0723C103.602 95.6549 102.754 96.8116 102.437 98.0433L101.955 99.949C101.888 100.199 101.738 100.324 101.655 100.382C101.539 100.448 101.405 100.498 101.331 100.373L100.881 99.6827C100.49 99.0752 99.7411 99.0003 98.9255 99.4747L91.3525 103.852L91.3609 106.008L98.9339 101.63C99.0587 101.555 99.1752 101.572 99.2334 101.663L99.6828 102.354C100.082 102.962 100.823 103.037 101.647 102.562C101.705 102.529 101.763 102.496 101.822 102.454C102.712 101.855 103.444 100.773 103.736 99.6328L104.218 97.7271C104.285 97.4774 104.426 97.3442 104.535 97.2777C104.668 97.2111 104.817 97.1695 104.867 97.3775L105.566 99.9907C105.824 100.948 106.632 101.222 107.622 100.706C108.679 100.099 109.478 98.9754 109.802 97.7603L112.474 87.6157C112.549 87.3494 112.74 87.208 112.798 87.1664C112.89 87.1164 113.048 87.0582 113.114 87.2496L115.27 93.05C115.594 93.9072 116.418 94.0903 117.375 93.5411C118.457 92.8753 119.256 91.6686 119.514 90.412C119.572 90.1373 119.73 89.9959 119.855 89.921C119.98 89.8544 120.13 89.8294 120.18 90.0541L120.613 92.3343C120.821 93.3996 121.653 93.7408 122.693 93.1915C123.8 92.559 124.64 91.344 124.915 90.0707L127.553 77.9705C127.611 77.7208 127.761 77.5877 127.844 77.5211C127.978 77.4379 128.102 77.4046 128.186 77.5294L131.356 82.2813C131.756 82.8638 132.496 82.9387 133.304 82.4727L138.505 79.4684L138.496 77.338Z" fill="#8AE6FF"/>
<path d="M154.492 28.304C154.517 28.0294 154.55 27.7548 154.592 27.4801C154.634 27.1722 154.692 26.8726 154.75 26.5647C154.792 26.3567 154.825 26.1486 154.875 25.9406C154.916 25.7491 154.966 25.5494 155.016 25.358C155.083 25.0834 155.158 24.8088 155.233 24.5425C155.283 24.3843 155.324 24.2262 155.374 24.0681C155.474 23.7602 155.574 23.4523 155.682 23.1443C155.724 23.0195 155.774 22.8947 155.815 22.7699C155.973 22.3454 156.14 21.9293 156.323 21.5132C156.348 21.4633 156.364 21.4134 156.389 21.3634C156.556 20.9889 156.731 20.6228 156.914 20.2566C156.972 20.1401 157.03 20.0236 157.088 19.9154C157.272 19.5659 157.455 19.2247 157.646 18.8834C157.679 18.8169 157.721 18.7503 157.754 18.6837C157.987 18.2843 158.229 17.8931 158.478 17.5103C158.553 17.3938 158.628 17.2856 158.703 17.1774C158.886 16.9028 159.077 16.6282 159.269 16.3619C159.377 16.2121 159.477 16.0706 159.585 15.9291C159.752 15.7044 159.926 15.488 160.101 15.2717C160.251 15.0886 160.401 14.9055 160.55 14.7224C160.692 14.556 160.842 14.3895 160.983 14.2314C161.233 13.9485 161.491 13.6822 161.749 13.4158C161.907 13.2494 162.073 13.0913 162.231 12.9332C162.356 12.8083 162.489 12.6918 162.623 12.567C162.839 12.3756 163.055 12.1842 163.272 12.0011C163.405 11.8929 163.53 11.7847 163.663 11.6765C163.904 11.4851 164.146 11.3104 164.387 11.1356C164.503 11.0524 164.62 10.9608 164.736 10.8859C165.094 10.6363 165.46 10.4033 165.827 10.1869C166.184 9.97884 166.534 9.80407 166.875 9.63763C166.967 9.59602 167.058 9.55442 167.15 9.51281C167.483 9.36301 167.816 9.22985 168.14 9.11334C168.157 9.10502 168.182 9.10503 168.198 9.0967C168.481 9.00516 168.764 8.93026 169.039 8.86369C169.197 8.82208 169.355 8.78878 169.505 8.76381C169.713 8.7222 169.913 8.68891 170.112 8.67227C170.229 8.65563 170.345 8.64731 170.454 8.63899C170.703 8.62234 170.953 8.61402 171.194 8.62234C171.252 8.62234 171.311 8.62234 171.361 8.62234C171.652 8.63898 171.935 8.67228 172.209 8.73053C172.276 8.74717 172.343 8.76382 172.409 8.78046C172.626 8.83039 172.834 8.88865 173.042 8.96355C173.108 8.98851 173.175 9.00516 173.233 9.03013C173.491 9.12999 173.749 9.24649 173.982 9.38797L170.87 7.58208C170.845 7.57376 170.828 7.55712 170.803 7.5488C170.62 7.44061 170.429 7.34906 170.229 7.26584C170.196 7.24919 170.154 7.24088 170.112 7.22424C170.046 7.19927 169.988 7.18263 169.921 7.15766C169.821 7.12437 169.721 7.08276 169.621 7.04947C169.513 7.01618 169.397 6.99954 169.288 6.97457C169.222 6.95793 169.155 6.94129 169.089 6.92464C169.055 6.91632 169.014 6.908 168.981 6.89968C168.756 6.85807 168.523 6.8331 168.29 6.81645C168.273 6.81645 168.257 6.81645 168.248 6.81645C168.19 6.81645 168.14 6.81645 168.082 6.81645C167.899 6.80813 167.724 6.79981 167.533 6.80814C167.474 6.80814 167.408 6.82477 167.341 6.82477C167.225 6.83309 167.116 6.84974 167 6.85807C166.892 6.86639 166.784 6.8747 166.675 6.89135C166.584 6.90799 166.484 6.93297 166.392 6.94961C166.234 6.9829 166.085 7.00786 165.926 7.04947C165.843 7.06611 165.76 7.08276 165.677 7.10773C165.485 7.15766 165.286 7.22424 165.094 7.29082C165.078 7.29914 165.053 7.29913 165.036 7.30745C164.803 7.39067 164.57 7.4739 164.329 7.57376C164.237 7.61537 164.137 7.65699 164.046 7.70692C163.954 7.74853 163.863 7.79014 163.771 7.83175C163.422 7.99819 163.072 8.17295 162.722 8.38101C162.356 8.59738 161.99 8.83039 161.632 9.08006C161.516 9.16328 161.399 9.2465 161.283 9.32972C161.041 9.50448 160.8 9.68756 160.559 9.87065C160.426 9.97884 160.292 10.087 160.168 10.1952C159.951 10.3783 159.735 10.5697 159.518 10.7611C159.385 10.8776 159.261 11.0024 159.127 11.1273C159.044 11.2022 158.961 11.2771 158.886 11.352C158.803 11.4352 158.728 11.5267 158.645 11.61C158.387 11.8763 158.129 12.1426 157.879 12.4255C157.796 12.5171 157.713 12.592 157.638 12.6835C157.571 12.7584 157.513 12.8416 157.446 12.9165C157.297 13.0913 157.147 13.2744 156.997 13.4658C156.897 13.5823 156.797 13.6988 156.706 13.8236C156.631 13.9235 156.556 14.0317 156.481 14.1315C156.373 14.273 156.265 14.4228 156.165 14.5643C156.09 14.6642 156.015 14.764 155.948 14.8639C155.832 15.0303 155.715 15.2134 155.599 15.3799C155.524 15.488 155.449 15.6046 155.374 15.7127C155.341 15.7627 155.308 15.8043 155.283 15.8542C155.075 16.1705 154.883 16.495 154.692 16.8279C154.675 16.8529 154.667 16.8695 154.658 16.8945C154.617 16.9611 154.584 17.0276 154.55 17.0942C154.417 17.3272 154.284 17.5602 154.159 17.7933C154.101 17.9014 154.051 18.018 153.993 18.1261C153.934 18.2426 153.876 18.3508 153.818 18.4673C153.768 18.5672 153.718 18.6671 153.668 18.7669C153.535 19.0332 153.418 19.3079 153.294 19.5742C153.269 19.6241 153.252 19.674 153.227 19.724C153.219 19.7406 153.219 19.7489 153.21 19.7656C153.061 20.1068 152.919 20.448 152.786 20.7975C152.761 20.8641 152.744 20.9224 152.719 20.9889C152.67 21.1138 152.628 21.2386 152.586 21.3634C152.528 21.5382 152.461 21.7046 152.403 21.8794C152.362 22.0126 152.32 22.1457 152.278 22.2872C152.228 22.4453 152.179 22.6034 152.137 22.7615C152.112 22.8614 152.079 22.9613 152.045 23.0528C151.995 23.2276 151.962 23.4023 151.912 23.5771C151.862 23.7685 151.812 23.9682 151.771 24.1596C151.754 24.2262 151.737 24.2928 151.721 24.3677C151.688 24.5092 151.679 24.6506 151.646 24.7921C151.588 25.1 151.529 25.3996 151.488 25.7075C151.479 25.7908 151.455 25.874 151.446 25.9572C151.421 26.1486 151.413 26.34 151.388 26.5314C151.371 26.6646 151.355 26.806 151.346 26.9392C151.313 27.3636 151.296 27.7881 151.296 28.2042C151.305 30.4678 151.804 32.3069 152.686 33.6634C153.21 34.479 153.876 35.1115 154.65 35.5609L157.763 37.3668C155.699 36.1684 154.425 33.6218 154.417 30.01C154.417 29.5939 154.434 29.1695 154.467 28.7451C154.467 28.5703 154.484 28.4372 154.492 28.304Z" fill="#0F8073"/>
<path d="M173.989 28.073C178.479 20.3479 178.491 11.9772 174.017 9.37663C169.542 6.77605 162.276 10.9303 157.786 18.6555C153.296 26.3806 153.284 34.7513 157.758 37.3518C162.233 39.9524 169.5 35.7981 173.989 28.073Z" fill="#16C0AC"/>
<path d="M166.543 17.8506L168.931 16.4692L168.956 25.665L167.991 26.2226V27.6291L166.576 28.4446L166.584 30.9662L165.943 32.0065L165.935 28.8191L164.512 29.643V28.2366L163.547 28.7941L163.522 19.5983L165.91 18.2168V16.9518L164.487 17.7757L164.479 16.2195L167.966 14.2056L167.974 15.7618L166.559 16.5773L166.543 17.8506ZM168.274 20.2391L168.265 17.7008L164.171 20.0643L164.179 22.6025L168.274 20.2391Z" fill="white"/>
<path d="M154.493 67.347C154.518 67.0724 154.551 66.7978 154.593 66.5231C154.634 66.2152 154.693 65.9156 154.751 65.6077C154.793 65.3996 154.826 65.1916 154.876 64.9835C154.917 64.7921 154.967 64.5924 155.017 64.401C155.084 64.1264 155.159 63.8517 155.234 63.5854C155.284 63.4273 155.325 63.2692 155.375 63.1111C155.475 62.8032 155.575 62.4952 155.683 62.1873C155.725 62.0625 155.775 61.9377 155.816 61.8128C155.974 61.3884 156.141 60.9723 156.324 60.5562C156.349 60.5063 156.365 60.4563 156.39 60.4064C156.557 60.0319 156.732 59.6657 156.915 59.2996C156.973 59.1831 157.031 59.0665 157.089 58.9584C157.273 58.6088 157.456 58.2676 157.647 57.9264C157.68 57.8599 157.722 57.7933 157.755 57.7267C157.988 57.3272 158.23 56.9361 158.479 56.5533C158.554 56.4368 158.629 56.3286 158.704 56.2204C158.887 55.9458 159.078 55.6711 159.27 55.4048C159.378 55.255 159.478 55.1136 159.586 54.9721C159.752 54.7474 159.927 54.531 160.102 54.3147C160.252 54.1316 160.402 53.9485 160.551 53.7654C160.693 53.599 160.843 53.4325 160.984 53.2744C161.234 52.9914 161.492 52.7251 161.75 52.4588C161.908 52.2924 162.074 52.1343 162.232 51.9761C162.357 51.8513 162.49 51.7348 162.624 51.61C162.84 51.4186 163.056 51.2272 163.273 51.0441C163.406 50.9359 163.531 50.8277 163.664 50.7195C163.905 50.5281 164.146 50.3533 164.388 50.1786C164.504 50.0954 164.621 50.0038 164.737 49.9289C165.095 49.6793 165.461 49.4462 165.828 49.2299C166.185 49.0218 166.535 48.8471 166.876 48.6806C166.968 48.639 167.059 48.5974 167.151 48.5558C167.484 48.406 167.816 48.2728 168.141 48.1563C168.158 48.148 168.183 48.148 168.199 48.1397C168.482 48.0481 168.765 47.9732 169.04 47.9067C169.198 47.865 169.356 47.8318 169.506 47.8068C169.714 47.7652 169.914 47.7319 170.113 47.7152C170.23 47.6986 170.346 47.6903 170.455 47.682C170.704 47.6653 170.954 47.657 171.195 47.6653C171.253 47.6653 171.312 47.6653 171.362 47.6653C171.653 47.682 171.936 47.7153 172.21 47.7735C172.277 47.7902 172.344 47.8068 172.41 47.8234C172.627 47.8734 172.835 47.9316 173.043 48.0065C173.109 48.0315 173.176 48.0481 173.234 48.0731C173.492 48.173 173.75 48.2895 173.983 48.4309L170.871 46.6251C170.846 46.6167 170.829 46.6001 170.804 46.5918C170.621 46.4836 170.43 46.392 170.23 46.3088C170.197 46.2922 170.155 46.2838 170.113 46.2672C170.047 46.2422 169.989 46.2256 169.922 46.2006C169.822 46.1674 169.722 46.1257 169.622 46.0924C169.514 46.0592 169.398 46.0425 169.289 46.0176C169.223 46.0009 169.156 45.9843 169.09 45.9676C169.056 45.9593 169.015 45.951 168.982 45.9426C168.757 45.901 168.524 45.8761 168.291 45.8594C168.274 45.8594 168.258 45.8594 168.249 45.8594C168.191 45.8594 168.141 45.8594 168.083 45.8594C167.9 45.8511 167.725 45.8428 167.534 45.8511C167.475 45.8511 167.409 45.8677 167.342 45.8677C167.226 45.8761 167.117 45.8927 167.001 45.901C166.893 45.9094 166.785 45.9177 166.676 45.9343C166.585 45.951 166.485 45.9759 166.393 45.9926C166.235 46.0259 166.086 46.0508 165.927 46.0924C165.844 46.1091 165.761 46.1257 165.678 46.1507C165.486 46.2006 165.287 46.2672 165.095 46.3338C165.079 46.3421 165.054 46.3421 165.037 46.3504C164.804 46.4337 164.571 46.5169 164.33 46.6167C164.238 46.6584 164.138 46.7 164.047 46.7499C163.955 46.7915 163.864 46.8331 163.772 46.8747C163.422 47.0412 163.073 47.2159 162.723 47.424C162.357 47.6403 161.991 47.8734 161.633 48.123C161.517 48.2063 161.4 48.2895 161.284 48.3727C161.042 48.5475 160.801 48.7305 160.56 48.9136C160.427 49.0218 160.293 49.13 160.169 49.2382C159.952 49.4213 159.736 49.6127 159.519 49.8041C159.386 49.9206 159.261 50.0454 159.128 50.1703C159.045 50.2452 158.962 50.3201 158.887 50.395C158.804 50.4782 158.729 50.5697 158.646 50.6529C158.388 50.9192 158.13 51.1855 157.88 51.4685C157.797 51.56 157.714 51.6349 157.639 51.7265C157.572 51.8014 157.514 51.8846 157.447 51.9595C157.298 52.1343 157.148 52.3173 156.998 52.5088C156.898 52.6253 156.798 52.7418 156.707 52.8666C156.632 52.9665 156.557 53.0747 156.482 53.1745C156.374 53.316 156.266 53.4658 156.166 53.6073C156.091 53.7071 156.016 53.807 155.949 53.9069C155.833 54.0733 155.716 54.2564 155.6 54.4312C155.525 54.5393 155.45 54.6559 155.375 54.764C155.342 54.814 155.309 54.8556 155.284 54.9055C155.076 55.2218 154.884 55.5463 154.693 55.8792C154.676 55.9042 154.668 55.9208 154.659 55.9458C154.618 56.0123 154.585 56.0789 154.551 56.1455C154.418 56.3785 154.285 56.6115 154.16 56.8446C154.102 56.9527 154.052 57.0692 153.994 57.1774C153.935 57.2939 153.877 57.4021 153.819 57.5186C153.769 57.6185 153.719 57.7184 153.669 57.8182C153.536 58.0845 153.419 58.3592 153.295 58.6255C153.27 58.6754 153.253 58.7253 153.228 58.7753C153.22 58.7919 153.22 58.8002 153.211 58.8169C153.062 59.1581 152.92 59.4993 152.787 59.8488C152.762 59.9154 152.745 59.9737 152.72 60.0402C152.67 60.1651 152.629 60.2899 152.587 60.4147C152.529 60.5895 152.462 60.7559 152.404 60.9307C152.363 61.0638 152.321 61.197 152.279 61.3385C152.229 61.4966 152.179 61.6547 152.138 61.8128C152.113 61.9127 152.08 62.0126 152.046 62.1041C151.996 62.2789 151.963 62.4536 151.913 62.6284C151.863 62.8198 151.813 63.0195 151.772 63.2109C151.755 63.2775 151.738 63.3441 151.722 63.419C151.688 63.5605 151.68 63.7019 151.647 63.8434C151.589 64.1513 151.53 64.4509 151.489 64.7588C151.48 64.8421 151.455 64.9253 151.447 65.0085C151.422 65.1999 151.414 65.3913 151.389 65.5827C151.372 65.7159 151.356 65.8574 151.347 65.9905C151.314 66.4149 151.297 66.8394 151.297 67.2555C151.306 69.5191 151.805 71.3582 152.687 72.7147C153.211 73.5303 153.877 74.1628 154.651 74.6122L157.764 76.4181C155.7 75.2197 154.426 72.6731 154.418 69.0613C154.418 68.6452 154.435 68.2208 154.468 67.7964C154.468 67.6216 154.485 67.4885 154.493 67.347Z" fill="#0F8073"/>
<path d="M173.986 67.1179C178.476 59.3928 178.489 51.0221 174.014 48.4216C169.54 45.821 162.273 49.9752 157.783 57.7004C153.293 65.4255 153.281 73.7962 157.755 76.3968C162.23 78.9973 169.497 74.8431 173.986 67.1179Z" fill="#16C0AC"/>
<path d="M166.144 57.2854C168.033 56.1952 169.664 56.5864 170.355 58.0677L161.808 66.5728C161.675 66.1567 161.6 65.6824 161.6 65.1498C161.6 62.262 163.631 58.7418 166.144 57.2854Z" fill="white"/>
<path d="M170.645 59.0425C170.695 59.3088 170.72 59.5834 170.72 59.8913C170.729 62.7791 168.69 66.3076 166.177 67.7557C164.487 68.7294 163.023 68.5213 162.232 67.4062L170.645 59.0425Z" fill="white"/>
</svg>
