<svg width="46" height="46" viewBox="0 0 46 46" fill="none" xmlns="http://www.w3.org/2000/svg">
<path fill-rule="evenodd" clip-rule="evenodd" d="M23.68 1.57025C23.4664 1.47311 23.2345 1.42285 22.9999 1.42285C22.7652 1.42285 22.5333 1.47311 22.3197 1.57025L13.7013 5.4934L22.9933 9.7254L32.2919 5.49011L23.68 1.57025ZM12.157 18.4325V8.39797L21.357 12.5873V23.6765L13.1132 19.9275C12.8261 19.797 12.5828 19.5866 12.4121 19.3215C12.2413 19.0565 12.1505 18.7478 12.1504 18.4325H12.157ZM24.6427 40.4863V29.512L33.3564 33.4811V44.5704L25.1224 40.8214C24.9426 40.7396 24.7823 40.6261 24.6427 40.4863ZM36.6422 44.577V33.4811L45.852 29.2885V39.3264C45.8519 39.6417 45.7611 39.9503 45.5904 40.2154C45.4197 40.4805 45.1763 40.6909 44.8893 40.8214L36.6422 44.577ZM21.3504 29.512V40.4994C21.2138 40.6333 21.0548 40.7422 20.8806 40.8214L12.6334 44.577V33.4811L21.3504 29.512ZM9.34773 33.4811V44.5704L1.11701 40.8214C0.830001 40.6909 0.586616 40.4805 0.415909 40.2154C0.245202 39.9503 0.154384 39.6417 0.154297 39.3264V29.2918L9.3543 33.4811H9.34773ZM24.6362 23.6831V12.584L33.846 8.3914V18.4325C33.8459 18.7478 33.7551 19.0565 33.5844 19.3215C33.4137 19.5866 33.1703 19.797 32.8833 19.9275L24.6362 23.6831ZM34.3224 22.4674C34.536 22.3703 34.7679 22.32 35.0026 22.32C35.2372 22.32 35.4691 22.3703 35.6827 22.4674L44.2913 26.384L34.9927 30.6193L25.7106 26.384L34.3257 22.4608L34.3224 22.4674ZM10.317 22.4674C10.5306 22.3703 10.7625 22.32 10.9972 22.32C11.2318 22.32 11.4637 22.3703 11.6773 22.4674L20.2859 26.384L10.9906 30.6225L1.70187 26.384L10.317 22.4674Z" fill="#0C3B98"/>
</svg>
