<svg width="25" height="25" viewBox="0 0 25 25" fill="none" xmlns="http://www.w3.org/2000/svg">
<g id="Frame">
<path id="Subtract" d="M8.13483 12.5239C8.13483 10.3248 9.91801 8.54167 12.1183 8.54167C14.3185 8.54167 16.1027 10.3248 16.1027 12.5239C16.1027 14.723 14.3185 16.5062 12.1183 16.5062C9.91801 16.5062 8.13483 14.723 8.13483 12.5239ZM5.98093 12.5239C5.98093 15.9118 8.72862 18.658 12.1183 18.658C15.5079 18.658 18.2556 15.9118 18.2556 12.5239C18.2556 9.1361 15.5079 6.3899 12.1183 6.3899C8.72862 6.3899 5.98093 9.1361 5.98093 12.5239ZM17.0643 6.14668C17.0642 6.4302 17.1482 6.70739 17.3057 6.94319C17.4632 7.17899 17.6871 7.36281 17.9492 7.47142C18.2112 7.58002 18.4996 7.60852 18.7778 7.55332C19.0561 7.49812 19.3117 7.3617 19.5124 7.1613C19.713 6.9609 19.8497 6.70553 19.9052 6.42748C19.9606 6.14943 19.9323 5.86119 19.8239 5.59921C19.7154 5.33723 19.5317 5.11328 19.2959 4.95567C19.0601 4.79806 18.7828 4.71387 18.4992 4.71376H18.4986C18.1183 4.71394 17.7537 4.86495 17.4848 5.13362C17.2159 5.40229 17.0646 5.76665 17.0643 6.14668ZM7.28956 22.2475C6.12427 22.1945 5.49089 22.0005 5.06998 21.8366C4.51195 21.6195 4.1138 21.3609 3.69518 20.943C3.27657 20.5252 3.01744 20.1277 2.80115 19.5699C2.63707 19.1495 2.44297 18.5162 2.39 17.3516C2.33205 16.0924 2.32048 15.7141 2.32048 12.524C2.32048 9.33392 2.33301 8.95672 2.39 7.69648C2.44306 6.53182 2.6386 5.89984 2.80115 5.4781C3.0184 4.92038 3.27714 4.52244 3.69518 4.10405C4.11323 3.68566 4.511 3.42667 5.06998 3.2105C5.4907 3.04651 6.12427 2.85251 7.28956 2.79957C8.54943 2.74165 8.92788 2.73009 12.1183 2.73009C15.3087 2.73009 15.6875 2.74261 16.9484 2.79957C18.1137 2.85261 18.746 3.04804 19.168 3.2105C19.726 3.42667 20.1242 3.68623 20.5428 4.10405C20.9614 4.52186 21.2196 4.92038 21.4368 5.4781C21.6009 5.89859 21.795 6.53182 21.848 7.69648C21.9059 8.95672 21.9175 9.33392 21.9175 12.524C21.9175 15.7141 21.9059 16.0913 21.848 17.3516C21.7949 18.5162 21.5999 19.1493 21.4368 19.5699C21.2196 20.1277 20.9608 20.5256 20.5428 20.943C20.1248 21.3605 19.726 21.6195 19.168 21.8366C18.7473 22.0006 18.1137 22.1946 16.9484 22.2475C15.6886 22.3054 15.3101 22.317 12.1183 22.317C8.92645 22.317 8.54904 22.3054 7.28956 22.2475ZM7.1906 0.650469C5.91821 0.708382 5.04875 0.910027 4.28945 1.20533C3.50309 1.51028 2.83739 1.9194 2.17218 2.5832C1.50696 3.24701 1.09867 3.91339 0.793557 4.69933C0.498097 5.4587 0.296343 6.32721 0.238399 7.59891C0.179498 8.87262 0.166016 9.27983 0.166016 12.5239C0.166016 15.768 0.179498 16.1752 0.238399 17.4489C0.296343 18.7207 0.498097 19.5892 0.793557 20.3485C1.09867 21.134 1.50706 21.8011 2.17218 22.4646C2.8373 23.1282 3.50309 23.5367 4.28945 23.8425C5.05019 24.1378 5.91821 24.3395 7.1906 24.3974C8.46567 24.4553 8.87243 24.4697 12.1183 24.4697C15.3641 24.4697 15.7716 24.4563 17.046 24.3974C18.3184 24.3395 19.1873 24.1378 19.9471 23.8425C20.733 23.5367 21.3992 23.1285 22.0644 22.4646C22.7296 21.8008 23.137 21.134 23.443 20.3485C23.7385 19.5892 23.9412 18.7206 23.9982 17.4489C24.0561 16.1743 24.0696 15.768 24.0696 12.5239C24.0696 9.27983 24.0561 8.87262 23.9982 7.59891C23.9402 6.32711 23.7385 5.45822 23.443 4.69933C23.137 3.91387 22.7285 3.24806 22.0644 2.5832C21.4002 1.91835 20.733 1.51028 19.9481 1.20533C19.1873 0.910027 18.3183 0.707426 17.0469 0.650469C15.7725 0.592556 15.3651 0.578125 12.1192 0.578125C8.87338 0.578125 8.46567 0.5916 7.1906 0.650469Z" fill="#313A34"/>
</g>
</svg>
