<svg width="616" height="441" viewBox="0 0 616 441" fill="none" xmlns="http://www.w3.org/2000/svg">
<path d="M142.297 248.009C145.145 249.648 145.161 252.312 142.328 253.95L47.7451 308.921C44.9123 310.559 40.334 310.559 37.486 308.921L2.14564 288.464C-0.70241 286.826 -0.717717 284.161 2.11502 282.523L96.6978 227.568C99.5153 225.929 104.124 225.929 106.957 227.568L142.297 248.009Z" fill="#EAEEEE"/>
<path d="M135.602 154.177C135.801 154.1 136.016 154.024 136.215 153.962C136.337 153.916 136.475 153.886 136.597 153.855C136.72 153.825 136.842 153.794 136.95 153.779C137.103 153.748 137.256 153.733 137.409 153.702C137.501 153.687 137.577 153.687 137.669 153.671C137.853 153.656 138.037 153.656 138.221 153.656C138.266 153.656 138.312 153.656 138.343 153.656C138.557 153.672 138.772 153.702 138.986 153.733C139.032 153.748 139.093 153.763 139.139 153.763C139.308 153.794 139.461 153.84 139.614 153.901C139.66 153.916 139.706 153.932 139.767 153.947C139.966 154.024 140.15 154.116 140.334 154.223L105.698 134.103C105.682 134.087 105.667 134.087 105.652 134.072C105.514 133.995 105.361 133.919 105.223 133.858C105.192 133.842 105.162 133.842 105.131 133.827C105.085 133.812 105.039 133.796 104.978 133.781C104.901 133.75 104.825 133.72 104.748 133.705C104.672 133.674 104.58 133.659 104.503 133.643C104.457 133.628 104.396 133.613 104.35 133.613C104.32 133.613 104.289 133.597 104.274 133.597C104.105 133.567 103.921 133.551 103.753 133.536C103.738 133.536 103.738 133.536 103.722 133.536C103.676 133.536 103.631 133.536 103.6 133.536C103.462 133.536 103.324 133.521 103.186 133.536C103.141 133.536 103.095 133.551 103.049 133.551C102.957 133.551 102.88 133.567 102.788 133.582C102.712 133.597 102.635 133.597 102.543 133.613C102.467 133.628 102.406 133.643 102.329 133.659C102.206 133.674 102.099 133.705 101.977 133.735C101.916 133.75 101.854 133.766 101.793 133.781C101.732 133.796 101.671 133.827 101.594 133.842C101.395 133.904 101.196 133.98 100.982 134.057C100.905 134.087 100.844 134.103 100.767 134.133C100.721 134.149 100.691 134.179 100.645 134.195C100.292 134.348 99.925 134.516 99.5575 134.73L10.0124 186.439C9.4458 186.761 8.90988 187.144 8.37396 187.572C8.20552 187.71 8.03709 187.863 7.86865 188.017C7.60835 188.246 7.34804 188.445 7.10305 188.69C6.99586 188.797 6.88868 188.92 6.7815 189.042C6.68962 189.15 6.58244 189.242 6.49056 189.349C6.38338 189.471 6.26089 189.578 6.1537 189.701C5.90871 189.976 5.67903 190.267 5.44935 190.558C5.37279 190.666 5.29622 190.757 5.21966 190.865C5.17373 190.926 5.1431 190.972 5.09716 191.033C5.0206 191.14 4.94405 191.232 4.86748 191.339C4.69905 191.584 4.53062 191.829 4.36218 192.09C4.20906 192.335 4.05594 192.58 3.91814 192.825C3.90282 192.84 3.90282 192.855 3.88751 192.886C3.8722 192.901 3.8722 192.916 3.85689 192.932C3.73439 193.131 3.62721 193.345 3.50471 193.56C3.38221 193.805 3.2444 194.05 3.13722 194.295C3.03003 194.509 2.93816 194.739 2.83097 194.953C2.83097 194.968 2.81566 194.984 2.81566 194.999C2.81566 195.014 2.80035 195.029 2.80035 195.045C2.69316 195.305 2.58598 195.565 2.4788 195.826C2.37161 196.101 2.27974 196.377 2.18787 196.637C2.14193 196.775 2.1113 196.913 2.06537 197.035C2.05006 197.097 2.03475 197.158 2.00412 197.219C1.9735 197.326 1.94287 197.418 1.91225 197.525C1.82038 197.862 1.74382 198.184 1.66726 198.521C1.62132 198.72 1.60601 198.919 1.56007 199.118C1.54476 199.225 1.52945 199.332 1.49882 199.424C1.48351 199.516 1.4682 199.623 1.45289 199.715C1.37633 200.282 1.3457 200.848 1.3457 201.415L1.52945 268.711C1.54476 271.452 2.50942 273.366 4.05594 274.27L38.6919 294.39C37.1301 293.486 36.1654 291.557 36.1654 288.831L35.9817 221.535C35.9817 220.892 36.0429 220.218 36.1501 219.544C36.1654 219.437 36.1807 219.33 36.2113 219.238C36.3185 218.61 36.4563 217.982 36.6554 217.339C36.6707 217.278 36.686 217.217 36.7166 217.155C36.931 216.466 37.176 215.793 37.4669 215.119C37.4669 215.104 37.4823 215.088 37.4823 215.073C37.7885 214.384 38.1254 213.71 38.5082 213.052C38.5235 213.037 38.5235 213.021 38.5388 213.006C38.9063 212.363 39.3197 211.75 39.7484 211.153C39.7944 211.092 39.825 211.046 39.8709 210.985C40.2691 210.449 40.6978 209.943 41.1418 209.469C41.2337 209.362 41.3409 209.254 41.4328 209.163C41.785 208.795 42.1524 208.458 42.5199 208.137C42.6884 207.983 42.8568 207.83 43.0252 207.693C43.5612 207.264 44.0971 206.881 44.6636 206.559L134.209 154.851C134.576 154.636 134.944 154.468 135.296 154.315C135.372 154.269 135.48 154.223 135.602 154.177Z" fill="#128163"/>
<path d="M134.161 154.85C138.954 152.078 142.843 154.298 142.859 159.811L143.042 227.107C143.058 232.604 139.184 239.326 134.406 242.083L44.8612 293.792C40.0685 296.563 36.1639 294.327 36.1486 288.83L35.9649 221.534C35.9496 216.037 39.8235 209.33 44.6162 206.558L134.161 154.85Z" fill="#129F86"/>
<path d="M83.772 165.522L77.9994 162.168L77.9688 147.469L83.7414 150.822L83.772 165.522Z" fill="#423E4D"/>
<path d="M48.7851 185.734L43.0124 182.381L42.9512 159.673L48.7238 163.026L48.7851 185.734Z" fill="#423E4D"/>
<path d="M48.7238 163.026L42.9512 159.673L84.9216 135.449L90.6943 138.803L48.7238 163.026Z" fill="#423E4D"/>
<path d="M90.6931 138.801L90.7544 161.493L83.7721 165.52L83.7414 150.821L55.7203 167.006L55.7662 181.705L48.7839 185.732L48.7227 163.025L90.6931 138.801Z" fill="#423E4D"/>
<path d="M109.986 235.553C120.677 217.157 120.709 197.225 110.056 191.033C99.4027 184.842 82.0994 194.735 71.4078 213.132C60.7161 231.528 60.6848 251.46 71.3378 257.651C81.9908 263.843 99.2941 253.949 109.986 235.553Z" fill="#EAEEEE"/>
<path d="M99.1914 201.599L99.222 213.588L109.65 207.57L109.695 223.74L99.2679 229.758L99.2986 241.732L85.2421 249.847L85.1961 237.873L74.7686 243.891L74.7227 227.721L85.1655 221.703L85.1196 209.729L99.1914 201.599Z" fill="#E34958"/>
<path d="M609.209 323.19C613.588 325.717 613.604 329.805 609.255 332.331L463.943 416.778C459.595 419.304 452.551 419.304 448.172 416.778L358.55 365.038C354.186 362.512 354.155 358.423 358.504 355.897L503.816 271.451C508.149 268.924 515.223 268.924 519.587 271.451L609.209 323.19Z" fill="#EAEEEE"/>
<path d="M539.096 273.61C546.767 278.035 546.798 285.201 539.188 289.626L284.44 437.679C276.815 442.104 264.458 442.104 256.787 437.679L99.6692 346.97C92.0132 342.545 91.9519 335.379 99.5773 330.954L354.325 182.901C361.935 178.476 374.322 178.476 381.978 182.901L539.096 273.61Z" fill="#EAEEEE"/>
<path d="M545.985 228.625C553.84 233.158 553.871 240.492 546.077 245.024L285.204 396.63C277.395 401.162 264.747 401.162 256.892 396.63L96.0082 303.746C88.1684 299.214 88.1071 291.88 95.9163 287.347L356.789 135.742C364.582 131.21 377.261 131.21 385.101 135.742L545.985 228.625Z" fill="#EAEEEE"/>
<path d="M551.851 237.475C551.836 237.69 551.821 237.889 551.775 238.103C551.744 238.272 551.698 238.44 551.652 238.609C551.606 238.808 551.545 239.007 551.484 239.206C551.423 239.374 551.346 239.527 551.285 239.696C551.193 239.91 551.101 240.109 550.994 240.323C550.917 240.477 550.81 240.614 550.718 240.768C550.58 240.997 550.427 241.242 550.244 241.472C550.136 241.61 550.029 241.747 549.922 241.87C549.662 242.176 549.386 242.482 549.08 242.773C548.973 242.881 548.866 242.988 548.743 243.11C548.559 243.279 548.345 243.447 548.131 243.616C547.947 243.769 547.763 243.922 547.564 244.06C547.334 244.228 547.089 244.381 546.844 244.534C546.599 244.703 546.354 244.871 546.079 245.024L285.207 396.629C284.334 397.135 283.384 397.563 282.404 397.962C282.144 398.069 281.884 398.161 281.624 398.252C281.011 398.467 280.383 398.651 279.74 398.834C279.082 399.018 278.423 399.186 277.734 399.34C276.938 399.508 276.126 399.646 275.315 399.753C275.116 399.784 274.917 399.814 274.718 399.83C273.6 399.952 272.482 400.013 271.349 400.013C271.165 400.013 270.997 400.013 270.813 400.013C269.695 399.998 268.593 399.937 267.49 399.83C267.322 399.814 267.154 399.799 267 399.768C265.913 399.631 264.841 399.447 263.785 399.217C263.586 399.171 263.402 399.125 263.203 399.079C262.254 398.85 261.32 398.559 260.416 398.237C260.263 398.176 260.095 398.13 259.926 398.069C258.854 397.655 257.829 397.181 256.864 396.629L95.9796 303.746C92.0291 301.465 90.0538 298.479 90.0691 295.493L90.0079 315.154C89.9926 318.14 91.9679 321.125 95.9184 323.407L256.803 416.29C257.706 416.811 258.686 417.27 259.697 417.684C259.743 417.699 259.804 417.714 259.85 417.729C260.003 417.791 260.171 417.837 260.34 417.898C260.922 418.112 261.519 418.327 262.131 418.495C262.453 418.587 262.79 418.663 263.126 418.74C263.326 418.786 263.509 418.832 263.693 418.878C263.877 418.924 264.045 418.97 264.214 419C264.872 419.138 265.53 419.245 266.189 419.353C266.419 419.383 266.664 419.398 266.893 419.429C267.062 419.444 267.215 419.46 267.383 419.49C267.628 419.521 267.873 419.552 268.118 419.567C268.777 419.628 269.435 419.659 270.078 419.674C270.277 419.674 270.492 419.674 270.691 419.674C270.874 419.674 271.043 419.674 271.227 419.674C271.518 419.674 271.824 419.674 272.115 419.674C272.85 419.643 273.6 419.598 274.335 419.521C274.427 419.506 274.503 419.49 274.595 419.49C274.794 419.475 274.993 419.429 275.192 419.414C275.759 419.337 276.341 419.276 276.892 419.184C277.137 419.138 277.367 419.062 277.612 419C278.301 418.863 278.959 418.694 279.618 418.495C279.97 418.403 280.337 418.342 280.674 418.235C280.95 418.143 281.225 418.02 281.501 417.928C281.761 417.837 282.022 417.729 282.282 417.638C283.262 417.239 284.211 416.811 285.084 416.305L545.956 264.7C546.033 264.654 546.125 264.608 546.201 264.563C546.385 264.455 546.538 264.333 546.722 264.21C546.967 264.057 547.212 263.889 547.442 263.736C547.641 263.598 547.824 263.445 548.008 263.292C548.222 263.123 548.437 262.955 548.621 262.786C548.666 262.756 548.712 262.725 548.743 262.679C548.82 262.603 548.881 262.526 548.957 262.449C549.264 262.159 549.555 261.852 549.8 261.531C549.861 261.469 549.937 261.393 549.983 261.332C550.029 261.27 550.075 261.194 550.121 261.133C550.29 260.903 550.443 260.673 550.596 260.428C550.657 260.336 550.734 260.229 550.795 260.137C550.826 260.091 550.841 260.03 550.871 259.984C550.979 259.785 551.07 259.571 551.162 259.356C551.208 259.234 551.285 259.111 551.331 258.989C551.346 258.943 551.346 258.912 551.361 258.866C551.438 258.667 551.484 258.468 551.53 258.269C551.56 258.131 551.622 257.994 551.652 257.871C551.652 257.841 551.652 257.795 551.668 257.764C551.714 257.55 551.714 257.351 551.744 257.136C551.76 256.998 551.79 256.861 551.79 256.723C551.79 256.661 551.79 256.6 551.79 256.554L551.851 236.894C551.897 237.077 551.867 237.276 551.851 237.475Z" fill="#423E4D"/>
<path d="M522.224 231.549C524.735 233.004 524.75 235.362 522.239 236.817L303.46 363.968C300.949 365.423 296.86 365.423 294.349 363.984L149.42 280.303C146.894 278.848 146.878 276.475 149.389 275.02L368.169 147.884C370.68 146.429 374.768 146.429 377.295 147.884L522.224 231.549Z" fill="#1AB8FF"/>
<path d="M215.197 337.326C217.969 338.933 217.984 341.521 215.228 343.129L211.599 345.242C208.843 346.85 204.356 346.85 201.585 345.242L179.535 332.518C176.764 330.91 176.749 328.322 179.505 326.714L183.134 324.601C185.89 322.994 190.376 322.994 193.148 324.601L215.197 337.326Z" fill="#DCDCDC"/>
<path d="M459.515 60.7719C463.328 62.9768 466.421 68.3207 466.406 72.7L465.916 246.064C465.901 250.443 462.792 252.219 458.98 250.014L355.332 190.174C351.519 187.969 348.426 182.626 348.441 178.246L348.931 4.89802C348.947 0.51876 352.055 -1.25745 355.868 0.947495L459.515 60.7719Z" fill="#8AE6FF"/>
<path d="M414.313 101.183C414.313 103.127 414.451 106.404 415.263 109.528C415.416 110.661 415.645 112.468 415.952 114.596C413.272 115.591 410.562 114.918 408.081 113.478C404.039 111.151 400.609 106.802 398.863 104.352C399.369 101.519 399.675 99.483 399.69 99.3758L399.598 99.2992C400.088 97.4771 400.226 95.3028 400.257 93.6797C401.206 95.0731 402.201 96.2981 403.151 97.1862C403.243 97.278 404.988 99.1614 407.331 100.524C408.51 101.198 409.811 101.719 411.067 101.764C412.124 101.81 413.241 101.581 414.313 101.183Z" fill="white"/>
<path d="M371.732 107.107C371.425 109.389 371.104 111.824 370.828 114.059C371.027 111.824 371.318 109.389 371.732 107.107Z" fill="#266C5B"/>
<path d="M397.943 98.0756L399.612 99.3159C399.704 99.3925 399.398 101.536 398.877 104.354C398.739 105.119 398.586 105.931 398.433 106.773C397.698 110.448 401.832 137.474 402.322 140.674C402.353 140.873 402.368 140.98 402.368 140.98L369.83 122.192C369.845 122.008 370.259 118.533 370.825 114.061C371.101 111.826 371.423 109.391 371.729 107.11C372.311 102.776 372.893 99.025 373.183 98.29C373.934 96.4066 390.746 99.76 391.635 99.9437L397.943 98.0756Z" fill="#E8E8F0"/>
<path d="M391.267 61.3405C391.726 61.6008 392.139 62.0295 392.507 62.5501C392.691 63.2545 392.813 63.6526 392.828 63.6679C392.874 64.0507 393.747 71.1709 394.13 72.4724C394.191 72.6561 394.237 72.7633 394.298 72.7939C394.513 72.9164 394.727 72.2427 394.88 71.6455C394.957 74.0495 394.88 76.3923 393.854 75.9942C393.808 75.9789 393.763 75.9482 393.717 75.9329C393.563 75.841 393.38 75.6879 393.165 75.4735C390.669 72.7786 386.826 61.6161 389.934 61.0802C390.409 61.0036 390.853 61.1108 391.267 61.3405Z" fill="white"/>
<path d="M423.47 79.9476C423.884 80.1773 424.312 80.5907 424.787 81.2185C427.88 85.3375 423.975 92.0289 421.495 91.8451C421.296 91.8298 421.112 91.7686 420.944 91.6767C420.775 91.5848 420.637 91.447 420.515 91.2786C420.071 90.6814 419.872 89.6555 419.811 88.4765C419.887 88.599 419.964 88.6908 420.04 88.7674C420.056 88.7827 420.071 88.798 420.086 88.798C420.607 89.1043 420.637 85.1078 421.388 82.3363C421.587 81.8157 421.801 80.9123 422.031 79.7792C422.444 79.6261 422.934 79.6261 423.47 79.9476Z" fill="white"/>
<path d="M414.586 61.7415C414.908 61.9253 415.168 62.1243 415.382 62.3387C417.082 64.1762 418.583 67.4529 419.134 71.036C419.7 74.6343 419.088 84.7403 419.088 85.6131C419.088 86.3634 419.363 87.7568 419.808 88.4918C419.869 89.6708 420.068 90.6814 420.512 91.2939C420.022 94.1266 419.501 96.1631 419.21 97.0206C418.69 98.659 416.607 100.343 414.295 101.201C413.223 101.599 412.106 101.829 411.08 101.783C409.809 101.737 408.507 101.216 407.343 100.542C405.001 99.1796 403.255 97.3115 403.163 97.2043C402.214 96.3162 401.219 95.0913 400.269 93.6979C397.804 90.0995 395.63 85.4294 395.079 83.0713C394.818 81.9229 394.313 79.3351 393.854 76.0124C394.879 76.4105 394.956 74.0678 394.879 71.6638C394.987 71.235 395.063 70.8676 395.063 70.8522C395.063 70.7144 395.079 68.0348 395.079 66.5189C395.079 64.9877 393.593 57.6073 394.941 54.2386C395.798 52.0796 397.115 51.7887 399.152 52.9677C400.285 53.6261 401.647 54.7286 403.27 56.2139C404.159 57.0254 405.093 57.6838 406.027 58.2351C407.68 59.1844 409.365 59.7969 410.865 60.3175C412.366 60.8075 413.683 61.2209 414.586 61.7415Z" fill="white"/>
<path d="M406.472 43.9784C411.157 46.6887 416.302 50.6851 419.946 55.4013C421.83 58.8771 421.631 62.8889 422.748 65.5072C423.652 67.5897 422.856 75.4142 422.013 79.7934C421.799 80.9265 421.569 81.8453 421.37 82.3506C420.62 85.1067 420.589 89.1032 420.069 88.8123C419.946 88.7051 419.87 88.5979 419.809 88.4907C419.365 87.771 419.089 86.3776 419.089 85.612C419.089 84.7393 419.686 74.6333 419.135 71.0349C418.584 67.4519 417.083 64.1904 415.383 62.3377C415.184 62.1233 414.909 61.9242 414.587 61.7405C413.684 61.2199 412.367 60.8064 410.866 60.3011C409.366 59.7958 407.681 59.1834 406.028 58.2187C405.078 57.6675 404.144 57.009 403.272 56.1975C401.648 54.7122 400.286 53.6098 399.153 52.9513C397.116 51.7723 395.784 52.0479 394.942 54.2222C393.594 57.5909 395.095 64.9713 395.08 66.5025C395.08 68.0184 395.064 70.698 395.064 70.8358C395.064 70.8512 394.988 71.2187 394.88 71.6474C394.727 72.2446 394.498 72.9183 394.299 72.7958C394.237 72.7652 394.176 72.658 394.13 72.4743C393.747 71.1727 392.875 64.0373 392.829 63.6698C392.829 63.6545 392.691 63.2564 392.507 62.552C391.864 60.0562 390.532 53.8547 391.726 48.4496C392.492 46.9337 392.89 43.2435 394.988 40.7476C396.09 39.4154 400.975 40.7935 406.472 43.9784Z" fill="#1A84B4"/>
<path d="M416.334 117.106C417.039 121.607 412.767 143.795 412.261 146.413L408.418 144.193L405.892 142.738L402.309 140.671C401.819 137.471 397.684 110.445 398.419 106.77C398.588 105.928 398.726 105.116 398.863 104.351C400.594 106.801 404.039 111.134 408.081 113.477C410.562 114.916 413.272 115.574 415.952 114.594C416.074 115.391 416.197 116.233 416.334 117.106Z" fill="#1A84B4"/>
<path d="M416.854 108.992L423.148 118.149C424.036 118.991 440.803 135.023 441.538 137.764C442.288 140.52 444.631 164.208 444.753 165.463L412.215 146.675C412.215 146.675 412.23 146.583 412.261 146.415C412.766 143.797 417.038 121.625 416.334 117.108C416.196 116.235 416.073 115.393 415.951 114.596C415.645 112.468 415.4 110.661 415.262 109.528C415.155 108.732 415.109 108.303 415.109 108.272L416.854 108.992Z" fill="#E8E8F0"/>
<path d="M387.564 184.804L387.549 189.245L371.119 179.767L371.134 175.326L387.564 184.804Z" fill="#1AB8FF"/>
<path d="M405.984 176.597L405.968 181.038L371.164 160.948L371.179 156.508L405.984 176.597Z" fill="#1AB8FF"/>
<path d="M429.841 172.402L429.826 176.843L371.227 143.003L371.242 138.562L429.841 172.402Z" fill="#1AB8FF"/>
<path d="M396.293 178.877V183.333L371.15 168.817L371.166 164.361L396.293 178.877Z" fill="#1AB8FF"/>
<path d="M429.812 181.283L429.797 185.724L371.197 151.884L371.213 147.443L429.812 181.283Z" fill="#1AB8FF"/>
<path d="M408.437 196.853L408.422 201.293L391.992 191.8L392.008 187.359L408.437 196.853Z" fill="#1AB8FF"/>
<path d="M429.305 208.905L429.289 213.345L412.859 203.852V199.411L429.305 208.905Z" fill="#1AB8FF"/>
<path d="M286.448 279.474C300.505 287.59 300.566 300.727 286.617 308.843C272.652 316.958 249.959 316.958 235.903 308.843C221.846 300.727 221.77 287.59 235.734 279.474C249.699 271.359 272.392 271.359 286.448 279.474Z" fill="white"/>
<path d="M282.359 291.129L282.405 298.034H245.166L245.09 285.861H257.003L257.033 291.129H282.359Z" fill="#55D6AA"/>
<path d="M387.446 251.99C389.36 253.092 389.36 254.884 387.461 255.986L336.349 285.692C334.45 286.794 331.373 286.794 329.459 285.692L278.025 255.986C276.111 254.884 276.111 253.107 278.01 252.005L329.122 222.3C331.02 221.197 334.098 221.197 336.012 222.3L387.446 251.99Z" fill="#169FDC"/>
<path d="M402.024 262.876C400.11 261.773 397.032 261.773 395.134 262.876L344.022 292.581C342.123 293.684 342.138 295.46 344.037 296.562L381.843 318.397L439.814 284.711L402.024 262.876Z" fill="#169FDC"/>
<path d="M318.725 210.861L289.157 193.788L231.186 227.475L260.753 244.548C262.667 245.65 265.745 245.65 267.644 244.548L318.755 214.842C320.639 213.755 320.639 211.964 318.725 210.861Z" fill="#169FDC"/>
<path d="M389.697 242.173C391.688 243.322 391.688 245.19 389.728 246.338L336.533 277.253C334.558 278.402 331.343 278.386 329.367 277.253L275.821 246.338C273.83 245.19 273.83 243.337 275.79 242.189L328.985 211.273C330.96 210.125 334.175 210.125 336.151 211.273L389.697 242.173Z" fill="#8AE6FF"/>
<path d="M361.431 180.941C361.385 181.002 361.339 181.064 361.293 181.125C361.048 181.446 360.772 181.753 360.481 182.074C360.405 182.151 360.328 182.227 360.252 182.319C360.022 182.549 359.792 182.794 359.547 183.024C359.44 183.131 359.318 183.238 359.21 183.345C359.057 183.483 358.919 183.605 358.766 183.743C358.628 183.866 358.475 183.988 358.338 184.095C358.184 184.218 358.016 184.356 357.848 184.478C357.694 184.601 357.541 184.708 357.388 184.83C357.22 184.953 357.036 185.075 356.868 185.198C356.699 185.305 356.546 185.428 356.362 185.535C356.179 185.657 355.995 185.78 355.796 185.887C355.551 186.04 355.321 186.178 355.076 186.331C354.617 186.607 354.127 186.852 353.637 187.112C353.499 187.188 353.361 187.25 353.208 187.326C352.825 187.51 352.442 187.694 352.044 187.877C351.906 187.939 351.784 188 351.646 188.061C351.141 188.276 350.62 188.49 350.084 188.689C349.992 188.72 349.901 188.75 349.809 188.796C349.365 188.965 348.905 189.118 348.461 189.271C348.278 189.332 348.078 189.393 347.895 189.455C347.65 189.531 347.389 189.608 347.129 189.684C346.915 189.746 346.7 189.807 346.486 189.868C346.226 189.945 345.965 190.006 345.705 190.082C345.491 190.144 345.261 190.19 345.047 190.251C344.786 190.312 344.511 190.373 344.25 190.435C344.036 190.481 343.806 190.526 343.592 190.572C343.316 190.634 343.056 190.68 342.78 190.726C342.566 190.771 342.367 190.802 342.153 190.848C341.571 190.955 340.974 191.047 340.392 191.124C340.3 191.139 340.223 191.139 340.131 191.154C339.611 191.231 339.106 191.292 338.585 191.338C338.386 191.353 338.187 191.384 337.988 191.399C337.651 191.43 337.314 191.461 336.993 191.476C336.778 191.491 336.564 191.506 336.365 191.522C336.013 191.537 335.66 191.552 335.308 191.568C335.109 191.583 334.91 191.583 334.711 191.598C334.405 191.614 334.098 191.614 333.808 191.614C333.593 191.614 333.379 191.629 333.164 191.629C332.843 191.629 332.521 191.629 332.2 191.614C332.001 191.614 331.817 191.614 331.618 191.598C331.327 191.583 331.021 191.583 330.73 191.568C330.515 191.552 330.316 191.552 330.102 191.537C329.781 191.522 329.459 191.491 329.137 191.476C328.954 191.461 328.77 191.461 328.586 191.445C328.203 191.415 327.821 191.369 327.438 191.338C327.315 191.323 327.208 191.323 327.086 191.307C326.58 191.246 326.09 191.185 325.6 191.124C325.524 191.108 325.462 191.108 325.386 191.093C324.957 191.032 324.513 190.955 324.084 190.894C323.901 190.863 323.732 190.833 323.564 190.802C323.242 190.741 322.921 190.68 322.599 190.618C322.431 190.588 322.262 190.542 322.094 190.511C321.742 190.435 321.389 190.358 321.037 190.266C320.838 190.22 320.654 190.174 320.455 190.128C320.134 190.052 319.828 189.96 319.506 189.883C319.322 189.837 319.154 189.776 318.97 189.73C318.48 189.592 317.975 189.439 317.5 189.271C317.408 189.24 317.332 189.21 317.24 189.179C316.689 188.995 316.137 188.781 315.586 188.582C315.372 188.49 315.142 188.413 314.928 188.322C314.759 188.245 314.576 188.184 314.407 188.107C314.162 188 313.917 187.893 313.687 187.786C313.534 187.709 313.366 187.648 313.213 187.571C312.953 187.449 312.692 187.311 312.432 187.188C312.309 187.127 312.172 187.066 312.049 186.989C311.666 186.79 311.299 186.591 310.931 186.377C308.16 184.784 306.047 182.947 304.531 181.002H301.698L301.545 234.748C301.53 239.403 304.607 244.073 310.763 247.625C311.13 247.84 311.513 248.039 311.881 248.238C312.003 248.299 312.141 248.36 312.263 248.437C312.524 248.575 312.784 248.697 313.044 248.82C313.198 248.896 313.366 248.957 313.519 249.034C313.764 249.141 313.994 249.248 314.254 249.356C314.422 249.432 314.591 249.493 314.775 249.57C314.943 249.631 315.111 249.708 315.28 249.784C315.326 249.8 315.387 249.815 315.433 249.846C315.969 250.06 316.52 250.259 317.087 250.443C317.179 250.473 317.255 250.504 317.347 250.519C317.837 250.688 318.327 250.826 318.817 250.979C318.894 251.009 318.985 251.025 319.062 251.055C319.154 251.086 319.261 251.101 319.353 251.132C319.659 251.224 319.981 251.3 320.302 251.377C320.501 251.423 320.685 251.469 320.884 251.515C321.236 251.591 321.589 251.683 321.941 251.76C322.078 251.79 322.201 251.821 322.339 251.851C322.369 251.851 322.415 251.867 322.446 251.867C322.768 251.928 323.089 251.989 323.411 252.05C323.579 252.081 323.763 252.112 323.931 252.142C324.36 252.219 324.789 252.28 325.217 252.341C325.294 252.357 325.355 252.372 325.432 252.372C325.432 252.372 325.432 252.372 325.447 252.372C325.937 252.449 326.442 252.51 326.932 252.556C327.055 252.571 327.177 252.571 327.3 252.586C327.683 252.632 328.066 252.663 328.448 252.694C328.464 252.694 328.464 252.694 328.479 252.694C328.663 252.709 328.831 252.724 329.015 252.724C329.336 252.755 329.643 252.77 329.964 252.785C330.179 252.801 330.378 252.801 330.592 252.816C330.883 252.831 331.189 252.847 331.48 252.847C331.511 252.847 331.526 252.847 331.557 252.847C331.725 252.847 331.894 252.847 332.062 252.847C332.384 252.847 332.705 252.862 333.027 252.862C333.241 252.862 333.455 252.862 333.67 252.847C333.976 252.847 334.282 252.831 334.588 252.831C334.65 252.831 334.696 252.831 334.757 252.831C334.895 252.831 335.033 252.816 335.17 252.816C335.523 252.801 335.875 252.785 336.227 252.77C336.441 252.755 336.64 252.74 336.855 252.724C337.192 252.694 337.528 252.678 337.865 252.648C337.988 252.632 338.095 252.632 338.217 252.617C338.294 252.602 338.386 252.602 338.462 252.586C338.983 252.525 339.504 252.464 340.024 252.403C340.101 252.387 340.193 252.387 340.269 252.372C340.866 252.296 341.448 252.188 342.03 252.096C342.091 252.081 342.137 252.081 342.199 252.066C342.352 252.035 342.505 252.005 342.658 251.974C342.934 251.928 343.209 251.867 343.485 251.806C343.699 251.76 343.929 251.714 344.143 251.668C344.404 251.606 344.679 251.545 344.939 251.484C345.154 251.438 345.384 251.377 345.598 251.316C345.858 251.254 346.119 251.178 346.379 251.101C346.593 251.04 346.808 250.979 347.022 250.917C347.282 250.841 347.527 250.764 347.788 250.688C347.895 250.657 348.017 250.626 348.124 250.581C348.201 250.55 348.277 250.519 348.354 250.504C348.813 250.351 349.257 250.198 349.717 250.029C349.809 249.999 349.901 249.968 349.992 249.922C350.513 249.723 351.034 249.509 351.554 249.294C351.692 249.233 351.815 249.172 351.952 249.111C352.351 248.942 352.733 248.758 353.116 248.559C353.254 248.483 353.407 248.422 353.545 248.345C354.035 248.1 354.51 247.84 354.984 247.564C355.107 247.487 355.245 247.411 355.367 247.334C355.49 247.258 355.597 247.197 355.704 247.12C355.903 246.998 356.087 246.875 356.27 246.768C356.439 246.661 356.607 246.538 356.76 246.431C356.944 246.308 357.113 246.186 357.281 246.063C357.434 245.941 357.587 245.834 357.74 245.711C357.909 245.589 358.077 245.451 358.23 245.328C358.383 245.206 358.521 245.083 358.659 244.976C358.812 244.854 358.965 244.716 359.103 244.578C359.164 244.517 359.226 244.471 359.287 244.41C359.348 244.364 359.394 244.303 359.44 244.257C359.685 244.027 359.915 243.797 360.144 243.552C360.221 243.476 360.297 243.399 360.374 243.307C360.665 243.001 360.925 242.679 361.186 242.358C361.201 242.343 361.216 242.327 361.216 242.312C361.278 242.235 361.323 242.159 361.385 242.082C361.538 241.883 361.691 241.684 361.829 241.485C361.905 241.378 361.982 241.255 362.043 241.148C362.166 240.965 362.273 240.781 362.38 240.597C362.411 240.551 362.441 240.49 362.472 240.444C362.518 240.367 362.548 240.291 362.594 240.214C362.671 240.061 362.763 239.908 362.839 239.74C362.901 239.602 362.962 239.479 363.023 239.341C363.1 239.188 363.161 239.02 363.222 238.867C363.253 238.79 363.283 238.729 363.314 238.652C363.345 238.591 363.36 238.53 363.375 238.469C363.436 238.316 363.482 238.162 363.528 238.009C363.574 237.872 363.605 237.734 363.651 237.596C363.697 237.443 363.727 237.29 363.758 237.137C363.773 237.06 363.804 236.968 363.819 236.892C363.835 236.83 363.835 236.784 363.85 236.723C363.881 236.57 363.896 236.417 363.926 236.248C363.942 236.111 363.957 235.973 363.972 235.835C363.988 235.682 364.003 235.513 364.003 235.36C364.003 235.268 364.018 235.177 364.018 235.085C364.018 234.993 364.018 234.901 364.018 234.809L364.171 180.88H361.431V180.941Z" fill="#E34958"/>
<path d="M301.666 190.297C301.651 194.952 304.729 199.622 310.884 203.174C319.49 208.135 331.801 209.605 342.58 207.6L342.504 235.161C331.724 237.183 319.398 235.697 310.808 230.736C304.652 227.184 301.59 222.529 301.59 217.859L301.666 190.297Z" fill="#EAEEEE"/>
<path d="M354.907 160.761C367.142 167.82 367.203 179.273 355.061 186.332C342.918 193.391 323.15 193.391 310.931 186.332C298.712 179.273 298.635 167.82 310.793 160.776C322.936 153.702 342.688 153.702 354.907 160.761Z" fill="#129F86"/>
<path d="M364.11 167.344C364.095 167.497 364.095 167.651 364.08 167.819C364.064 167.957 364.049 168.095 364.034 168.232C364.018 168.386 363.988 168.539 363.957 168.707C363.926 168.845 363.896 168.983 363.865 169.12C363.835 169.274 363.789 169.427 363.758 169.58C363.727 169.718 363.681 169.855 363.636 169.993C363.59 170.146 363.544 170.3 363.482 170.453C363.436 170.59 363.391 170.728 363.329 170.851C363.268 171.004 363.207 171.172 363.13 171.325C363.069 171.463 363.008 171.586 362.946 171.724C362.87 171.877 362.793 172.03 362.702 172.198C362.64 172.321 362.564 172.443 362.487 172.581C362.38 172.765 362.257 172.949 362.15 173.132C362.074 173.239 362.012 173.362 361.936 173.469C361.798 173.668 361.645 173.867 361.492 174.066C361.431 174.158 361.369 174.235 361.293 174.327C361.048 174.648 360.772 174.954 360.481 175.276C360.405 175.353 360.328 175.429 360.252 175.521C360.022 175.751 359.792 175.996 359.547 176.225C359.44 176.332 359.318 176.44 359.21 176.547C359.057 176.685 358.919 176.807 358.766 176.945C358.628 177.067 358.475 177.19 358.338 177.297C358.184 177.42 358.016 177.557 357.848 177.68C357.694 177.802 357.541 177.91 357.388 178.032C357.22 178.155 357.036 178.277 356.868 178.4C356.699 178.507 356.546 178.629 356.362 178.736C356.179 178.859 355.995 178.981 355.796 179.089C355.551 179.242 355.321 179.38 355.076 179.533C354.617 179.808 354.127 180.053 353.637 180.314C353.499 180.39 353.361 180.451 353.208 180.528C352.825 180.712 352.442 180.895 352.044 181.079C351.906 181.14 351.784 181.202 351.646 181.263C351.141 181.477 350.62 181.692 350.084 181.891C349.992 181.921 349.901 181.952 349.809 181.998C349.365 182.166 348.905 182.32 348.461 182.473C348.278 182.534 348.078 182.595 347.895 182.656C347.65 182.733 347.389 182.81 347.129 182.886C346.915 182.947 346.7 183.009 346.486 183.07C346.226 183.146 345.965 183.208 345.705 183.284C345.491 183.345 345.261 183.391 345.047 183.453C344.786 183.514 344.511 183.575 344.25 183.636C344.036 183.682 343.806 183.728 343.592 183.774C343.316 183.835 343.056 183.881 342.78 183.927C342.566 183.973 342.367 184.004 342.153 184.05C341.571 184.157 340.974 184.249 340.392 184.325C340.3 184.341 340.223 184.341 340.131 184.356C339.611 184.433 339.106 184.494 338.585 184.54C338.386 184.555 338.187 184.586 337.988 184.601C337.651 184.632 337.314 184.662 336.993 184.678C336.778 184.693 336.564 184.708 336.365 184.724C336.013 184.739 335.66 184.754 335.308 184.769C335.109 184.785 334.91 184.785 334.711 184.8C334.405 184.815 334.098 184.815 333.808 184.815C333.593 184.815 333.379 184.831 333.164 184.831C332.843 184.831 332.521 184.831 332.2 184.815C332.001 184.815 331.817 184.815 331.618 184.8C331.327 184.785 331.021 184.785 330.73 184.769C330.515 184.754 330.316 184.754 330.102 184.739C329.781 184.724 329.459 184.693 329.137 184.678C328.954 184.662 328.77 184.662 328.586 184.647C328.203 184.616 327.821 184.57 327.438 184.54C327.315 184.524 327.208 184.524 327.086 184.509C326.58 184.448 326.09 184.387 325.6 184.325C325.524 184.31 325.462 184.31 325.386 184.295C324.957 184.234 324.513 184.157 324.084 184.096C323.901 184.065 323.732 184.034 323.564 184.004C323.242 183.943 322.921 183.881 322.599 183.82C322.431 183.789 322.262 183.744 322.094 183.713C321.742 183.636 321.389 183.56 321.037 183.468C320.838 183.422 320.654 183.376 320.455 183.33C320.134 183.254 319.828 183.162 319.506 183.085C319.322 183.039 319.154 182.978 318.97 182.932C318.48 182.794 317.975 182.641 317.5 182.473C317.408 182.442 317.332 182.411 317.24 182.381C316.689 182.197 316.137 181.983 315.586 181.784C315.372 181.692 315.142 181.615 314.928 181.523C314.759 181.447 314.576 181.385 314.407 181.309C314.162 181.202 313.917 181.095 313.687 180.987C313.534 180.911 313.366 180.85 313.213 180.773C312.953 180.65 312.692 180.513 312.432 180.39C312.309 180.329 312.172 180.268 312.049 180.191C311.666 179.992 311.299 179.793 310.931 179.579C304.776 176.026 301.713 171.371 301.713 166.701L301.545 181.646C301.53 186.301 304.607 190.971 310.763 194.523C311.13 194.738 311.513 194.937 311.881 195.136C312.003 195.197 312.141 195.258 312.263 195.335C312.524 195.473 312.784 195.595 313.044 195.718C313.198 195.794 313.366 195.855 313.519 195.932C313.764 196.039 313.994 196.146 314.254 196.254C314.422 196.33 314.591 196.391 314.775 196.468C314.943 196.529 315.111 196.606 315.28 196.682C315.326 196.698 315.387 196.713 315.433 196.744C315.969 196.958 316.52 197.157 317.087 197.341C317.179 197.371 317.255 197.402 317.347 197.417C317.837 197.586 318.327 197.724 318.817 197.877C318.894 197.907 318.985 197.923 319.062 197.953C319.154 197.984 319.261 197.999 319.353 198.03C319.659 198.122 319.981 198.198 320.302 198.275C320.501 198.321 320.685 198.367 320.884 198.428C321.236 198.504 321.589 198.596 321.941 198.658C322.078 198.688 322.201 198.719 322.339 198.749C322.369 198.749 322.415 198.765 322.446 198.765C322.768 198.826 323.089 198.887 323.411 198.948C323.579 198.979 323.763 199.01 323.931 199.04C324.36 199.117 324.789 199.178 325.217 199.239C325.294 199.255 325.355 199.27 325.432 199.27H325.447C325.937 199.347 326.442 199.408 326.932 199.454C327.055 199.469 327.177 199.469 327.3 199.484C327.683 199.53 328.066 199.561 328.448 199.592C328.464 199.592 328.464 199.592 328.479 199.592C328.663 199.607 328.831 199.622 329.015 199.622C329.336 199.653 329.643 199.668 329.964 199.683C330.179 199.699 330.378 199.699 330.592 199.714C330.883 199.729 331.189 199.745 331.48 199.745C331.511 199.745 331.526 199.745 331.557 199.745C331.725 199.745 331.894 199.745 332.062 199.745C332.384 199.745 332.705 199.76 333.027 199.76C333.241 199.76 333.455 199.76 333.67 199.745C333.976 199.745 334.282 199.729 334.588 199.729C334.65 199.729 334.696 199.729 334.757 199.729C334.895 199.729 335.033 199.714 335.17 199.714C335.523 199.699 335.875 199.683 336.227 199.668C336.441 199.653 336.64 199.637 336.855 199.622C337.192 199.592 337.528 199.576 337.865 199.546C337.988 199.53 338.095 199.53 338.217 199.515C338.294 199.5 338.386 199.5 338.462 199.484C338.983 199.423 339.504 199.362 340.024 199.301C340.101 199.285 340.193 199.285 340.269 199.27C340.866 199.193 341.448 199.086 342.03 198.994C342.091 198.979 342.137 198.979 342.199 198.964C342.352 198.933 342.505 198.903 342.658 198.872C342.934 198.826 343.209 198.765 343.485 198.703C343.699 198.658 343.929 198.612 344.143 198.566C344.404 198.504 344.679 198.443 344.939 198.382C345.154 198.336 345.384 198.275 345.598 198.213C345.858 198.152 346.119 198.076 346.379 197.999C346.593 197.938 346.808 197.877 347.022 197.815C347.282 197.739 347.527 197.662 347.788 197.586C347.895 197.555 348.017 197.524 348.124 197.478C348.201 197.448 348.277 197.417 348.354 197.402C348.813 197.249 349.257 197.096 349.717 196.927C349.809 196.897 349.901 196.866 349.992 196.82C350.513 196.621 351.034 196.407 351.554 196.192C351.692 196.131 351.815 196.07 351.952 196.009C352.351 195.84 352.733 195.656 353.116 195.457C353.254 195.381 353.407 195.32 353.545 195.243C354.035 194.998 354.51 194.738 354.984 194.462C355.107 194.385 355.245 194.309 355.367 194.232C355.49 194.156 355.597 194.095 355.704 194.018C355.903 193.895 356.087 193.773 356.27 193.666C356.439 193.559 356.607 193.436 356.76 193.329C356.944 193.206 357.113 193.084 357.281 192.961C357.434 192.839 357.587 192.732 357.74 192.609C357.909 192.487 358.077 192.349 358.23 192.226C358.383 192.104 358.521 191.981 358.659 191.874C358.812 191.752 358.965 191.614 359.103 191.476C359.164 191.415 359.226 191.369 359.287 191.308C359.348 191.262 359.394 191.201 359.44 191.155C359.685 190.925 359.915 190.695 360.144 190.45C360.221 190.374 360.297 190.297 360.374 190.205C360.665 189.899 360.925 189.577 361.186 189.256C361.201 189.241 361.216 189.225 361.216 189.21C361.278 189.133 361.323 189.057 361.385 188.98C361.538 188.781 361.691 188.582 361.829 188.383C361.905 188.276 361.982 188.153 362.043 188.046C362.166 187.862 362.273 187.679 362.38 187.495C362.411 187.449 362.441 187.388 362.472 187.342C362.518 187.265 362.548 187.189 362.594 187.112C362.671 186.959 362.763 186.806 362.839 186.638C362.901 186.5 362.962 186.377 363.023 186.239C363.1 186.086 363.161 185.918 363.222 185.765C363.253 185.688 363.283 185.627 363.314 185.55C363.345 185.489 363.36 185.428 363.375 185.367C363.436 185.214 363.482 185.06 363.528 184.907C363.574 184.769 363.605 184.632 363.651 184.494C363.697 184.341 363.727 184.188 363.758 184.034C363.773 183.958 363.804 183.866 363.819 183.789C363.835 183.728 363.835 183.682 363.85 183.621C363.881 183.468 363.896 183.315 363.926 183.146C363.942 183.009 363.957 182.871 363.972 182.733C363.988 182.58 364.003 182.411 364.003 182.258C364.003 182.166 364.018 182.075 364.018 181.983C364.018 181.891 364.018 181.799 364.018 181.707L364.187 166.762C364.126 166.977 364.11 167.161 364.11 167.344Z" fill="#ACC0B8"/>
<path d="M354.907 153.915C367.142 160.974 367.203 172.428 355.061 179.486C342.918 186.545 323.15 186.545 310.931 179.486C298.712 172.428 298.635 160.974 310.793 153.931C322.936 146.856 342.688 146.856 354.907 153.915Z" fill="#F2F8FD"/>
<path d="M612.195 309.67L531.5 263.075L368.656 355.622L451.158 403.257C455.537 405.784 462.581 405.784 466.929 403.257L612.241 318.811C616.59 316.269 616.574 312.196 612.195 309.67Z" fill="#1AB8FF"/>
<path d="M545.681 300.82C556.093 306.838 556.155 316.591 545.804 322.609C535.453 328.627 518.625 328.627 508.197 322.609C497.785 316.591 497.724 306.838 508.075 300.835C518.426 294.802 535.254 294.802 545.681 300.82Z" fill="#169FDC"/>
<path d="M533.904 270.149L520.797 270.057L520.965 292.075L533.751 292.167C539.83 292.213 544.791 287.313 544.837 281.234C544.883 275.156 539.983 270.194 533.904 270.149Z" fill="#EAEEEE"/>
<path d="M497.416 280.914C497.37 286.993 502.27 291.954 508.349 292L520.966 292.091C523.049 289.014 524.274 285.324 524.304 281.327C524.335 277.132 523.018 273.258 520.798 270.073L508.502 269.981C502.423 269.935 497.447 274.835 497.416 280.914Z" fill="#129F86"/>
<path d="M493.726 330.05C504.138 336.068 504.2 345.822 493.849 351.84C483.498 357.857 466.67 357.857 456.242 351.84C445.83 345.822 445.769 336.068 456.12 330.066C466.471 324.033 483.314 324.033 493.726 330.05Z" fill="#169FDC"/>
<path d="M481.965 299.381L468.857 299.289L469.026 321.308L481.811 321.4C487.89 321.446 492.851 316.546 492.897 310.467C492.943 304.388 488.043 299.412 481.965 299.381Z" fill="#EAEEEE"/>
<path d="M445.461 310.129C445.415 316.208 450.315 321.169 456.394 321.215L469.011 321.307C471.094 318.23 472.319 314.539 472.349 310.543C472.38 306.347 471.063 302.473 468.843 299.288L456.547 299.197C450.468 299.151 445.507 304.051 445.461 310.129Z" fill="#E34958"/>
<path d="M440.073 370.151L434.683 373.275L404.35 355.773L409.739 352.634L440.073 370.151Z" fill="#8AE6FF"/>
<path d="M466.686 375.511L461.311 378.65L412.986 350.752L418.376 347.628L466.686 375.511Z" fill="#8AE6FF"/>
<path d="M558.938 121.041L558.785 177.374C558.785 179.595 556.366 180.973 554.452 179.855L519.678 159.658C518.392 158.908 516.738 159.26 515.881 160.485L515.1 161.588C513.768 163.456 510.889 163.104 510.062 160.96L508.929 158.02L507.03 153.089C506.785 152.477 506.341 151.956 505.775 151.62L476.421 134.792C475.518 134.271 474.967 133.322 474.967 132.28L475.12 75.9472C475.12 73.7269 477.524 72.3488 479.453 73.4513L557.514 118.515C558.387 119.066 558.938 120.015 558.938 121.041Z" fill="#FF962B"/>
<path d="M536.477 145.814C533.782 144.252 531.592 140.47 531.608 137.361C531.623 134.253 533.828 133.013 536.523 134.559C539.233 136.121 541.423 139.903 541.407 143.012C541.392 146.135 539.187 147.376 536.477 145.814Z" fill="white"/>
<path d="M514.029 132.862C511.319 131.301 509.145 127.519 509.16 124.41C509.176 121.302 511.365 120.046 514.075 121.608C516.786 123.17 518.96 126.952 518.945 130.06C518.929 133.169 516.74 134.424 514.029 132.862Z" fill="white"/>
<path d="M491.567 119.893C488.856 118.331 486.682 114.549 486.697 111.44C486.713 108.332 488.902 107.076 491.613 108.638C494.323 110.2 496.497 113.982 496.482 117.091C496.466 120.199 494.277 121.455 491.567 119.893Z" fill="white"/>
<path d="M155.342 151.313L155.51 208.075C155.51 210.325 157.96 211.734 159.92 210.616L240.814 163.915C241.733 163.394 242.284 162.414 242.284 161.357L242.115 104.595C242.115 102.345 239.666 100.936 237.706 102.054L156.812 148.756C155.908 149.276 155.342 150.256 155.342 151.313Z" fill="#8AE6FF"/>
<path d="M167.514 156.993L167.682 213.755C167.682 216.006 170.132 217.415 172.092 216.297L252.986 169.595C253.905 169.075 254.456 168.095 254.456 167.038L254.303 110.276C254.303 108.025 251.853 106.617 249.893 107.734L168.999 154.436C168.08 154.957 167.514 155.937 167.514 156.993Z" fill="#1AB8FF"/>
<path d="M254.38 141.237L244.81 146.764C244.58 146.902 244.381 146.871 244.258 146.718L238.425 137.975C237.705 136.888 236.342 136.75 234.857 137.608C234.704 137.699 234.551 137.791 234.397 137.899C232.744 139.047 231.396 141.16 230.937 143.242L226.083 165.506C225.976 166.012 225.685 166.257 225.455 166.379C225.226 166.502 224.95 166.547 224.858 166.134L224.062 161.939C223.679 159.963 222.117 159.351 220.188 160.377C218.151 161.556 216.59 163.837 216.115 166.211C216.008 166.701 215.747 166.961 215.533 167.083C215.288 167.221 215.028 167.282 214.905 166.961L210.939 156.288C210.357 154.727 208.842 154.359 207.111 155.354C205.289 156.411 203.835 158.493 203.253 160.683L198.322 179.348C198.2 179.823 197.924 180.053 197.71 180.175C197.495 180.282 197.22 180.344 197.128 179.976L195.826 175.168C195.367 173.423 193.836 172.902 192.029 173.867C190.176 174.938 188.614 177.067 188.032 179.333L187.144 182.84C187.022 183.299 186.746 183.529 186.593 183.636C186.379 183.758 186.134 183.85 185.996 183.62L185.169 182.35C184.449 181.232 183.071 181.094 181.571 181.967L167.637 190.021L167.652 193.987L181.586 185.933C181.816 185.795 182.03 185.825 182.137 185.994L182.964 187.265C183.699 188.383 185.062 188.52 186.578 187.648C186.685 187.586 186.792 187.525 186.899 187.448C188.538 186.346 189.885 184.355 190.421 182.258L191.309 178.751C191.432 178.292 191.692 178.047 191.891 177.924C192.136 177.802 192.412 177.725 192.504 178.108L193.79 182.916C194.264 184.677 195.75 185.182 197.572 184.233C199.517 183.115 200.986 181.048 201.584 178.812L206.499 160.147C206.637 159.657 206.989 159.397 207.096 159.32C207.264 159.228 207.555 159.121 207.678 159.473L211.644 170.146C212.241 171.723 213.757 172.06 215.518 171.049C217.508 169.824 218.978 167.604 219.453 165.292C219.56 164.787 219.851 164.526 220.081 164.388C220.31 164.266 220.586 164.22 220.678 164.633L221.474 168.829C221.857 170.789 223.388 171.417 225.302 170.406C227.339 169.242 228.885 167.007 229.39 164.664L234.244 142.4C234.352 141.941 234.627 141.696 234.78 141.573C235.025 141.42 235.255 141.359 235.408 141.589L241.242 150.332C241.977 151.404 243.34 151.542 244.825 150.684L254.395 145.156L254.38 141.237Z" fill="#8AE6FF"/>
<path d="M283.815 51.0184C283.861 50.5131 283.923 50.0078 283.999 49.5025C284.076 48.936 284.183 48.3847 284.29 47.8182C284.367 47.4354 284.428 47.0526 284.52 46.6698C284.596 46.3176 284.688 45.9501 284.78 45.5979C284.903 45.0926 285.04 44.5873 285.178 44.0974C285.27 43.8064 285.347 43.5155 285.438 43.2246C285.622 42.658 285.806 42.0915 286.005 41.5249C286.082 41.2952 286.173 41.0656 286.25 40.8359C286.541 40.055 286.847 39.2894 287.184 38.5238C287.23 38.4319 287.261 38.34 287.307 38.2481C287.613 37.5591 287.934 36.8853 288.271 36.2116C288.378 35.9972 288.486 35.7829 288.593 35.5838C288.93 34.9407 289.267 34.3129 289.619 33.6851C289.68 33.5626 289.756 33.4401 289.818 33.3176C290.246 32.5826 290.691 31.863 291.15 31.1586C291.288 30.9443 291.425 30.7452 291.563 30.5461C291.9 30.0408 292.252 29.5356 292.605 29.0456C292.804 28.7699 292.987 28.5096 293.186 28.2493C293.493 27.8359 293.814 27.4378 294.136 27.0397C294.411 26.7028 294.687 26.3659 294.963 26.0291C295.223 25.7228 295.499 25.4166 295.759 25.1257C296.218 24.6051 296.693 24.1151 297.168 23.6251C297.458 23.3188 297.765 23.0279 298.056 22.737C298.285 22.5073 298.53 22.2929 298.775 22.0633C299.173 21.7111 299.572 21.3589 299.97 21.022C300.215 20.823 300.444 20.6239 300.689 20.4248C301.133 20.0727 301.577 19.7511 302.021 19.4296C302.236 19.2764 302.45 19.108 302.665 18.9702C303.323 18.5108 303.997 18.0821 304.67 17.684C305.329 17.3012 305.972 16.9796 306.6 16.6734C306.768 16.5968 306.937 16.5203 307.105 16.4437C307.718 16.1681 308.33 15.9231 308.927 15.7087C308.958 15.6934 309.004 15.6934 309.034 15.6781C309.555 15.5097 310.076 15.3719 310.581 15.2494C310.872 15.1728 311.163 15.1115 311.438 15.0656C311.821 14.9891 312.189 14.9278 312.556 14.8972C312.771 14.8666 312.985 14.8513 313.184 14.8359C313.643 14.8053 314.103 14.79 314.547 14.8053C314.654 14.8053 314.761 14.8053 314.853 14.8053C315.389 14.8359 315.91 14.8972 316.415 15.0044C316.537 15.035 316.66 15.0656 316.782 15.0962C317.18 15.1881 317.563 15.2953 317.946 15.4331C318.069 15.479 318.191 15.5097 318.298 15.5556C318.773 15.7394 319.248 15.9537 319.676 16.214L313.95 12.8913C313.904 12.876 313.873 12.8454 313.827 12.8301C313.49 12.631 313.138 12.4625 312.771 12.3094C312.709 12.2788 312.633 12.2635 312.556 12.2329C312.434 12.187 312.327 12.1563 312.204 12.1104C312.02 12.0491 311.837 11.9726 311.653 11.9113C311.454 11.8501 311.239 11.8195 311.04 11.7735C310.918 11.7429 310.795 11.7123 310.673 11.6817C310.612 11.6663 310.535 11.651 310.474 11.6357C310.06 11.5592 309.632 11.5132 309.203 11.4826C309.172 11.4826 309.142 11.4826 309.126 11.4826C309.019 11.4826 308.927 11.4826 308.82 11.4826C308.483 11.4673 308.162 11.452 307.809 11.4673C307.702 11.4673 307.58 11.4979 307.457 11.4979C307.243 11.5132 307.044 11.5438 306.829 11.5592C306.63 11.5745 306.431 11.5898 306.232 11.6204C306.064 11.651 305.88 11.697 305.712 11.7276C305.421 11.7888 305.145 11.8348 304.854 11.9113C304.701 11.9419 304.548 11.9726 304.395 12.0185C304.043 12.1104 303.675 12.2329 303.323 12.3554C303.292 12.3707 303.246 12.3707 303.216 12.386C302.787 12.5391 302.358 12.6922 301.914 12.876C301.746 12.9526 301.562 13.0291 301.394 13.121C301.225 13.1976 301.057 13.2741 300.888 13.3507C300.245 13.6569 299.602 13.9785 298.959 14.3613C298.285 14.7594 297.612 15.1881 296.953 15.6475C296.739 15.8006 296.524 15.9537 296.31 16.1068C295.866 16.4284 295.422 16.7653 294.978 17.1021C294.733 17.3012 294.488 17.5002 294.258 17.6993C293.86 18.0362 293.462 18.3884 293.064 18.7405C292.819 18.9549 292.589 19.1846 292.344 19.4142C292.191 19.552 292.038 19.6899 291.9 19.8277C291.747 19.9808 291.609 20.1492 291.456 20.3023C290.981 20.7923 290.507 21.2823 290.047 21.8029C289.894 21.9714 289.741 22.1092 289.603 22.2776C289.481 22.4154 289.374 22.5685 289.251 22.7064C288.976 23.0279 288.7 23.3648 288.424 23.717C288.241 23.9313 288.057 24.1457 287.888 24.3754C287.751 24.5591 287.613 24.7582 287.475 24.9419C287.276 25.2022 287.077 25.4778 286.893 25.7381C286.755 25.9219 286.618 26.1056 286.495 26.2894C286.281 26.5956 286.066 26.9325 285.852 27.2387C285.714 27.4378 285.576 27.6522 285.438 27.8512C285.377 27.9431 285.316 28.0197 285.27 28.1115C284.887 28.6934 284.535 29.2906 284.183 29.903C284.152 29.949 284.137 29.9796 284.122 30.0255C284.045 30.148 283.984 30.2705 283.923 30.393C283.678 30.8218 283.433 31.2505 283.203 31.6792C283.096 31.8783 283.004 32.0927 282.897 32.2917C282.789 32.5061 282.682 32.7052 282.575 32.9195C282.483 33.1033 282.391 33.287 282.3 33.4708C282.055 33.9607 281.84 34.466 281.61 34.956C281.565 35.0479 281.534 35.1398 281.488 35.2316C281.473 35.2623 281.473 35.2776 281.457 35.3082C281.182 35.936 280.921 36.5638 280.676 37.2069C280.63 37.3294 280.6 37.4366 280.554 37.5591C280.462 37.7888 280.385 38.0184 280.309 38.2481C280.202 38.5697 280.079 38.8759 279.972 39.1975C279.895 39.4425 279.819 39.6875 279.742 39.9478C279.651 40.2387 279.559 40.5296 279.482 40.8206C279.436 41.0043 279.375 41.188 279.314 41.3565C279.222 41.678 279.161 41.9996 279.069 42.3211C278.977 42.6733 278.885 43.0408 278.808 43.393C278.778 43.5155 278.747 43.638 278.716 43.7758C278.655 44.0361 278.64 44.2964 278.579 44.5567C278.471 45.1233 278.364 45.6745 278.288 46.241C278.272 46.3942 278.226 46.5473 278.211 46.7004C278.165 47.0526 278.15 47.4048 278.104 47.757C278.073 48.0019 278.043 48.2622 278.027 48.5072C277.966 49.2881 277.936 50.0691 277.936 50.8347C277.951 54.9996 278.87 58.3835 280.493 60.8794C281.457 62.38 282.682 63.5437 284.106 64.3706L289.833 67.6933C286.036 65.4884 283.693 60.8028 283.678 54.1574C283.678 53.3918 283.708 52.6109 283.769 51.83C283.769 51.5084 283.8 51.2634 283.815 51.0184Z" fill="#128163"/>
<path d="M319.69 50.5913C327.951 36.3776 327.973 20.9761 319.74 16.1912C311.508 11.4063 298.137 19.0499 289.876 33.2637C281.615 47.4775 281.592 62.8789 289.825 67.6638C298.058 72.4487 311.429 64.8051 319.69 50.5913Z" fill="#129F86"/>
<path d="M305.984 31.7868L310.379 29.245L310.425 46.1648L308.648 47.1908V49.7785L306.045 51.2791L306.061 55.9186L304.882 57.8327L304.866 51.9681L302.248 53.484V50.8963L300.472 51.9222L300.426 35.0023L304.82 32.4605V30.1331L302.202 31.649L302.187 28.7856L308.602 25.0801L308.618 27.9434L306.015 29.444L305.984 31.7868ZM309.169 36.1813L309.154 31.5112L301.62 35.8598L301.635 40.53L309.169 36.1813Z" fill="white"/>
<path d="M283.808 122.849C283.854 122.343 283.915 121.838 283.991 121.333C284.068 120.766 284.175 120.215 284.282 119.648C284.359 119.265 284.42 118.883 284.512 118.5C284.589 118.148 284.68 117.78 284.772 117.428C284.895 116.923 285.033 116.417 285.17 115.927C285.262 115.637 285.339 115.346 285.431 115.055C285.614 114.488 285.798 113.922 285.997 113.355C286.074 113.125 286.166 112.896 286.242 112.666C286.533 111.885 286.839 111.119 287.176 110.354C287.222 110.262 287.253 110.17 287.299 110.078C287.605 109.389 287.927 108.715 288.263 108.042C288.371 107.827 288.478 107.613 288.585 107.414C288.922 106.771 289.259 106.143 289.611 105.515C289.672 105.393 289.749 105.27 289.81 105.148C290.239 104.413 290.683 103.693 291.142 102.989C291.28 102.774 291.418 102.575 291.555 102.376C291.892 101.871 292.245 101.366 292.597 100.876C292.796 100.6 292.98 100.34 293.179 100.079C293.485 99.666 293.806 99.2679 294.128 98.8698C294.404 98.5329 294.679 98.196 294.955 97.8592C295.215 97.5529 295.491 97.2467 295.751 96.9558C296.21 96.4352 296.685 95.9452 297.16 95.4552C297.451 95.1489 297.757 94.858 298.048 94.5671C298.278 94.3374 298.523 94.123 298.768 93.8933C299.166 93.5412 299.564 93.189 299.962 92.8521C300.207 92.6531 300.437 92.454 300.682 92.2549C301.126 91.9028 301.57 91.5812 302.014 91.2597C302.228 91.1065 302.442 90.9381 302.657 90.8003C303.315 90.3409 303.989 89.9122 304.663 89.5141C305.321 89.1313 305.964 88.8097 306.592 88.5035C306.76 88.4269 306.929 88.3503 307.097 88.2738C307.71 87.9982 308.322 87.7532 308.919 87.5388C308.95 87.5235 308.996 87.5235 309.027 87.5082C309.547 87.3397 310.068 87.2019 310.573 87.0794C310.864 87.0029 311.155 86.9416 311.431 86.8957C311.813 86.8191 312.181 86.7579 312.548 86.7273C312.763 86.6966 312.977 86.6813 313.176 86.666C313.636 86.6354 314.095 86.6201 314.539 86.6354C314.646 86.6354 314.753 86.6354 314.845 86.6354C315.381 86.666 315.902 86.7273 316.407 86.8345C316.53 86.8651 316.652 86.8957 316.775 86.9263C317.173 87.0182 317.555 87.1254 317.938 87.2632C318.061 87.3091 318.183 87.3398 318.29 87.3857C318.765 87.5695 319.24 87.7838 319.669 88.0441L313.942 84.7214C313.896 84.7061 313.865 84.6754 313.819 84.6601C313.482 84.4611 313.13 84.2926 312.763 84.1395C312.702 84.1089 312.625 84.0936 312.548 84.063C312.426 84.017 312.319 83.9864 312.196 83.9405C312.012 83.8792 311.829 83.8027 311.645 83.7414C311.446 83.6802 311.232 83.6496 311.032 83.6036C310.91 83.573 310.788 83.5423 310.665 83.5117C310.604 83.4964 310.527 83.4811 310.466 83.4658C310.053 83.3892 309.624 83.3433 309.195 83.3127C309.164 83.3127 309.134 83.3127 309.118 83.3127C309.011 83.3127 308.919 83.3127 308.812 83.3127C308.475 83.2974 308.154 83.282 307.802 83.2974C307.694 83.2974 307.572 83.328 307.449 83.328C307.235 83.3433 307.036 83.3739 306.822 83.3892C306.623 83.4046 306.424 83.4199 306.224 83.4505C306.056 83.4811 305.872 83.5271 305.704 83.5577C305.413 83.6189 305.137 83.6649 304.846 83.7414C304.693 83.772 304.54 83.8027 304.387 83.8486C304.035 83.9405 303.667 84.063 303.315 84.1855C303.285 84.2008 303.239 84.2008 303.208 84.2161C302.779 84.3692 302.351 84.5223 301.906 84.7061C301.738 84.7826 301.554 84.8592 301.386 84.9511C301.217 85.0276 301.049 85.1042 300.881 85.1808C300.237 85.487 299.594 85.8085 298.951 86.1913C298.278 86.5895 297.604 87.0182 296.945 87.4776C296.731 87.6307 296.517 87.7838 296.302 87.9369C295.858 88.2585 295.414 88.5954 294.97 88.9322C294.725 89.1313 294.48 89.3303 294.25 89.5294C293.852 89.8663 293.454 90.2184 293.056 90.5706C292.811 90.785 292.581 91.0147 292.336 91.2443C292.183 91.3821 292.03 91.52 291.892 91.6578C291.739 91.8109 291.601 91.9793 291.448 92.1324C290.974 92.6224 290.499 93.1124 290.04 93.633C289.886 93.8015 289.733 93.9393 289.596 94.1077C289.473 94.2455 289.366 94.3986 289.243 94.5365C288.968 94.858 288.692 95.1949 288.417 95.547C288.233 95.7614 288.049 95.9758 287.881 96.2055C287.743 96.3892 287.605 96.5883 287.467 96.772C287.268 97.0323 287.069 97.3079 286.885 97.5682C286.748 97.752 286.61 97.9357 286.487 98.1195C286.273 98.4257 286.058 98.7626 285.844 99.0841C285.706 99.2832 285.568 99.4976 285.431 99.6966C285.369 99.7885 285.308 99.8651 285.262 99.9569C284.879 100.539 284.527 101.136 284.175 101.748C284.144 101.794 284.129 101.825 284.114 101.871C284.037 101.993 283.976 102.116 283.915 102.238C283.67 102.667 283.425 103.096 283.195 103.525C283.088 103.724 282.996 103.938 282.889 104.137C282.782 104.351 282.674 104.551 282.567 104.765C282.475 104.949 282.384 105.132 282.292 105.316C282.047 105.806 281.832 106.311 281.603 106.801C281.557 106.893 281.526 106.985 281.48 107.077C281.465 107.108 281.465 107.123 281.45 107.154C281.174 107.781 280.914 108.409 280.669 109.052C280.623 109.175 280.592 109.282 280.546 109.404C280.454 109.634 280.378 109.864 280.301 110.094C280.194 110.415 280.071 110.721 279.964 111.043C279.888 111.288 279.811 111.533 279.735 111.793C279.643 112.084 279.551 112.375 279.474 112.666C279.428 112.85 279.367 113.033 279.306 113.202C279.214 113.523 279.153 113.845 279.061 114.167C278.969 114.519 278.877 114.886 278.801 115.238C278.77 115.361 278.739 115.483 278.709 115.621C278.647 115.882 278.632 116.142 278.571 116.402C278.464 116.969 278.356 117.52 278.28 118.086C278.265 118.24 278.219 118.393 278.203 118.546C278.157 118.898 278.142 119.25 278.096 119.602C278.066 119.847 278.035 120.108 278.02 120.353C277.958 121.134 277.928 121.914 277.928 122.68C277.943 126.845 278.862 130.229 280.485 132.725C281.45 134.225 282.674 135.389 284.099 136.216L289.825 139.539C286.028 137.334 283.685 132.648 283.67 126.003C283.67 125.237 283.7 124.456 283.762 123.675C283.762 123.354 283.792 123.109 283.808 122.849Z" fill="#128163"/>
<path d="M319.676 122.424C327.937 108.211 327.96 92.8091 319.727 88.0242C311.494 83.2393 298.123 90.8829 289.862 105.097C281.601 119.31 281.578 134.712 289.811 139.497C298.044 144.282 311.415 136.638 319.676 122.424Z" fill="#129F86"/>
<path d="M305.247 104.334C308.723 102.329 311.724 103.048 312.995 105.774L297.27 121.423C297.025 120.657 296.887 119.784 296.887 118.804C296.887 113.491 300.623 107.014 305.247 104.334Z" fill="white"/>
<path d="M313.529 107.564C313.621 108.054 313.667 108.56 313.667 109.126C313.682 114.44 309.931 120.932 305.307 123.596C302.198 125.388 299.503 125.005 298.049 122.953L313.529 107.564Z" fill="white"/>
</svg>
