<svg width="55" height="55" viewBox="0 0 55 55" fill="none" xmlns="http://www.w3.org/2000/svg">
<path d="M49.8438 18.5904V12.0312C49.8438 11.1196 49.4816 10.2452 48.8369 9.60057C48.1923 8.95591 47.3179 8.59375 46.4062 8.59375H8.59375C7.68207 8.59375 6.80773 8.95591 6.16307 9.60057C5.51841 10.2452 5.15625 11.1196 5.15625 12.0312V39.5312C5.15625 40.4429 5.51841 41.3173 6.16307 41.9619C6.80773 42.6066 7.68207 42.9688 8.59375 42.9688H34.375V48.125C34.3723 48.428 34.4497 48.7264 34.5994 48.9898C34.7492 49.2532 34.9659 49.4724 35.2277 49.6251C35.4894 49.7778 35.7869 49.8585 36.0899 49.8592C36.3929 49.8599 36.6907 49.7804 36.9531 49.6289L42.1094 46.677L47.2656 49.6289C47.528 49.7804 47.8259 49.8599 48.1289 49.8592C48.4319 49.8585 48.7294 49.7778 48.9911 49.6251C49.2528 49.4724 49.4696 49.2532 49.6193 48.9898C49.769 48.7264 49.8465 48.428 49.8438 48.125V34.6908C50.9302 33.6504 51.7949 32.4007 52.3856 31.0172C52.9763 29.6337 53.2808 28.145 53.2808 26.6406C53.2808 25.1363 52.9763 23.6475 52.3856 22.264C51.7949 20.8805 50.9302 19.6309 49.8438 18.5904ZM27.5 30.9375H15.4688C15.0129 30.9375 14.5757 30.7564 14.2534 30.4341C13.9311 30.1118 13.75 29.6746 13.75 29.2188C13.75 28.7629 13.9311 28.3257 14.2534 28.0034C14.5757 27.6811 15.0129 27.5 15.4688 27.5H27.5C27.9558 27.5 28.393 27.6811 28.7153 28.0034C29.0377 28.3257 29.2188 28.7629 29.2188 29.2188C29.2188 29.6746 29.0377 30.1118 28.7153 30.4341C28.393 30.7564 27.9558 30.9375 27.5 30.9375ZM27.5 24.0625H15.4688C15.0129 24.0625 14.5757 23.8814 14.2534 23.5591C13.9311 23.2368 13.75 22.7996 13.75 22.3438C13.75 21.8879 13.9311 21.4507 14.2534 21.1284C14.5757 20.8061 15.0129 20.625 15.4688 20.625H27.5C27.9558 20.625 28.393 20.8061 28.7153 21.1284C29.0377 21.4507 29.2188 21.8879 29.2188 22.3438C29.2188 22.7996 29.0377 23.2368 28.7153 23.5591C28.393 23.8814 27.9558 24.0625 27.5 24.0625ZM46.4062 45.1623L42.9688 43.1943C42.709 43.0459 42.415 42.9678 42.1158 42.9678C41.8166 42.9678 41.5226 43.0459 41.2629 43.1943L37.8254 45.1623V36.9531C39.1866 37.5218 40.6471 37.8147 42.1223 37.8147C43.5975 37.8147 45.058 37.5218 46.4191 36.9531L46.4062 45.1623ZM42.1094 34.375C40.5797 34.375 39.0843 33.9214 37.8124 33.0715C36.5405 32.2217 35.5491 31.0137 34.9637 29.6004C34.3783 28.1872 34.2252 26.632 34.5236 25.1317C34.822 23.6314 35.5587 22.2533 36.6403 21.1716C37.722 20.0899 39.1002 19.3533 40.6005 19.0549C42.1008 18.7564 43.6559 18.9096 45.0692 19.495C46.4825 20.0804 47.6904 21.0717 48.5403 22.3436C49.3901 23.6155 49.8438 25.1109 49.8438 26.6406C49.8438 27.6563 49.6437 28.6621 49.255 29.6004C48.8663 30.5388 48.2966 31.3915 47.5784 32.1097C46.8602 32.8279 46.0076 33.3976 45.0692 33.7863C44.1308 34.1749 43.1251 34.375 42.1094 34.375Z" fill="#0C3B98"/>
</svg>
