<svg width="50" height="50" viewBox="0 0 50 50" fill="none" xmlns="http://www.w3.org/2000/svg">
<path d="M37.4994 20.8337V16.667H41.666V20.8337H37.4994ZM37.4994 25.0003V20.8337H33.3327V25.0003H37.4994ZM37.4994 16.667V12.5003H33.3327V16.667H37.4994ZM33.3327 5.91699V8.33366H37.4994C36.1869 7.37533 34.8119 6.56283 33.3327 5.91699ZM37.4994 8.33366V12.5003H41.666C40.4577 10.9378 39.0619 9.54199 37.4994 8.33366ZM41.666 12.5003V16.667H44.0827C43.4369 15.1878 42.6244 13.8128 41.666 12.5003ZM45.8327 25.0003C45.8327 23.5837 45.6869 22.1878 45.416 20.8337H41.666V25.0003H45.8327ZM33.3327 12.5003V8.33366H29.166V12.5003H33.3327ZM33.3327 33.3337H37.4994V29.167H33.3327V33.3337ZM37.4994 37.5003H41.666V33.3337H37.4994V37.5003ZM33.3327 41.667H37.4994V37.5003H33.3327V41.667ZM29.166 45.417C30.6244 45.1253 31.9994 44.667 33.3327 44.0837V41.667H29.166V45.417ZM37.4994 29.167H41.666V25.0003H37.4994V29.167ZM33.3327 16.667H29.166V20.8337H33.3327V16.667ZM41.666 33.3337H44.0827C44.666 32.0003 45.1244 30.6253 45.416 29.167H41.666V33.3337ZM33.3327 25.0003H29.166V29.167H33.3327V25.0003ZM24.9994 37.5003V33.3337H29.166V29.167H24.9994V25.0003H29.166V20.8337H24.9994V16.667H29.166V12.5003H24.9994V8.33366H29.166V4.58366C27.8119 4.31283 26.4369 4.16699 24.9994 4.16699C13.541 4.16699 4.16602 13.542 4.16602 25.0003C4.16602 36.4587 13.541 45.8337 24.9994 45.8337V41.667H29.166V37.5003H24.9994ZM29.166 37.5003H33.3327V33.3337H29.166V37.5003Z" fill="#0C3B98"/>
</svg>
